<svg width="1920" height="969" viewBox="0 0 1920 969" fill="none" xmlns="http://www.w3.org/2000/svg">
<g clip-path="url(#clip0)">
<g style="mix-blend-mode:color-dodge">
<g style="mix-blend-mode:color-dodge">
<g style="mix-blend-mode:color-dodge">
<g style="mix-blend-mode:color-dodge">
<g style="mix-blend-mode:color-dodge">
<path fill-rule="evenodd" clip-rule="evenodd" d="M745.239 127.886C744.582 126.903 744.232 125.748 744.232 124.567C744.232 122.982 744.861 121.463 745.982 120.342C746.914 119.411 748.122 118.819 749.414 118.646V-218.621L703.879 -264.125V-332H705.469V-264.761L751.004 -219.289V118.646C751.904 118.766 752.769 119.091 753.531 119.599C754.514 120.256 755.28 121.189 755.732 122.28C756.185 123.372 756.303 124.573 756.073 125.732C755.842 126.891 755.273 127.955 754.437 128.791C753.601 129.626 752.535 130.195 751.376 130.426C750.216 130.656 749.014 130.538 747.922 130.086C746.829 129.634 745.896 128.868 745.239 127.886Z" fill="#00C2FF"/>
</g>
</g>
</g>
</g>
</g>
<g style="mix-blend-mode:color-dodge">
<g style="mix-blend-mode:color-dodge">
<g style="mix-blend-mode:color-dodge">
<g style="mix-blend-mode:color-dodge">
<g style="mix-blend-mode:color-dodge">
<path fill-rule="evenodd" clip-rule="evenodd" d="M835.856 35.0193C832.554 35.0193 829.878 32.3446 829.878 29.0453C829.878 26.0155 832.135 23.5125 835.06 23.1237V-229.108L769.016 -295.107V-332H770.606V-295.743L836.65 -229.775V23.1236C839.576 23.5118 841.834 26.0151 841.834 29.0453C841.834 32.3446 839.157 35.0193 835.856 35.0193Z" fill="#00C2FF"/>
</g>
</g>
</g>
</g>
</g>
<g style="mix-blend-mode:color-dodge">
<g style="mix-blend-mode:color-dodge">
<g style="mix-blend-mode:color-dodge">
<g style="mix-blend-mode:color-dodge">
<path fill-rule="evenodd" clip-rule="evenodd" d="M1183.56 55.3597C1182.77 56.3988 1182.34 57.6737 1182.34 58.9931C1182.34 60.5759 1182.96 62.0947 1184.08 63.2193C1184.91 64.0542 1185.98 64.6226 1187.14 64.8527C1188.3 65.0827 1189.5 64.9641 1190.59 64.5118C1191.68 64.0594 1192.62 63.2937 1193.27 62.3114C1193.93 61.3291 1194.28 60.1744 1194.28 58.9931C1194.28 57.8118 1193.93 56.657 1193.27 55.6747C1192.62 54.6924 1191.68 53.9267 1190.59 53.4743C1189.5 53.022 1188.3 52.9034 1187.14 53.1334C1186.25 53.3091 1185.42 53.6823 1184.71 54.2208L1121.66 -8.78561V-282H1120.07V-8.11829L1183.56 55.3597Z" fill="#00C2FF"/>
</g>
</g>
</g>
</g>
<g style="mix-blend-mode:color-dodge">
<g style="mix-blend-mode:color-dodge">
<g style="mix-blend-mode:color-dodge">
<g style="mix-blend-mode:color-dodge">
<g style="mix-blend-mode:color-dodge">
<path fill-rule="evenodd" clip-rule="evenodd" d="M891.694 -202.161V89.5472L809.805 171.411C810.569 172.415 811.022 173.667 811.022 175.025C811.022 178.325 808.346 180.999 805.044 180.999C801.743 180.999 799.066 178.325 799.066 175.025C799.066 171.726 801.743 169.051 805.044 169.051C806.404 169.051 807.658 169.505 808.662 170.269L890.104 88.9117V-201.526L819.704 -271.847V-332H821.294V-272.514L891.694 -202.161Z" fill="#00C2FF"/>
</g>
</g>
</g>
</g>
</g>
<g style="mix-blend-mode:color-dodge">
<g style="mix-blend-mode:color-dodge">
<g style="mix-blend-mode:color-dodge">
<g style="mix-blend-mode:color-dodge">
<g style="mix-blend-mode:color-dodge">
<path fill-rule="evenodd" clip-rule="evenodd" d="M1085.03 -332L1061.24 -308.263V97.4822C1062.14 97.6029 1063.01 97.9277 1063.77 98.436C1064.75 99.0924 1065.52 100.025 1065.97 101.117C1066.42 102.209 1066.54 103.41 1066.31 104.569C1066.08 105.727 1065.51 106.792 1064.67 107.627C1063.84 108.463 1062.77 109.032 1061.61 109.262C1060.45 109.493 1059.25 109.375 1058.16 108.922C1057.07 108.47 1056.13 107.705 1055.48 106.722C1054.82 105.74 1054.47 104.585 1054.47 103.403C1054.47 101.819 1055.1 100.299 1056.22 99.1789C1057.15 98.2475 1058.36 97.6555 1059.65 97.4823V-308.898L1082.77 -332H1085.03Z" fill="#00C2FF"/>
</g>
</g>
</g>
</g>
</g>
<g style="mix-blend-mode:color-dodge">
<g style="mix-blend-mode:color-dodge">
<g style="mix-blend-mode:color-dodge">
<g style="mix-blend-mode:color-dodge">
<g style="mix-blend-mode:color-dodge">
<path d="M1499.18 -8.4516L1384.2 -123.324V-254.974L1309.28 -329.839V-332H1307.69V-329.204L1382.61 -254.338V-122.656L1497.59 -7.7843V142.392H1499.18V-8.4516Z" fill="#00C2FF"/>
</g>
</g>
</g>
</g>
<g style="mix-blend-mode:color-dodge">
<g style="mix-blend-mode:color-dodge">
<g style="mix-blend-mode:color-dodge">
<g style="mix-blend-mode:color-dodge">
<path d="M1492.41 142.106C1492.41 145.406 1495.08 148.08 1498.39 148.08C1501.69 148.08 1504.36 145.406 1504.36 142.106C1504.36 138.807 1501.69 136.132 1498.39 136.132C1495.08 136.132 1492.41 138.807 1492.41 142.106Z" fill="#00C2FF"/>
</g>
</g>
</g>
</g>
</g>
<g style="mix-blend-mode:color-dodge">
<g style="mix-blend-mode:color-dodge">
<g style="mix-blend-mode:color-dodge">
<g style="mix-blend-mode:color-dodge">
<g style="mix-blend-mode:color-dodge">
<path d="M1333.11 148.651L1244.37 59.9633V-205.275L1296.04 -256.912V-332H1294.45V-257.548L1242.78 -205.943V60.6306L1332 149.795L1333.11 148.651Z" fill="#00C2FF"/>
</g>
</g>
</g>
</g>
<g style="mix-blend-mode:color-dodge">
<g style="mix-blend-mode:color-dodge">
<g style="mix-blend-mode:color-dodge">
<g style="mix-blend-mode:color-dodge">
<path d="M1328.12 153.259C1328.96 154.094 1330.02 154.662 1331.18 154.892C1332.34 155.122 1333.54 155.004 1334.64 154.552C1335.73 154.099 1336.66 153.333 1337.32 152.351C1337.97 151.369 1338.32 150.214 1338.32 149.033C1338.32 147.852 1337.97 146.697 1337.32 145.714C1336.66 144.732 1335.73 143.966 1334.64 143.514C1333.54 143.062 1332.34 142.943 1331.18 143.173C1330.02 143.403 1328.96 143.972 1328.12 144.807C1327.01 145.931 1326.38 147.45 1326.38 149.033C1326.38 150.616 1327.01 152.134 1328.12 153.259Z" fill="#00C2FF"/>
</g>
</g>
</g>
</g>
</g>
<g style="mix-blend-mode:color-dodge">
<g style="mix-blend-mode:color-dodge">
<g style="mix-blend-mode:color-dodge">
<g style="mix-blend-mode:color-dodge">
<g style="mix-blend-mode:color-dodge">
<path d="M1335.78 -91.6751V-243.82H1337.37V-92.3424L1430.38 0.603943V125.169L1386.37 169.147L1385.26 168.003L1428.79 124.501V1.23947L1335.78 -91.6751Z" fill="#00C2FF"/>
</g>
</g>
</g>
</g>
<g style="mix-blend-mode:color-dodge">
<g style="mix-blend-mode:color-dodge">
<g style="mix-blend-mode:color-dodge">
<g style="mix-blend-mode:color-dodge">
<path d="M1381.8 164.188C1380.96 165.022 1380.38 166.086 1380.15 167.246C1379.92 168.406 1380.03 169.609 1380.48 170.703C1380.93 171.797 1381.7 172.732 1382.69 173.391C1383.67 174.049 1384.83 174.4 1386.01 174.4C1387.19 174.4 1388.35 174.049 1389.34 173.391C1390.32 172.732 1391.09 171.797 1391.54 170.703C1391.99 169.609 1392.1 168.406 1391.87 167.246C1391.64 166.086 1391.06 165.022 1390.22 164.188C1389.67 163.634 1389.01 163.194 1388.29 162.894C1387.57 162.593 1386.79 162.439 1386.01 162.439C1385.23 162.439 1384.45 162.593 1383.73 162.894C1383.01 163.194 1382.35 163.634 1381.8 164.188Z" fill="#00C2FF"/>
</g>
</g>
</g>
</g>
</g>
<g style="mix-blend-mode:color-dodge">
<g style="mix-blend-mode:color-dodge">
<g style="mix-blend-mode:color-dodge">
<g style="mix-blend-mode:color-dodge">
<g style="mix-blend-mode:color-dodge">
<path d="M1297.02 -34.8887V-192.183H1298.61V-35.556L1369.68 35.4327V98.5091H1368.09V36.1L1297.02 -34.8887Z" fill="#00C2FF"/>
</g>
</g>
</g>
</g>
<g style="mix-blend-mode:color-dodge">
<g style="mix-blend-mode:color-dodge">
<g style="mix-blend-mode:color-dodge">
<g style="mix-blend-mode:color-dodge">
<path d="M1362.88 98.2269C1362.88 99.4084 1363.23 100.563 1363.88 101.546C1364.54 102.528 1365.47 103.294 1366.57 103.746C1367.66 104.199 1368.86 104.317 1370.02 104.086C1371.18 103.856 1372.25 103.287 1373.08 102.451C1373.92 101.616 1374.49 100.551 1374.72 99.3923C1374.95 98.2335 1374.83 97.0323 1374.38 95.9407C1373.92 94.8491 1373.16 93.9161 1372.18 93.2597C1371.19 92.6033 1370.04 92.2529 1368.85 92.2529C1367.27 92.2529 1365.75 92.8823 1364.63 94.0026C1363.51 95.123 1362.88 96.6425 1362.88 98.2269Z" fill="#00C2FF"/>
</g>
</g>
</g>
</g>
</g>
<g style="mix-blend-mode:color-dodge">
<g style="mix-blend-mode:color-dodge">
<g style="mix-blend-mode:color-dodge">
<g style="mix-blend-mode:color-dodge">
<path fill-rule="evenodd" clip-rule="evenodd" d="M1100.7 -251.577V50.3L1211.35 160.873C1210.56 161.913 1210.13 163.187 1210.13 164.506C1210.13 166.089 1210.75 167.608 1211.87 168.732C1212.7 169.567 1213.77 170.136 1214.93 170.366C1216.09 170.596 1217.29 170.477 1218.38 170.025C1219.47 169.573 1220.41 168.807 1221.06 167.825C1221.72 166.842 1222.07 165.688 1222.07 164.506C1222.07 163.325 1221.72 162.17 1221.06 161.188C1220.41 160.206 1219.47 159.44 1218.38 158.988C1217.29 158.535 1216.09 158.417 1214.93 158.647C1214.04 158.824 1213.2 159.202 1212.48 159.747L1102.29 49.6327V-251.577H1100.7Z" fill="#00C2FF"/>
</g>
</g>
</g>
</g>
<g style="mix-blend-mode:color-dodge">
<g style="mix-blend-mode:color-dodge">
<g style="mix-blend-mode:color-dodge">
<g style="mix-blend-mode:color-dodge">
<g style="mix-blend-mode:color-dodge">
<path fill-rule="evenodd" clip-rule="evenodd" d="M1047 -332L1024.17 -309.184V123.251C1027.09 123.64 1029.35 126.143 1029.35 129.172C1029.35 132.472 1026.67 135.146 1023.37 135.146C1020.07 135.146 1017.39 132.472 1017.39 129.172C1017.39 126.142 1019.65 123.639 1022.58 123.251V-309.852L1044.74 -332H1047Z" fill="#00C2FF"/>
</g>
</g>
</g>
</g>
</g>
<g style="mix-blend-mode:color-dodge">
<g style="mix-blend-mode:color-dodge">
<g style="mix-blend-mode:color-dodge">
<g style="mix-blend-mode:color-dodge">
<g style="mix-blend-mode:color-dodge">
<path fill-rule="evenodd" clip-rule="evenodd" d="M991.476 -332L965.719 -306.293V146.513C966.619 146.633 967.484 146.958 968.245 147.466C969.228 148.123 969.994 149.056 970.446 150.147C970.899 151.239 971.017 152.44 970.786 153.599C970.556 154.758 969.986 155.822 969.15 156.658C968.314 157.493 967.249 158.062 966.09 158.293C964.93 158.523 963.728 158.405 962.636 157.953C961.543 157.501 960.61 156.735 959.953 155.752C959.296 154.77 958.945 153.615 958.945 152.433C958.945 150.849 959.575 149.33 960.696 148.209C961.628 147.278 962.837 146.685 964.129 146.512V-306.928L989.218 -332H991.476Z" fill="#00C2FF"/>
</g>
</g>
</g>
</g>
</g>
<g style="mix-blend-mode:color-dodge">
<g style="mix-blend-mode:color-dodge">
<g style="mix-blend-mode:color-dodge">
<g style="mix-blend-mode:color-dodge">
<g style="mix-blend-mode:color-dodge">
<path fill-rule="evenodd" clip-rule="evenodd" d="M666.64 156.166C669.58 156.541 671.853 159.051 671.853 162.092C671.853 165.391 669.177 168.066 665.876 168.066C662.574 168.066 659.898 165.391 659.898 162.092C659.898 159.072 662.139 156.576 665.05 156.174V-58.148L745.244 -138.257L746.357 -137.145L666.64 -57.4806V156.166Z" fill="#00C2FF"/>
</g>
</g>
</g>
</g>
</g>
<path d="M1080 98C1080 60.4446 1071.27 30 1060.5 30C1049.73 30 1041 60.4446 1041 98C1041 135.555 1049.73 166 1060.5 166C1071.27 166 1080 135.555 1080 98Z" fill="url(#paint0_radial)" fill-opacity="0.4"/>
<path d="M1386 98C1386 60.4446 1377.27 30 1366.5 30C1355.73 30 1347 60.4446 1347 98C1347 135.555 1355.73 166 1366.5 166C1377.27 166 1386 135.555 1386 98Z" fill="url(#paint1_radial)" fill-opacity="0.4"/>
<g style="mix-blend-mode:color-dodge">
<g style="mix-blend-mode:color-dodge">
<g style="mix-blend-mode:color-dodge">
<g style="mix-blend-mode:color-dodge">
<path fill-rule="evenodd" clip-rule="evenodd" d="M-168 811.967H-70.6189L60.9715 943.653C61.6695 943.118 62.4833 942.749 63.3519 942.576C64.4698 942.354 65.6286 942.469 66.6816 942.905C67.7346 943.342 68.6345 944.081 69.2677 945.029C69.9008 945.978 70.2388 947.093 70.2388 948.233C70.2388 949.374 69.9008 950.488 69.2677 951.437C68.6345 952.385 67.7346 953.124 66.6816 953.561C65.6286 953.997 64.4698 954.112 63.3519 953.89C62.2339 953.668 61.2066 953.119 60.4003 952.313C59.3256 951.227 58.7227 949.761 58.7227 948.233C58.7227 946.961 59.1406 945.732 59.9007 944.729L-71.2628 813.501H-168V811.967Z" fill="#00C2FF"/>
</g>
</g>
</g>
</g>
<g style="mix-blend-mode:color-dodge">
<g style="mix-blend-mode:color-dodge">
<g style="mix-blend-mode:color-dodge">
<g style="mix-blend-mode:color-dodge">
<path fill-rule="evenodd" clip-rule="evenodd" d="M-206 891H-108.619L22.972 1022.69C23.6699 1022.15 24.4835 1021.78 25.3519 1021.61C26.4698 1021.39 27.6286 1021.5 28.6815 1021.94C29.7346 1022.38 30.6345 1023.11 31.2677 1024.06C31.9008 1025.01 32.2388 1026.13 32.2388 1027.27C32.2388 1028.41 31.9008 1029.52 31.2677 1030.47C30.6345 1031.42 29.7346 1032.16 28.6815 1032.59C27.6286 1033.03 26.4698 1033.15 25.3519 1032.92C24.2339 1032.7 23.2066 1032.15 22.4003 1031.35C21.3256 1030.26 20.7227 1028.79 20.7227 1027.27C20.7227 1026 21.1411 1024.76 21.9023 1023.76L-109.263 892.534H-206V891Z" fill="#00C2FF"/>
</g>
</g>
</g>
</g>
<g style="mix-blend-mode:color-dodge">
<g style="mix-blend-mode:color-dodge">
<g style="mix-blend-mode:color-dodge">
<g style="mix-blend-mode:color-dodge">
<g style="mix-blend-mode:color-dodge">
<path d="M144.87 -26L58.1902 60.7232H-115.017L-168 113.733V115.911L-114.373 62.2571H58.8035L145.484 -24.4661H302.195V-26H144.87Z" fill="#00C2FF"/>
</g>
</g>
</g>
</g>
</g>
<g style="mix-blend-mode:color-dodge">
<g style="mix-blend-mode:color-dodge">
<g style="mix-blend-mode:color-dodge">
<g style="mix-blend-mode:color-dodge">
<g style="mix-blend-mode:color-dodge">
<path fill-rule="evenodd" clip-rule="evenodd" d="M95.7482 721.266C94.8002 721.9 93.6857 722.238 92.5456 722.238C91.0168 722.238 89.5506 721.63 88.4696 720.549C87.5709 719.65 86.9995 718.484 86.8324 717.238H-238.6L-282.507 761.167H-348V759.633H-283.12L-239.243 715.704H86.8325C86.949 714.835 87.2623 714.001 87.7527 713.267C88.3862 712.318 89.2864 711.579 90.3397 711.143C91.393 710.706 92.552 710.592 93.6702 710.814C94.7884 711.037 95.8155 711.586 96.6217 712.393C97.4278 713.199 97.9768 714.227 98.1992 715.346C98.4217 716.464 98.3075 717.624 97.8712 718.678C97.4349 719.732 96.6961 720.632 95.7482 721.266Z" fill="#00C2FF"/>
</g>
</g>
</g>
</g>
</g>
<g style="mix-blend-mode:color-dodge">
<g style="mix-blend-mode:color-dodge">
<g style="mix-blend-mode:color-dodge">
<g style="mix-blend-mode:color-dodge">
<g style="mix-blend-mode:color-dodge">
<path fill-rule="evenodd" clip-rule="evenodd" d="M-135.407 248.496L-68.9325 315.003H124.348C124.465 314.135 124.778 313.3 125.268 312.566C125.902 311.618 126.802 310.878 127.855 310.442C128.909 310.005 130.068 309.891 131.186 310.114C132.304 310.336 133.331 310.886 134.137 311.692C134.943 312.499 135.492 313.526 135.715 314.645C135.937 315.764 135.823 316.923 135.387 317.977C134.951 319.031 134.212 319.932 133.264 320.565C132.316 321.199 131.201 321.537 130.061 321.537C128.532 321.537 127.066 320.93 125.985 319.848C125.086 318.949 124.515 317.783 124.348 316.537H-69.5458L-136.02 250.03H-168V248.496H-135.407Z" fill="#00C2FF"/>
</g>
</g>
</g>
</g>
</g>
<g style="mix-blend-mode:color-dodge">
<g style="mix-blend-mode:color-dodge">
<g style="mix-blend-mode:color-dodge">
<g style="mix-blend-mode:color-dodge">
<g style="mix-blend-mode:color-dodge">
<path fill-rule="evenodd" clip-rule="evenodd" d="M126.142 662.786C126.142 665.971 123.561 668.554 120.378 668.554C117.454 668.554 115.039 666.376 114.664 663.554H-128.718L-192.402 727.268H-228V725.734H-193.015L-129.362 662.02H114.664C115.039 659.197 117.454 657.02 120.378 657.02C123.561 657.02 126.142 659.601 126.142 662.786Z" fill="#00C2FF"/>
</g>
</g>
</g>
</g>
</g>
<g style="mix-blend-mode:color-dodge">
<g style="mix-blend-mode:color-dodge">
<g style="mix-blend-mode:color-dodge">
<g style="mix-blend-mode:color-dodge">
<g style="mix-blend-mode:color-dodge">
<path fill-rule="evenodd" clip-rule="evenodd" d="M-152.717 608.917H128.756L207.748 687.919C208.716 687.182 209.924 686.744 211.235 686.744C214.419 686.744 217 689.326 217 692.511C217 695.696 214.419 698.278 211.235 698.278C208.052 698.278 205.471 695.696 205.471 692.511C205.471 691.2 205.908 689.99 206.645 689.021L128.143 610.451H-152.104L-219.958 678.369H-278V676.835H-220.602L-152.717 608.917Z" fill="#00C2FF"/>
</g>
</g>
</g>
</g>
</g>
<g style="mix-blend-mode:color-dodge">
<g style="mix-blend-mode:color-dodge">
<g style="mix-blend-mode:color-dodge">
<g style="mix-blend-mode:color-dodge">
<g style="mix-blend-mode:color-dodge">
<path fill-rule="evenodd" clip-rule="evenodd" d="M181.448 302.64C180.308 302.64 179.193 302.302 178.245 301.668C177.298 301.035 176.559 300.134 176.122 299.08C175.686 298.026 175.572 296.867 175.794 295.748C176.017 294.629 176.566 293.602 177.372 292.795C178.178 291.989 179.205 291.439 180.323 291.217C181.442 290.994 182.601 291.108 183.654 291.545C184.707 291.981 185.607 292.721 186.241 293.669C186.726 294.395 187.037 295.218 187.157 296.076H241.415C241.534 295.218 241.846 294.395 242.331 293.669C242.964 292.721 243.865 291.981 244.918 291.545C245.971 291.108 247.13 290.994 248.248 291.217C249.366 291.439 250.394 291.989 251.2 292.795C252.006 293.602 252.555 294.629 252.777 295.748C253 296.867 252.886 298.026 252.449 299.08C252.013 300.134 251.274 301.035 250.326 301.668C249.378 302.302 248.264 302.64 247.124 302.64C245.595 302.64 244.129 302.033 243.048 300.951C242.142 300.045 241.568 298.867 241.407 297.609H187.165C187.003 298.867 186.43 300.045 185.524 300.951C184.443 302.033 182.977 302.64 181.448 302.64Z" fill="#00C2FF"/>
</g>
</g>
</g>
</g>
</g>
<g style="mix-blend-mode:color-dodge">
<g style="mix-blend-mode:color-dodge">
<g style="mix-blend-mode:color-dodge">
<g style="mix-blend-mode:color-dodge">
<g style="mix-blend-mode:color-dodge">
<path fill-rule="evenodd" clip-rule="evenodd" d="M-168 328.255L-141.631 354.637H67.0476C67.1673 353.78 67.479 352.957 67.9637 352.231C68.5971 351.282 69.4973 350.543 70.5506 350.107C71.604 349.67 72.763 349.556 73.8811 349.779C74.9993 350.001 76.0264 350.55 76.8326 351.357C77.6388 352.163 78.1878 353.191 78.4102 354.31C78.6326 355.429 78.5185 356.588 78.0822 357.642C77.6459 358.696 76.907 359.597 75.9591 360.23C75.0112 360.864 73.8967 361.202 72.7566 361.202C71.2278 361.202 69.7616 360.595 68.6805 359.513C67.7744 358.607 67.2012 357.429 67.0393 356.171H-142.275L-168 330.433V328.255Z" fill="#00C2FF"/>
</g>
</g>
</g>
</g>
</g>
<g style="mix-blend-mode:color-dodge">
<g style="mix-blend-mode:color-dodge">
<g style="mix-blend-mode:color-dodge">
<g style="mix-blend-mode:color-dodge">
<g style="mix-blend-mode:color-dodge">
<path fill-rule="evenodd" clip-rule="evenodd" d="M295.236 13.9723C295.236 17.1574 292.655 19.7395 289.471 19.7395C286.548 19.7395 284.132 17.5618 283.758 14.7391H144.84L33.9982 125.666H-93.0632L-165.302 197.94H-168V196.407H-165.915L-93.6764 124.132H33.3544L144.196 13.2053H283.758C284.132 10.3828 286.548 8.20508 289.471 8.20508C292.655 8.20508 295.236 10.7872 295.236 13.9723Z" fill="#00C2FF"/>
</g>
</g>
</g>
</g>
</g>
<g style="mix-blend-mode:color-dodge">
<g style="mix-blend-mode:color-dodge">
<g style="mix-blend-mode:color-dodge">
<g style="mix-blend-mode:color-dodge">
<g style="mix-blend-mode:color-dodge">
<path fill-rule="evenodd" clip-rule="evenodd" d="M301.809 184.925C301.587 186.044 301.039 187.072 300.233 187.878C299.148 188.954 297.682 189.557 296.155 189.557C294.883 189.557 293.653 189.138 292.651 188.377L210.854 270.215H-46.3657L-96.16 220.365H-168V218.831H-95.5468L-45.7218 268.681H210.21L291.563 187.288C291.036 186.594 290.672 185.787 290.501 184.925C290.279 183.807 290.394 182.648 290.83 181.594C291.266 180.541 292.005 179.64 292.953 179.007C293.901 178.373 295.015 178.035 296.155 178.035C297.295 178.035 298.409 178.373 299.357 179.007C300.305 179.64 301.044 180.541 301.48 181.594C301.916 182.648 302.031 183.807 301.809 184.925Z" fill="#00C2FF"/>
</g>
</g>
</g>
</g>
</g>
<g style="mix-blend-mode:color-dodge">
<g style="mix-blend-mode:color-dodge">
<g style="mix-blend-mode:color-dodge">
<g style="mix-blend-mode:color-dodge">
<g style="mix-blend-mode:color-dodge">
<path fill-rule="evenodd" clip-rule="evenodd" d="M-76.8935 178.951C-77.01 178.083 -77.3234 177.249 -77.8138 176.514C-78.4472 175.566 -79.3475 174.827 -80.4008 174.39C-81.4541 173.954 -82.6131 173.839 -83.7313 174.062C-84.8495 174.285 -85.8766 174.834 -86.6827 175.64C-87.4889 176.447 -88.0379 177.475 -88.2603 178.593C-88.4828 179.712 -88.3686 180.872 -87.9323 181.925C-87.496 182.979 -86.7572 183.88 -85.8092 184.514C-84.8613 185.147 -83.7468 185.486 -82.6067 185.486C-81.0779 185.486 -79.6117 184.878 -78.5307 183.796C-77.632 182.897 -77.0606 181.732 -76.8935 180.485H63.8934L153.548 90.7556H272.484L310.263 128.554C309.965 128.945 309.718 129.374 309.529 129.831C309.239 130.528 309.09 131.276 309.09 132.031C309.09 132.787 309.239 133.535 309.529 134.232C309.818 134.93 310.243 135.563 310.778 136.096C311.582 136.906 312.609 137.459 313.728 137.685C314.848 137.911 316.009 137.799 317.064 137.363C318.12 136.928 319.022 136.189 319.657 135.239C320.292 134.29 320.631 133.174 320.631 132.031C320.631 130.889 320.292 129.773 319.657 128.823C319.022 127.874 318.12 127.135 317.064 126.7C316.009 126.264 314.848 126.152 313.728 126.378C312.86 126.553 312.046 126.925 311.349 127.462L273.128 89.2217H152.935L63.2495 178.951H-76.8935Z" fill="#00C2FF"/>
</g>
</g>
</g>
</g>
</g>
<g style="mix-blend-mode:color-dodge">
<g style="mix-blend-mode:color-dodge">
<g style="mix-blend-mode:color-dodge">
<g style="mix-blend-mode:color-dodge">
<g style="mix-blend-mode:color-dodge">
<path fill-rule="evenodd" clip-rule="evenodd" d="M250.334 153.377C249.386 154.011 248.272 154.349 247.132 154.349C245.603 154.349 244.137 153.741 243.056 152.66C242.149 151.753 241.576 150.576 241.414 149.318H187.183L118.685 217.881H-27.096C-27.471 220.703 -29.8862 222.881 -32.8098 222.881C-35.9934 222.881 -38.5742 220.299 -38.5742 217.113C-38.5742 213.928 -35.9934 211.346 -32.8098 211.346C-29.8861 211.346 -27.4707 213.524 -27.0959 216.347H118.041L186.539 147.784H241.423C241.542 146.927 241.854 146.103 242.339 145.378C242.972 144.429 243.872 143.69 244.926 143.253C245.979 142.817 247.138 142.703 248.256 142.925C249.374 143.148 250.401 143.697 251.208 144.504C252.014 145.31 252.563 146.338 252.785 147.457C253.008 148.575 252.893 149.735 252.457 150.789C252.021 151.843 251.282 152.743 250.334 153.377Z" fill="#00C2FF"/>
</g>
</g>
</g>
</g>
</g>
<g style="mix-blend-mode:color-dodge">
<g style="mix-blend-mode:color-dodge">
<g style="mix-blend-mode:color-dodge">
<g style="mix-blend-mode:color-dodge">
<g style="mix-blend-mode:color-dodge">
<path fill-rule="evenodd" clip-rule="evenodd" d="M114.842 376.843C115.648 376.037 116.196 375.009 116.418 373.89C116.64 372.772 116.526 371.612 116.089 370.559C115.653 369.505 114.914 368.605 113.966 367.972C113.018 367.338 111.904 367 110.764 367C109.625 367 108.51 367.338 107.562 367.972C106.615 368.605 105.876 369.505 105.439 370.559C105.003 371.612 104.888 372.772 105.11 373.89C105.187 374.279 105.304 374.656 105.457 375.018L40.2617 419.015H-250V420H40.9046L106.032 376.061C106.226 376.339 106.445 376.601 106.686 376.843C107.772 377.919 109.237 378.522 110.764 378.522C112.292 378.522 113.757 377.919 114.842 376.843ZM-253.294 451.307C-252.346 451.941 -251.231 452.279 -250.091 452.279C-248.562 452.279 -247.096 451.672 -246.015 450.59C-244.934 449.508 -244.327 448.041 -244.327 446.512C-244.327 445.371 -244.665 444.256 -245.298 443.308C-245.932 442.359 -246.832 441.62 -247.885 441.184C-248.938 440.747 -250.097 440.633 -251.216 440.855C-252.334 441.078 -253.361 441.627 -254.167 442.434C-254.973 443.24 -255.522 444.268 -255.745 445.387C-255.967 446.505 -255.853 447.665 -255.417 448.719C-254.98 449.773 -254.242 450.673 -253.294 451.307Z" fill="#00C2FF"/>
</g>
</g>
</g>
</g>
</g>
<g style="mix-blend-mode:color-dodge">
<g style="mix-blend-mode:color-dodge">
<g style="mix-blend-mode:color-dodge">
<g style="mix-blend-mode:color-dodge">
<g style="mix-blend-mode:color-dodge">
<path fill-rule="evenodd" clip-rule="evenodd" d="M-168 429L-154.305 451.438H105.244C105.472 448.461 107.958 446.118 110.991 446.118C114.175 446.118 116.755 448.7 116.755 451.885C116.755 455.07 114.175 457.652 110.991 457.652C108.189 457.652 105.853 455.652 105.334 453H-154.706L-168 431.219V429Z" fill="#00C2FF"/>
</g>
</g>
</g>
</g>
</g>
<g style="mix-blend-mode:color-dodge">
<g style="mix-blend-mode:color-dodge">
<g style="mix-blend-mode:color-dodge">
<g style="mix-blend-mode:color-dodge">
<g style="mix-blend-mode:color-dodge">
<path fill-rule="evenodd" clip-rule="evenodd" d="M-208 463L-193.362 488.43H65.6974C65.7871 487.481 66.1108 486.566 66.6433 485.769C67.2767 484.82 68.177 484.081 69.2303 483.645C70.2836 483.208 71.4426 483.094 72.5608 483.316C73.679 483.539 74.7061 484.088 75.5123 484.895C76.3184 485.701 76.8674 486.729 77.0898 487.848C77.3123 488.966 77.1981 490.126 76.7618 491.18C76.3255 492.234 75.5867 493.134 74.6387 493.768C73.6908 494.402 72.5763 494.74 71.4362 494.74C69.9074 494.74 68.4413 494.132 67.3602 493.051C66.5244 492.215 65.9717 491.148 65.764 490H-193.724L-208 465.229V463Z" fill="#00C2FF"/>
</g>
</g>
</g>
</g>
</g>
<g style="mix-blend-mode:color-dodge">
<g style="mix-blend-mode:color-dodge">
<g style="mix-blend-mode:color-dodge">
<g style="mix-blend-mode:color-dodge">
<path fill-rule="evenodd" clip-rule="evenodd" d="M-168 779.572H-33.2732L82.1757 895.048C82.87 894.52 83.6777 894.155 84.5394 893.984C85.6573 893.762 86.8161 893.876 87.869 894.313C88.9221 894.75 89.822 895.489 90.4551 896.437C91.0883 897.386 91.4263 898.5 91.4263 899.641C91.4263 900.781 91.0883 901.896 90.4551 902.844C89.822 903.793 88.9221 904.532 87.869 904.968C86.8161 905.405 85.6573 905.52 84.5394 905.298C83.4214 905.076 82.3941 904.527 81.5878 903.721C80.513 902.635 79.9102 901.169 79.9102 899.641C79.9102 898.376 80.3231 897.154 81.0746 896.155L-33.9171 781.106H-168V779.572Z" fill="#00C2FF"/>
</g>
</g>
</g>
</g>
<g style="mix-blend-mode:color-dodge">
<g style="mix-blend-mode:color-dodge">
<g style="mix-blend-mode:color-dodge">
<g style="mix-blend-mode:color-dodge">
<g style="mix-blend-mode:color-dodge">
<path fill-rule="evenodd" clip-rule="evenodd" d="M15.6317 782.886C14.8261 782.079 14.2776 781.052 14.0557 779.933C13.8337 778.815 13.9482 777.655 14.3846 776.602C14.8211 775.548 15.5599 774.648 16.5078 774.015C17.4556 773.381 18.5698 773.043 19.7097 773.043C20.8495 773.043 21.9638 773.381 22.9116 774.015C23.8594 774.648 24.5983 775.548 25.0347 776.602C25.4712 777.655 25.5857 778.815 25.3637 779.933C25.19 780.808 24.8164 781.628 24.2762 782.33L96.887 854.977H303.039C303.4 852.139 305.822 849.946 308.757 849.946C311.94 849.946 314.521 852.528 314.521 855.713C314.521 858.898 311.94 861.48 308.757 861.48C305.843 861.48 303.435 859.318 303.047 856.51H96.2431L23.1961 783.398C22.197 784.151 20.9745 784.565 19.7097 784.565C18.1824 784.565 16.7168 783.962 15.6317 782.886Z" fill="#00C2FF"/>
</g>
</g>
</g>
</g>
</g>
<path d="M25.5 385C130.158 385 215 374.255 215 361C215 347.745 130.158 337 25.5 337C-79.158 337 -164 347.745 -164 361C-164 374.255 -79.158 385 25.5 385Z" fill="url(#paint2_radial)" fill-opacity="0.4"/>
<path d="M204.5 720C309.158 720 394 709.255 394 696C394 682.745 309.158 672 204.5 672C99.842 672 15 682.745 15 696C15 709.255 99.842 720 204.5 720Z" fill="url(#paint3_radial)" fill-opacity="0.4"/>
<g style="mix-blend-mode:color-dodge">
<path fill-rule="evenodd" clip-rule="evenodd" d="M1927 -168.147L1904.17 -145.332V287.104C1907.09 287.495 1909.35 289.997 1909.35 293.025C1909.35 296.325 1906.67 298.999 1903.37 298.999C1900.07 298.999 1897.39 296.325 1897.39 293.025C1897.39 289.993 1899.65 287.489 1902.58 287.103V-145.999L1924.74 -168.147H1927Z" fill="#00C2FF"/>
</g>
<g style="mix-blend-mode:color-dodge">
<path fill-rule="evenodd" clip-rule="evenodd" d="M1635.59 -194.761L1681.12 -149.289V188.645C1682.02 188.765 1682.89 189.09 1683.65 189.599C1684.63 190.256 1685.4 191.189 1685.85 192.28C1686.31 193.372 1686.42 194.573 1686.19 195.732C1685.96 196.891 1685.39 197.955 1684.56 198.791C1683.72 199.626 1682.66 200.195 1681.5 200.426C1680.34 200.656 1679.14 200.538 1678.04 200.086C1676.95 199.634 1676.02 198.868 1675.36 197.886C1674.7 196.903 1674.35 195.748 1674.35 194.567C1674.35 192.982 1674.98 191.463 1676.1 190.342C1677.03 189.41 1678.25 188.818 1679.54 188.645V-148.621L1634 -194.125V-262H1635.59V-194.761Z" fill="#00C2FF"/>
</g>
<g style="mix-blend-mode:color-dodge">
<path fill-rule="evenodd" clip-rule="evenodd" d="M1791.81 -262.161V29.5472L1709.92 111.411C1710.69 112.414 1711.14 113.667 1711.14 115.025C1711.14 118.325 1708.46 120.999 1705.16 120.999C1701.86 120.999 1699.18 118.325 1699.18 115.025C1699.18 111.726 1701.86 109.051 1705.16 109.051C1706.52 109.051 1707.78 109.505 1708.78 110.27L1790.22 28.9117V-261.526L1719.82 -331.847V-392H1721.41V-332.514L1791.81 -262.161Z" fill="#00C2FF"/>
</g>
<g style="mix-blend-mode:color-dodge">
<path fill-rule="evenodd" clip-rule="evenodd" d="M1775.12 108.96C1775.12 107.779 1775.47 106.624 1776.13 105.641C1776.79 104.659 1777.72 103.893 1778.81 103.441C1779.9 102.989 1781.11 102.871 1782.27 103.101C1783.43 103.331 1784.49 103.9 1785.33 104.736C1786.16 105.571 1786.73 106.636 1786.96 107.795C1787.19 108.953 1787.08 110.155 1786.62 111.246C1786.17 112.338 1785.4 113.271 1784.42 113.927C1783.67 114.429 1782.82 114.752 1781.93 114.876V171.109C1782.82 171.233 1783.67 171.557 1784.42 172.058C1785.4 172.714 1786.17 173.647 1786.62 174.739C1787.08 175.831 1787.19 177.032 1786.96 178.191C1786.73 179.35 1786.16 180.414 1785.33 181.25C1784.49 182.085 1783.43 182.654 1782.27 182.884C1781.11 183.115 1779.9 182.997 1778.81 182.545C1777.72 182.092 1776.79 181.327 1776.13 180.344C1775.47 179.362 1775.12 178.207 1775.12 177.025C1775.12 175.441 1775.75 173.921 1776.87 172.801C1777.81 171.861 1779.03 171.266 1780.34 171.099V114.886C1779.03 114.719 1777.81 114.125 1776.87 113.184C1775.75 112.064 1775.12 110.544 1775.12 108.96Z" fill="#00C2FF"/>
</g>
<g style="mix-blend-mode:color-dodge">
<path fill-rule="evenodd" clip-rule="evenodd" d="M1897 -134L1874.56 -109.132V363.294C1877.35 363.798 1879.47 366.238 1879.47 369.172C1879.47 372.472 1876.79 375.146 1873.49 375.146C1870.19 375.146 1867.51 372.472 1867.51 369.172C1867.51 366.038 1869.93 363.467 1873 363.218V-109.86L1894.78 -134H1897Z" fill="#00C2FF"/>
</g>
<g style="mix-blend-mode:color-dodge">
<path fill-rule="evenodd" clip-rule="evenodd" d="M1858.65 -204L1832.89 -170.346V422.414C1833.79 422.538 1834.65 422.863 1835.41 423.369C1836.39 424.028 1837.16 424.965 1837.62 426.062C1838.07 427.158 1838.19 428.365 1837.96 429.528C1837.73 430.692 1837.16 431.761 1836.32 432.601C1835.48 433.44 1834.41 434.011 1833.24 434.243C1832.08 434.474 1830.87 434.355 1829.78 433.901C1828.68 433.447 1827.74 432.678 1827.09 431.691C1826.43 430.705 1826.07 429.545 1826.07 428.358C1826.07 426.767 1826.71 425.241 1827.83 424.115C1828.78 423.174 1829.99 422.577 1831.3 422.408V-171.178L1856.39 -204H1858.65Z" fill="#00C2FF"/>
</g>
<g style="mix-blend-mode:color-dodge">
<g style="mix-blend-mode:color-dodge">
<path fill-rule="evenodd" clip-rule="evenodd" d="M1404.05 775.99C1404.05 774.808 1404.4 773.653 1405.06 772.671C1405.71 771.688 1406.65 770.923 1407.74 770.47C1408.83 770.018 1410.03 769.9 1411.19 770.13C1412.35 770.361 1413.42 770.93 1414.25 771.765C1415.09 772.601 1415.66 773.665 1415.89 774.824C1416.12 775.983 1416 777.184 1415.55 778.276C1415.1 779.367 1414.33 780.3 1413.35 780.957C1412.58 781.466 1411.72 781.791 1410.82 781.911V938.749L1320.93 1028.58V1208.09L1265.98 1263H1263.72L1319.34 1207.42V1027.95L1409.23 938.119V781.911C1407.94 781.737 1406.73 781.145 1405.8 780.214C1404.68 779.094 1404.05 777.574 1404.05 775.99ZM1465.33 795.655C1464.68 796.637 1464.33 797.792 1464.33 798.974C1464.33 800.558 1464.96 802.078 1466.08 803.198C1467.01 804.131 1468.22 804.723 1469.51 804.895V961.099L1379.61 1050.93V1230.41L1324 1285.98H1326.26L1381.2 1231.07V1051.57L1471.1 961.739V804.895C1472 804.774 1472.86 804.449 1473.62 803.941C1474.61 803.285 1475.37 802.352 1475.83 801.26C1476.28 800.169 1476.4 798.967 1476.17 797.809C1475.94 796.65 1475.37 795.585 1474.53 794.75C1473.69 793.914 1472.63 793.345 1471.47 793.115C1470.31 792.884 1469.11 793.003 1468.02 793.455C1466.92 793.907 1465.99 794.673 1465.33 795.655Z" fill="#00C2FF"/>
</g>
<g style="mix-blend-mode:color-dodge">
<g style="mix-blend-mode:color-dodge">
<g style="mix-blend-mode:color-dodge">
<g style="mix-blend-mode:color-dodge">
<path fill-rule="evenodd" clip-rule="evenodd" d="M636.246 803.114C635.589 804.096 635.238 805.251 635.238 806.433C635.238 808.017 635.868 809.537 636.989 810.657C637.921 811.588 639.13 812.181 640.422 812.354V1149.62L594.887 1195.12V1263H596.477V1195.76L642.012 1150.29V812.354C642.912 812.233 643.776 811.908 644.537 811.4C645.521 810.743 646.287 809.81 646.739 808.719C647.192 807.627 647.31 806.426 647.079 805.267C646.849 804.108 646.279 803.044 645.443 802.209C644.607 801.373 643.542 800.804 642.383 800.574C641.223 800.343 640.021 800.461 638.929 800.914C637.836 801.366 636.903 802.131 636.246 803.114Z" fill="#00C2FF"/>
</g>
</g>
</g>
</g>
<g style="mix-blend-mode:color-dodge">
<path fill-rule="evenodd" clip-rule="evenodd" d="M1051.59 950.779C1050.93 951.759 1050.58 952.919 1050.58 954.099C1050.58 955.679 1051.21 957.199 1052.33 958.319C1053.27 959.251 1054.48 959.843 1055.77 960.016V1160.96L1124.7 1229.86V1263H1126.29V1229.22L1057.36 1160.33V960.015C1058.26 959.894 1059.12 959.571 1059.88 959.069C1060.87 958.409 1061.63 957.479 1062.08 956.389C1062.54 955.289 1062.65 954.089 1062.42 952.929C1062.19 951.779 1061.62 950.709 1060.79 949.879C1059.95 949.039 1058.89 948.469 1057.73 948.239C1056.57 948.009 1055.37 948.129 1054.27 948.579C1053.18 949.029 1052.25 949.799 1051.59 950.779Z" fill="#00C2FF"/>
</g>
<g style="mix-blend-mode:color-dodge">
<g style="mix-blend-mode:color-dodge">
<g style="mix-blend-mode:color-dodge">
<g style="mix-blend-mode:color-dodge">
<g style="mix-blend-mode:color-dodge">
<path d="M697.654 1160.77L631.61 1226.74V1263H630.02V1226.11L696.064 1160.11V901.67H697.654V1160.77Z" fill="#00C2FF"/>
</g>
</g>
</g>
</g>
<g style="mix-blend-mode:color-dodge">
<g style="mix-blend-mode:color-dodge">
<g style="mix-blend-mode:color-dodge">
<g style="mix-blend-mode:color-dodge">
<path d="M690.883 901.954C690.883 898.655 693.559 895.98 696.861 895.98C700.162 895.98 702.839 898.655 702.839 901.954C702.839 905.253 700.162 907.928 696.861 907.928C693.559 907.928 690.883 905.253 690.883 901.954Z" fill="#00C2FF"/>
</g>
</g>
</g>
</g>
</g>
<g style="mix-blend-mode:color-dodge">
<path fill-rule="evenodd" clip-rule="evenodd" d="M1048.14 916.149C1046.98 916.379 1045.92 916.949 1045.08 917.779C1043.97 918.899 1043.34 920.419 1043.34 922.009C1043.34 923.325 1043.78 924.599 1044.56 925.636L981.07 989.12V1263H982.66V989.78L1045.71 926.782C1046.43 927.321 1047.26 927.694 1048.14 927.869C1049.3 928.099 1050.5 927.979 1051.6 927.519C1052.69 927.069 1053.62 926.309 1054.28 925.319C1054.93 924.339 1055.29 923.189 1055.29 922.009C1055.29 920.819 1054.93 919.669 1054.28 918.689C1053.62 917.709 1052.69 916.939 1051.6 916.489C1050.5 916.039 1049.3 915.919 1048.14 916.149Z" fill="#00C2FF"/>
</g>
<g style="mix-blend-mode:color-dodge">
<g style="mix-blend-mode:color-dodge">
<g style="mix-blend-mode:color-dodge">
<g style="mix-blend-mode:color-dodge">
<g style="mix-blend-mode:color-dodge">
<path fill-rule="evenodd" clip-rule="evenodd" d="M752.698 1133.16V841.452L670.809 759.588C671.573 758.584 672.026 757.332 672.026 755.974C672.026 752.675 669.35 750 666.048 750C662.747 750 660.07 752.675 660.07 755.974C660.07 759.273 662.747 761.948 666.048 761.948C667.408 761.948 668.662 761.494 669.666 760.73L751.108 842.088V1132.52L680.708 1202.85V1263H682.298V1203.51L752.698 1133.16Z" fill="#00C2FF"/>
</g>
</g>
</g>
</g>
</g>
<g style="mix-blend-mode:color-dodge">
<g style="mix-blend-mode:color-dodge">
<g style="mix-blend-mode:color-dodge">
<g style="mix-blend-mode:color-dodge">
<g style="mix-blend-mode:color-dodge">
<path d="M902.246 1189.26L926.031 1213H923.774L900.656 1189.9V777.342H902.246V1189.26Z" fill="#00C2FF"/>
</g>
</g>
</g>
</g>
<g style="mix-blend-mode:color-dodge">
<g style="mix-blend-mode:color-dodge">
<g style="mix-blend-mode:color-dodge">
<g style="mix-blend-mode:color-dodge">
<path d="M895.473 777.595C895.473 776.414 895.823 775.259 896.48 774.276C897.137 773.294 898.071 772.528 899.163 772.076C900.255 771.624 901.457 771.505 902.617 771.736C903.777 771.966 904.842 772.535 905.678 773.371C906.514 774.206 907.083 775.271 907.314 776.43C907.544 777.588 907.426 778.79 906.974 779.881C906.521 780.973 905.755 781.906 904.772 782.562C903.789 783.219 902.633 783.569 901.451 783.569C899.865 783.569 898.345 782.94 897.224 781.819C896.102 780.699 895.473 779.18 895.473 777.595Z" fill="#00C2FF"/>
</g>
</g>
</g>
</g>
</g>
<g style="mix-blend-mode:color-dodge">
<path fill-rule="evenodd" clip-rule="evenodd" d="M1071.18 829.458C1070.52 830.44 1070.17 831.595 1070.17 832.776C1070.17 834.361 1070.8 835.88 1071.92 837.001C1072.86 837.939 1074.08 838.532 1075.38 838.701V894.919C1074.08 895.087 1072.86 895.681 1071.92 896.618C1070.8 897.739 1070.17 899.258 1070.17 900.843C1070.17 902.024 1070.52 903.179 1071.18 904.162C1071.83 905.144 1072.77 905.91 1073.86 906.362C1074.95 906.814 1076.15 906.932 1077.31 906.702C1078.47 906.471 1079.54 905.902 1080.37 905.067C1081.21 904.231 1081.78 903.167 1082.01 902.008C1082.24 900.849 1082.12 899.648 1081.67 898.557C1081.22 897.465 1080.45 896.532 1079.47 895.875C1078.72 895.372 1077.86 895.049 1076.97 894.926V838.694C1077.86 838.57 1078.72 838.247 1079.47 837.744C1080.45 837.087 1081.22 836.154 1081.67 835.063C1082.12 833.971 1082.24 832.77 1082.01 831.611C1081.78 830.452 1081.21 829.388 1080.37 828.552C1079.54 827.717 1078.47 827.148 1077.31 826.917C1076.15 826.687 1074.95 826.805 1073.86 827.257C1072.77 827.709 1071.83 828.475 1071.18 829.458Z" fill="#00C2FF"/>
</g>
<g style="mix-blend-mode:color-dodge">
<g style="mix-blend-mode:color-dodge">
<g style="mix-blend-mode:color-dodge">
<g style="mix-blend-mode:color-dodge">
<g style="mix-blend-mode:color-dodge">
<path fill-rule="evenodd" clip-rule="evenodd" d="M736.004 772.039C736.004 773.221 736.355 774.376 737.011 775.358C737.668 776.341 738.602 777.106 739.694 777.558C740.787 778.011 741.989 778.129 743.148 777.898C744.308 777.668 745.373 777.099 746.209 776.263C747.045 775.428 747.614 774.363 747.845 773.205C748.076 772.046 747.957 770.845 747.505 769.753C747.052 768.661 746.286 767.728 745.303 767.072C744.551 766.57 743.697 766.246 742.808 766.122V709.891C743.697 709.767 744.551 709.444 745.303 708.941C746.286 708.285 747.052 707.352 747.505 706.26C747.957 705.169 748.076 703.967 747.845 702.809C747.614 701.65 747.045 700.585 746.209 699.75C745.373 698.914 744.308 698.345 743.148 698.115C741.989 697.884 740.787 698.003 739.694 698.455C738.602 698.907 737.668 699.673 737.011 700.655C736.355 701.637 736.004 702.792 736.004 703.974C736.004 705.558 736.634 707.078 737.755 708.198C738.694 709.137 739.914 709.731 741.218 709.899V766.114C739.914 766.282 738.694 766.876 737.755 767.815C736.634 768.935 736.004 770.455 736.004 772.039Z" fill="#00C2FF"/>
</g>
</g>
</g>
</g>
</g>
<g style="mix-blend-mode:color-dodge">
<path fill-rule="evenodd" clip-rule="evenodd" d="M1369.39 782.92C1366.09 782.92 1363.41 785.595 1363.41 788.894C1363.41 791.922 1365.67 794.424 1368.59 794.815V938.779L1253.61 1053.66V1185.34L1178.7 1260.2V1263H1180.29V1260.84L1255.2 1185.97V1054.32L1370.18 939.449V794.816C1373.11 794.43 1375.37 791.925 1375.37 788.894C1375.37 785.595 1372.69 782.92 1369.39 782.92Z" fill="#00C2FF"/>
</g>
<g style="mix-blend-mode:color-dodge">
<path fill-rule="evenodd" clip-rule="evenodd" d="M1192.19 776.107C1191.03 776.337 1189.96 776.905 1189.13 777.74C1188.01 778.865 1187.39 780.384 1187.39 781.966C1187.39 783.282 1187.82 784.555 1188.61 785.593L1103.78 870.368V1136.94L1155.45 1188.55V1263H1157.04V1187.91L1105.37 1136.27V871.035L1189.74 786.725C1190.46 787.271 1191.3 787.649 1192.19 787.826C1193.35 788.056 1194.55 787.937 1195.64 787.485C1196.73 787.033 1197.66 786.267 1198.32 785.285C1198.98 784.303 1199.33 783.148 1199.33 781.966C1199.33 780.785 1198.98 779.63 1198.32 778.648C1197.66 777.666 1196.73 776.9 1195.64 776.448C1194.55 775.995 1193.35 775.877 1192.19 776.107Z" fill="#00C2FF"/>
</g>
<g style="mix-blend-mode:color-dodge">
<path fill-rule="evenodd" clip-rule="evenodd" d="M1241.15 763.752C1241.39 764.912 1241.96 765.976 1242.8 766.81C1243.35 767.364 1244.01 767.804 1244.73 768.104C1245.46 768.405 1246.23 768.559 1247.01 768.559C1247.8 768.559 1248.57 768.405 1249.3 768.104C1249.77 767.907 1250.21 767.651 1250.62 767.341L1289.8 806.498V929.76L1196.79 1022.67V1174.82H1198.38V1023.34L1291.39 930.39V805.83L1251.75 766.219C1252.31 765.496 1252.69 764.653 1252.87 763.752C1253.11 762.592 1252.99 761.389 1252.54 760.295C1252.09 759.201 1251.32 758.266 1250.34 757.608C1249.36 756.949 1248.2 756.598 1247.01 756.598C1245.83 756.598 1244.67 756.949 1243.69 757.608C1242.7 758.266 1241.94 759.201 1241.49 760.295C1241.04 761.389 1240.92 762.592 1241.15 763.752Z" fill="#00C2FF"/>
</g>
<g style="mix-blend-mode:color-dodge">
<path fill-rule="evenodd" clip-rule="evenodd" d="M1224.89 829.453C1224.23 830.436 1223.88 831.591 1223.88 832.772C1223.88 834.357 1224.51 835.876 1225.63 836.997C1226.57 837.935 1227.79 838.528 1229.09 838.697V894.899L1158.03 965.889V1123.18H1159.62V966.559L1230.68 895.566V838.69C1231.57 838.566 1232.43 838.243 1233.18 837.74C1234.16 837.083 1234.93 836.15 1235.38 835.058C1235.83 833.967 1235.95 832.766 1235.72 831.607C1235.49 830.448 1234.92 829.384 1234.09 828.548C1233.25 827.713 1232.18 827.144 1231.02 826.913C1229.86 826.683 1228.66 826.801 1227.57 827.253C1226.48 827.705 1225.54 828.471 1224.89 829.453Z" fill="#00C2FF"/>
</g>
<g style="mix-blend-mode:color-dodge">
<g style="mix-blend-mode:color-dodge">
<g style="mix-blend-mode:color-dodge">
<g style="mix-blend-mode:color-dodge">
<g style="mix-blend-mode:color-dodge">
<path d="M961.703 880.699V1182.58H963.293V881.366L1077.89 766.844L1076.75 765.732L961.703 880.699Z" fill="#00C2FF"/>
</g>
</g>
</g>
</g>
<g style="mix-blend-mode:color-dodge">
<g style="mix-blend-mode:color-dodge">
<g style="mix-blend-mode:color-dodge">
<g style="mix-blend-mode:color-dodge">
<path d="M1072.87 762.267C1073.71 761.432 1074.77 760.864 1075.93 760.634C1077.09 760.404 1078.29 760.522 1079.39 760.975C1080.48 761.427 1081.41 762.193 1082.07 763.175C1082.72 764.157 1083.07 765.312 1083.07 766.493C1083.07 767.675 1082.72 768.829 1082.07 769.812C1081.41 770.794 1080.48 771.56 1079.39 772.012C1078.29 772.464 1077.09 772.583 1075.93 772.353C1074.77 772.123 1073.71 771.554 1072.87 770.72C1071.76 769.595 1071.13 768.076 1071.13 766.493C1071.13 764.91 1071.76 763.392 1072.87 762.267Z" fill="#00C2FF"/>
</g>
</g>
</g>
</g>
</g>
<g style="mix-blend-mode:color-dodge">
<g style="mix-blend-mode:color-dodge">
<g style="mix-blend-mode:color-dodge">
<g style="mix-blend-mode:color-dodge">
<g style="mix-blend-mode:color-dodge">
<path fill-rule="evenodd" clip-rule="evenodd" d="M867.999 1093L845.168 1070.18V637.747C848.094 637.359 850.351 634.858 850.351 631.828C850.351 628.528 847.674 625.854 844.373 625.854C841.071 625.854 838.395 628.528 838.395 631.828C838.395 634.858 840.652 637.361 843.578 637.75V1070.85L865.741 1093H867.999Z" fill="#00C2FF"/>
</g>
</g>
</g>
</g>
</g>
<g style="mix-blend-mode:color-dodge">
<g style="mix-blend-mode:color-dodge">
<g style="mix-blend-mode:color-dodge">
<g style="mix-blend-mode:color-dodge">
<g style="mix-blend-mode:color-dodge">
<path d="M793.777 1137.7L819.533 1163.41H817.275L792.188 1138.34V678.689H793.777V1137.7Z" fill="#00C2FF"/>
</g>
</g>
</g>
</g>
<g style="mix-blend-mode:color-dodge">
<g style="mix-blend-mode:color-dodge">
<g style="mix-blend-mode:color-dodge">
<g style="mix-blend-mode:color-dodge">
<path d="M787.004 678.974C787.004 677.792 787.355 676.637 788.011 675.655C788.668 674.672 789.602 673.907 790.694 673.455C791.787 673.002 792.989 672.884 794.148 673.115C795.308 673.345 796.373 673.914 797.209 674.75C798.045 675.585 798.614 676.649 798.845 677.808C799.076 678.967 798.957 680.168 798.505 681.26C798.052 682.352 797.286 683.285 796.303 683.941C795.32 684.597 794.164 684.948 792.982 684.948C791.396 684.948 789.876 684.318 788.755 683.198C787.634 682.078 787.004 680.558 787.004 678.974Z" fill="#00C2FF"/>
</g>
</g>
</g>
</g>
</g>
<g style="mix-blend-mode:color-dodge">
<g style="mix-blend-mode:color-dodge">
<g style="mix-blend-mode:color-dodge">
<g style="mix-blend-mode:color-dodge">
<g style="mix-blend-mode:color-dodge">
<path fill-rule="evenodd" clip-rule="evenodd" d="M497.649 774.833C500.589 774.458 502.862 771.948 502.862 768.908C502.862 765.608 500.186 762.934 496.884 762.934C493.583 762.934 490.906 765.608 490.906 768.908C490.906 771.927 493.148 774.423 496.059 774.825V989.15L576.253 1069.26L577.366 1068.14L497.649 988.48V774.833Z" fill="#00C2FF"/>
</g>
</g>
</g>
</g>
</g>
<path style="mix-blend-mode:color-dodge" d="M817 691.5C817 586.842 806.255 502 793 502C779.745 502 769 586.842 769 691.5C769 796.158 779.745 881 793 881C806.255 881 817 796.158 817 691.5Z" fill="url(#paint4_radial)" fill-opacity="0.4"/>
<path style="mix-blend-mode:color-dodge" d="M1687 795.5C1687 690.842 1676.25 606 1663 606C1649.75 606 1639 690.842 1639 795.5C1639 900.158 1649.75 985 1663 985C1676.25 985 1687 900.158 1687 795.5Z" fill="url(#paint5_radial)" fill-opacity="0.4"/>
<path style="mix-blend-mode:color-dodge" d="M1888 645.5C1888 540.842 1877.25 456 1864 456C1850.75 456 1840 540.842 1840 645.5C1840 750.158 1850.75 835 1864 835C1877.25 835 1888 750.158 1888 645.5Z" fill="url(#paint6_radial)" fill-opacity="0.4"/>
<g style="mix-blend-mode:color-dodge">
<g style="mix-blend-mode:color-dodge">
<g style="mix-blend-mode:color-dodge">
<g style="mix-blend-mode:color-dodge">
<g style="mix-blend-mode:color-dodge">
<path d="M1663 1136.29L1617.47 1181.76V1249H1615.88V1181.12L1661.41 1135.62V792.148H1663V1136.29Z" fill="#00C2FF"/>
</g>
</g>
</g>
</g>
<g style="mix-blend-mode:color-dodge">
<g style="mix-blend-mode:color-dodge">
<g style="mix-blend-mode:color-dodge">
<g style="mix-blend-mode:color-dodge">
<path d="M1656.23 792.433C1656.23 791.251 1656.58 790.096 1657.24 789.114C1657.9 788.131 1658.83 787.366 1659.92 786.914C1661.01 786.461 1662.22 786.343 1663.38 786.574C1664.54 786.804 1665.6 787.373 1666.44 788.209C1667.27 789.044 1667.84 790.108 1668.07 791.267C1668.3 792.426 1668.18 793.627 1667.73 794.719C1667.28 795.81 1666.51 796.743 1665.53 797.4C1664.55 798.056 1663.39 798.407 1662.21 798.407C1660.62 798.407 1659.1 797.777 1657.98 796.657C1656.86 795.537 1656.23 794.017 1656.23 792.433Z" fill="#00C2FF"/>
</g>
</g>
</g>
</g>
</g>
<g style="mix-blend-mode:color-dodge">
<g style="mix-blend-mode:color-dodge">
<g style="mix-blend-mode:color-dodge">
<g style="mix-blend-mode:color-dodge">
<g style="mix-blend-mode:color-dodge">
<path fill-rule="evenodd" clip-rule="evenodd" d="M1717.86 881.98C1714.56 881.98 1711.88 884.655 1711.88 887.954C1711.88 890.984 1714.14 893.487 1717.06 893.876V1146.11L1651.02 1212.11V1249H1652.61V1212.74L1718.65 1146.77V893.876C1721.58 893.487 1723.84 890.984 1723.84 887.954C1723.84 884.655 1721.16 881.98 1717.86 881.98Z" fill="#00C2FF"/>
</g>
</g>
</g>
</g>
</g>
<g style="mix-blend-mode:color-dodge">
<g style="mix-blend-mode:color-dodge">
<g style="mix-blend-mode:color-dodge">
<g style="mix-blend-mode:color-dodge">
<g style="mix-blend-mode:color-dodge">
<path d="M1773.7 827.453V1119.16L1703.29 1189.51V1249H1701.7V1188.85L1772.11 1118.52V828.089L1686.25 742.324L1687.4 741.18L1773.7 827.453Z" fill="#00C2FF"/>
</g>
</g>
</g>
</g>
<g style="mix-blend-mode:color-dodge">
<g style="mix-blend-mode:color-dodge">
<g style="mix-blend-mode:color-dodge">
<g style="mix-blend-mode:color-dodge">
<path d="M1681.07 741.974C1681.07 738.675 1683.74 736 1687.05 736C1690.35 736 1693.02 738.675 1693.02 741.974C1693.02 745.273 1690.35 747.948 1687.05 747.948C1683.74 747.948 1681.07 745.273 1681.07 741.974Z" fill="#00C2FF"/>
</g>
</g>
</g>
</g>
</g>
<g style="mix-blend-mode:color-dodge">
<g style="mix-blend-mode:color-dodge">
<g style="mix-blend-mode:color-dodge">
<g style="mix-blend-mode:color-dodge">
<g style="mix-blend-mode:color-dodge">
<path fill-rule="evenodd" clip-rule="evenodd" d="M1927.03 1199L1903.24 1175.26V769.516C1904.14 769.395 1905.01 769.071 1905.77 768.562C1906.75 767.906 1907.52 766.973 1907.97 765.881C1908.42 764.79 1908.54 763.588 1908.31 762.43C1908.08 761.271 1907.51 760.206 1906.67 759.371C1905.84 758.535 1904.77 757.966 1903.61 757.736C1902.45 757.505 1901.25 757.624 1900.16 758.076C1899.07 758.528 1898.13 759.294 1897.48 760.276C1896.82 761.259 1896.47 762.414 1896.47 763.595C1896.47 765.18 1897.1 766.699 1898.22 767.819C1899.15 768.751 1900.36 769.343 1901.65 769.516V1175.9L1924.77 1199H1927.03Z" fill="#00C2FF"/>
</g>
</g>
</g>
</g>
</g>
<g style="mix-blend-mode:color-dodge">
<g style="mix-blend-mode:color-dodge">
<g style="mix-blend-mode:color-dodge">
<g style="mix-blend-mode:color-dodge">
<g style="mix-blend-mode:color-dodge">
<path fill-rule="evenodd" clip-rule="evenodd" d="M1757 758.039C1757 759.221 1757.35 760.376 1758.01 761.358C1758.67 762.341 1759.6 763.106 1760.69 763.558C1761.78 764.011 1762.99 764.129 1764.15 763.898C1765.3 763.668 1766.37 763.099 1767.21 762.263C1768.04 761.428 1768.61 760.363 1768.84 759.205C1769.07 758.046 1768.95 756.845 1768.5 755.753C1768.05 754.661 1767.28 753.728 1766.3 753.072C1765.55 752.57 1764.69 752.246 1763.8 752.122V695.891C1764.69 695.767 1765.55 695.444 1766.3 694.941C1767.28 694.285 1768.05 693.352 1768.5 692.26C1768.95 691.169 1769.07 689.967 1768.84 688.809C1768.61 687.65 1768.04 686.585 1767.21 685.75C1766.37 684.914 1765.3 684.345 1764.15 684.115C1762.99 683.884 1761.78 684.003 1760.69 684.455C1759.6 684.907 1758.67 685.673 1758.01 686.655C1757.35 687.637 1757 688.792 1757 689.974C1757 691.558 1757.63 693.078 1758.75 694.198C1759.69 695.137 1760.91 695.731 1762.21 695.899V752.114C1760.91 752.282 1759.69 752.876 1758.75 753.815C1757.63 754.935 1757 756.455 1757 758.039Z" fill="#00C2FF"/>
</g>
</g>
</g>
</g>
</g>
<g style="mix-blend-mode:color-dodge">
<g style="mix-blend-mode:color-dodge">
<g style="mix-blend-mode:color-dodge">
<g style="mix-blend-mode:color-dodge">
<g style="mix-blend-mode:color-dodge">
<path d="M1866.17 1056.18L1889 1079H1886.74L1864.58 1056.85V617.51H1866.17V1056.18Z" fill="#00C2FF"/>
</g>
</g>
</g>
</g>
<g style="mix-blend-mode:color-dodge">
<g style="mix-blend-mode:color-dodge">
<g style="mix-blend-mode:color-dodge">
<g style="mix-blend-mode:color-dodge">
<path d="M1859.39 617.828C1859.39 614.528 1862.07 611.854 1865.37 611.854C1868.67 611.854 1871.35 614.528 1871.35 617.828C1871.35 621.127 1868.67 623.802 1865.37 623.802C1862.07 623.802 1859.39 621.127 1859.39 617.828Z" fill="#00C2FF"/>
</g>
</g>
</g>
</g>
</g>
<g style="mix-blend-mode:color-dodge">
<path fill-rule="evenodd" clip-rule="evenodd" d="M1809 671.655C1808.35 672.637 1808 673.792 1808 674.974C1808 676.558 1808.63 678.078 1809.75 679.198C1810.68 680.129 1811.89 680.721 1813.18 680.895V1134.34L1838.27 1159.41H1840.53L1814.77 1133.7V680.895C1815.67 680.775 1816.53 680.45 1817.3 679.941C1818.28 679.285 1819.05 678.352 1819.5 677.26C1819.95 676.168 1820.07 674.967 1819.84 673.808C1819.61 672.649 1819.04 671.585 1818.2 670.75C1817.37 669.914 1816.3 669.345 1815.14 669.115C1813.98 668.884 1812.78 669.002 1811.69 669.455C1810.6 669.907 1809.66 670.672 1809 671.655Z" fill="#00C2FF"/>
</g>
<g style="mix-blend-mode:color-dodge">
<path fill-rule="evenodd" clip-rule="evenodd" d="M1545.48 814.278C1545.71 815.437 1546.28 816.501 1547.12 817.337C1548.24 818.451 1549.76 819.076 1551.35 819.076C1551.9 819.076 1552.45 818.999 1552.98 818.85L1606.3 921.47V1039H1607V920.9L1553.82 818.543C1554.47 818.251 1555.06 817.845 1555.58 817.337C1556.41 816.501 1556.98 815.437 1557.21 814.278C1557.44 813.119 1557.32 811.919 1556.87 810.827C1556.42 809.736 1555.65 808.803 1554.67 808.147C1553.68 807.491 1552.53 807.141 1551.35 807.141C1550.16 807.141 1549.01 807.491 1548.03 808.147C1547.04 808.803 1546.28 809.736 1545.82 810.827C1545.37 811.919 1545.25 813.119 1545.48 814.278Z" fill="#00C2FF"/>
</g>
<g style="mix-blend-mode:color-dodge">
<path fill-rule="evenodd" clip-rule="evenodd" d="M1517.88 748.934C1514.58 748.934 1511.9 751.609 1511.9 754.908C1511.9 757.926 1514.14 760.421 1517.05 760.824V975.151L1597.25 1055.26L1598.36 1054.14L1518.64 974.481V760.834C1521.58 760.461 1523.86 757.95 1523.86 754.908C1523.86 751.609 1521.18 748.934 1517.88 748.934Z" fill="#00C2FF"/>
</g>
</g>
<g style="mix-blend-mode:color-dodge">
<path fill-rule="evenodd" clip-rule="evenodd" d="M1467.51 -85.3237L1582.49 29.5484V174.185C1585.42 174.575 1587.67 177.077 1587.67 180.106C1587.67 183.406 1585 186.08 1581.69 186.08C1578.39 186.08 1575.72 183.406 1575.72 180.106C1575.72 177.075 1577.97 174.57 1580.9 174.184V30.2157L1465.92 -84.6563V-216.338L1391 -291.204V-294H1392.59V-291.839L1467.51 -216.974V-85.3237Z" fill="#00C2FF"/>
</g>
<g style="mix-blend-mode:color-dodge">
<g style="mix-blend-mode:color-dodge">
<g style="mix-blend-mode:color-dodge">
<g style="mix-blend-mode:color-dodge">
<g style="mix-blend-mode:color-dodge">
<path fill-rule="evenodd" clip-rule="evenodd" d="M371.742 158.605C374.683 158.98 376.956 161.49 376.956 164.53C376.956 167.83 374.28 170.504 370.978 170.504C367.677 170.504 365 167.83 365 164.53C365 161.511 367.242 159.015 370.153 158.613V-55.7105L450.347 -135.818L451.46 -134.706L371.742 -55.0432V158.605Z" fill="#00C2FF"/>
</g>
</g>
</g>
</g>
</g>
<path d="M481 205C481 167.445 472.27 137 461.5 137C450.73 137 442 167.445 442 205C442 242.555 450.73 273 461.5 273C472.27 273 481 242.555 481 205Z" fill="url(#paint7_radial)" fill-opacity="0.4"/>
<g style="mix-blend-mode:color-dodge">
<g style="mix-blend-mode:color-dodge">
<g style="mix-blend-mode:color-dodge">
<g style="mix-blend-mode:color-dodge">
<g style="mix-blend-mode:color-dodge">
<path fill-rule="evenodd" clip-rule="evenodd" d="M461.742 198.605C464.683 198.98 466.956 201.49 466.956 204.53C466.956 207.83 464.28 210.504 460.978 210.504C457.677 210.504 455 207.83 455 204.53C455 201.511 457.242 199.015 460.153 198.613V-15.7098L540.347 -95.8184L541.46 -94.7062L461.742 -15.0425V198.605Z" fill="#00C2FF"/>
</g>
</g>
</g>
</g>
</g>
<g style="mix-blend-mode:color-dodge">
<g style="mix-blend-mode:color-dodge">
<g style="mix-blend-mode:color-dodge">
<g style="mix-blend-mode:color-dodge">
<g style="mix-blend-mode:color-dodge">
<path fill-rule="evenodd" clip-rule="evenodd" d="M616.999 -86V15.0508L532.201 148.902C532.561 149.131 532.899 149.399 533.207 149.704C534.043 150.54 534.611 151.604 534.842 152.763C535.072 153.922 534.953 155.123 534.5 156.214C534.048 157.305 533.282 158.238 532.299 158.894C531.316 159.55 530.16 159.9 528.978 159.9C527.796 159.9 526.64 159.55 525.657 158.894C524.674 158.238 523.908 157.305 523.456 156.214C523.003 155.123 522.884 153.922 523.114 152.763C523.345 151.604 523.913 150.54 524.749 149.704C525.874 148.59 527.394 147.966 528.978 147.966C529.721 147.966 530.45 148.103 531.13 148.364L615.991 14.3826V-86H616.999Z" fill="#00C2FF"/>
</g>
</g>
</g>
</g>
</g>
<g style="mix-blend-mode:color-dodge">
<g style="mix-blend-mode:color-dodge">
<g style="mix-blend-mode:color-dodge">
<g style="mix-blend-mode:color-dodge">
<g style="mix-blend-mode:color-dodge">
<path fill-rule="evenodd" clip-rule="evenodd" d="M507.164 24.1566C507.164 22.9751 507.515 21.8201 508.172 20.8376C508.828 19.8552 509.762 19.0895 510.854 18.6374C511.947 18.1852 513.149 18.0669 514.308 18.2974C515.468 18.5279 516.533 19.0969 517.369 19.9324C518.205 20.7678 518.775 21.8323 519.005 22.9911C519.236 24.15 519.118 25.3512 518.665 26.4428C518.213 27.5344 517.446 28.4674 516.463 29.1238C515.711 29.6263 514.857 29.9494 513.968 30.0733V86.3051C514.857 86.429 515.711 86.7521 516.463 87.2546C517.446 87.911 518.213 88.844 518.665 89.9356C519.118 91.0272 519.236 92.2284 519.005 93.3872C518.775 94.5461 518.205 95.6106 517.369 96.446C516.533 97.2815 515.468 97.8505 514.308 98.081C513.149 98.3115 511.947 98.1932 510.854 97.741C509.762 97.2889 508.828 96.5232 508.172 95.5407C507.515 94.5583 507.164 93.4033 507.164 92.2218C507.164 90.6374 507.794 89.1179 508.915 87.9976C509.854 87.0588 511.074 86.4647 512.378 86.2968V30.0816C511.074 29.9137 509.854 29.3196 508.915 28.3809C507.794 27.2605 507.164 25.741 507.164 24.1566Z" fill="#00C2FF"/>
</g>
</g>
</g>
</g>
</g>
</g>
<defs>
<radialGradient id="paint0_radial" cx="0" cy="0" r="1" gradientUnits="userSpaceOnUse" gradientTransform="translate(1060.5 98) scale(19.5 68)">
<stop stop-color="#00C2FF"/>
<stop offset="0.529516" stop-color="#02FFE1" stop-opacity="0.16"/>
<stop offset="1" stop-color="#02FFE1" stop-opacity="0"/>
</radialGradient>
<radialGradient id="paint1_radial" cx="0" cy="0" r="1" gradientUnits="userSpaceOnUse" gradientTransform="translate(1366.5 98) scale(19.5 68)">
<stop stop-color="#00C2FF"/>
<stop offset="0.529516" stop-color="#02FFE1" stop-opacity="0.16"/>
<stop offset="1" stop-color="#02FFE1" stop-opacity="0"/>
</radialGradient>
<radialGradient id="paint2_radial" cx="0" cy="0" r="1" gradientUnits="userSpaceOnUse" gradientTransform="translate(25.5 361) rotate(90) scale(24 189.5)">
<stop stop-color="#00C2FF"/>
<stop offset="0.529516" stop-color="#02FFE1" stop-opacity="0.16"/>
<stop offset="1" stop-color="#02FFE1" stop-opacity="0"/>
</radialGradient>
<radialGradient id="paint3_radial" cx="0" cy="0" r="1" gradientUnits="userSpaceOnUse" gradientTransform="translate(204.5 696) rotate(90) scale(24 189.5)">
<stop stop-color="#00C2FF"/>
<stop offset="0.529516" stop-color="#02FFE1" stop-opacity="0.16"/>
<stop offset="1" stop-color="#02FFE1" stop-opacity="0"/>
</radialGradient>
<radialGradient id="paint4_radial" cx="0" cy="0" r="1" gradientUnits="userSpaceOnUse" gradientTransform="translate(793 691.5) scale(24 189.5)">
<stop stop-color="#00C2FF"/>
<stop offset="0.529516" stop-color="#02FFE1" stop-opacity="0.16"/>
<stop offset="1" stop-color="#02FFE1" stop-opacity="0"/>
</radialGradient>
<radialGradient id="paint5_radial" cx="0" cy="0" r="1" gradientUnits="userSpaceOnUse" gradientTransform="translate(1663 795.5) scale(24 189.5)">
<stop stop-color="#00C2FF"/>
<stop offset="0.529516" stop-color="#02FFE1" stop-opacity="0.16"/>
<stop offset="1" stop-color="#02FFE1" stop-opacity="0"/>
</radialGradient>
<radialGradient id="paint6_radial" cx="0" cy="0" r="1" gradientUnits="userSpaceOnUse" gradientTransform="translate(1864 645.5) scale(24 189.5)">
<stop stop-color="#00C2FF"/>
<stop offset="0.529516" stop-color="#02FFE1" stop-opacity="0.16"/>
<stop offset="1" stop-color="#02FFE1" stop-opacity="0"/>
</radialGradient>
<radialGradient id="paint7_radial" cx="0" cy="0" r="1" gradientUnits="userSpaceOnUse" gradientTransform="translate(461.5 205) scale(19.5 68)">
<stop stop-color="#00C2FF"/>
<stop offset="0.529516" stop-color="#02FFE1" stop-opacity="0.16"/>
<stop offset="1" stop-color="#02FFE1" stop-opacity="0"/>
</radialGradient>
<clipPath id="clip0">
<rect width="1920" height="969" fill="white"/>
</clipPath>
</defs>
</svg>
