<svg width="1920" height="1080" viewBox="0 0 1920 1080" fill="none" xmlns="http://www.w3.org/2000/svg">
<g clip-path="url(#clip0)">
<g style="mix-blend-mode:color-dodge">
<g style="mix-blend-mode:color-dodge">
<g style="mix-blend-mode:color-dodge">
<path fill-rule="evenodd" clip-rule="evenodd" d="M745.239 124.886C744.582 123.903 744.232 122.748 744.232 121.567C744.232 119.982 744.861 118.463 745.982 117.342C746.914 116.411 748.122 115.819 749.414 115.646V-221.621L703.879 -267.125V-335H705.469V-267.761L751.004 -222.289V115.646C751.904 115.766 752.769 116.091 753.531 116.599C754.514 117.256 755.28 118.189 755.732 119.28C756.185 120.372 756.303 121.573 756.073 122.732C755.842 123.891 755.273 124.955 754.437 125.791C753.601 126.626 752.535 127.195 751.376 127.426C750.216 127.656 749.014 127.538 747.922 127.086C746.829 126.634 745.896 125.868 745.239 124.886Z" fill="#00C2FF"/>
</g>
</g>
</g>
<g style="mix-blend-mode:color-dodge">
<g style="mix-blend-mode:color-dodge">
<g style="mix-blend-mode:color-dodge">
<path fill-rule="evenodd" clip-rule="evenodd" d="M835.856 32.0193C832.554 32.0193 829.878 29.3446 829.878 26.0453C829.878 23.0155 832.135 20.5125 835.06 20.1237V-232.108L769.016 -298.107V-335H770.606V-298.743L836.65 -232.775V20.1236C839.576 20.5118 841.834 23.0151 841.834 26.0453C841.834 29.3446 839.157 32.0193 835.856 32.0193Z" fill="#00C2FF"/>
</g>
</g>
</g>
<g style="mix-blend-mode:color-dodge">
<g style="mix-blend-mode:color-dodge">
<path fill-rule="evenodd" clip-rule="evenodd" d="M1183.56 52.3597C1182.77 53.3988 1182.34 54.6737 1182.34 55.9931C1182.34 57.5759 1182.96 59.0947 1184.08 60.2193C1184.91 61.0542 1185.98 61.6226 1187.14 61.8527C1188.3 62.0827 1189.5 61.9641 1190.59 61.5118C1191.68 61.0594 1192.62 60.2937 1193.27 59.3114C1193.93 58.3291 1194.28 57.1744 1194.28 55.9931C1194.28 54.8118 1193.93 53.657 1193.27 52.6747C1192.62 51.6924 1191.68 50.9267 1190.59 50.4743C1189.5 50.022 1188.3 49.9034 1187.14 50.1334C1186.25 50.3091 1185.42 50.6823 1184.71 51.2208L1121.66 -11.7856V-285H1120.07V-11.1183L1183.56 52.3597Z" fill="#00C2FF"/>
</g>
</g>
<g style="mix-blend-mode:color-dodge">
<g style="mix-blend-mode:color-dodge">
<g style="mix-blend-mode:color-dodge">
<path fill-rule="evenodd" clip-rule="evenodd" d="M891.694 -205.161V86.5472L809.805 168.411C810.569 169.415 811.022 170.667 811.022 172.025C811.022 175.325 808.346 177.999 805.044 177.999C801.743 177.999 799.066 175.325 799.066 172.025C799.066 168.726 801.743 166.051 805.044 166.051C806.404 166.051 807.658 166.505 808.662 167.269L890.104 85.9117V-204.526L819.704 -274.847V-335H821.294V-275.514L891.694 -205.161Z" fill="#00C2FF"/>
</g>
</g>
</g>
<g style="mix-blend-mode:color-dodge">
<g style="mix-blend-mode:color-dodge">
<g style="mix-blend-mode:color-dodge">
<path fill-rule="evenodd" clip-rule="evenodd" d="M1085.03 -335L1061.24 -311.263V94.4822C1062.14 94.6029 1063.01 94.9277 1063.77 95.436C1064.75 96.0924 1065.52 97.0254 1065.97 98.117C1066.42 99.2086 1066.54 100.41 1066.31 101.569C1066.08 102.727 1065.51 103.792 1064.67 104.627C1063.84 105.463 1062.77 106.032 1061.61 106.262C1060.45 106.493 1059.25 106.375 1058.16 105.922C1057.07 105.47 1056.13 104.705 1055.48 103.722C1054.82 102.74 1054.47 101.585 1054.47 100.403C1054.47 98.8188 1055.1 97.2993 1056.22 96.1789C1057.15 95.2475 1058.36 94.6555 1059.65 94.4823V-311.898L1082.77 -335H1085.03Z" fill="#00C2FF"/>
</g>
</g>
</g>
<g style="mix-blend-mode:color-dodge">
<g style="mix-blend-mode:color-dodge">
<g style="mix-blend-mode:color-dodge">
<path d="M1499.18 -11.4516L1384.2 -126.324V-257.974L1309.28 -332.839V-335H1307.69V-332.204L1382.61 -257.338V-125.656L1497.59 -10.7843V139.392H1499.18V-11.4516Z" fill="#00C2FF"/>
</g>
</g>
<g style="mix-blend-mode:color-dodge">
<g style="mix-blend-mode:color-dodge">
<path d="M1492.41 139.106C1492.41 142.406 1495.08 145.08 1498.39 145.08C1501.69 145.08 1504.36 142.406 1504.36 139.106C1504.36 135.807 1501.69 133.132 1498.39 133.132C1495.08 133.132 1492.41 135.807 1492.41 139.106Z" fill="#00C2FF"/>
</g>
</g>
</g>
<g style="mix-blend-mode:color-dodge">
<g style="mix-blend-mode:color-dodge">
<g style="mix-blend-mode:color-dodge">
<path d="M1333.11 145.651L1244.37 56.9633V-208.275L1296.04 -259.912V-335H1294.45V-260.548L1242.78 -208.943V57.6306L1332 146.795L1333.11 145.651Z" fill="#00C2FF"/>
</g>
</g>
<g style="mix-blend-mode:color-dodge">
<g style="mix-blend-mode:color-dodge">
<path d="M1328.12 150.259C1328.96 151.094 1330.02 151.662 1331.18 151.892C1332.34 152.122 1333.54 152.004 1334.64 151.552C1335.73 151.099 1336.66 150.333 1337.32 149.351C1337.97 148.369 1338.32 147.214 1338.32 146.033C1338.32 144.852 1337.97 143.697 1337.32 142.714C1336.66 141.732 1335.73 140.966 1334.64 140.514C1333.54 140.062 1332.34 139.943 1331.18 140.173C1330.02 140.403 1328.96 140.972 1328.12 141.807C1327.01 142.931 1326.38 144.45 1326.38 146.033C1326.38 147.616 1327.01 149.134 1328.12 150.259Z" fill="#00C2FF"/>
</g>
</g>
</g>
<g style="mix-blend-mode:color-dodge">
<g style="mix-blend-mode:color-dodge">
<g style="mix-blend-mode:color-dodge">
<path d="M1335.78 -94.6745V-246.82H1337.37V-95.3418L1430.38 -2.39545V122.169L1386.37 166.147L1385.26 165.003L1428.79 121.501V-1.75992L1335.78 -94.6745Z" fill="#00C2FF"/>
</g>
</g>
<g style="mix-blend-mode:color-dodge">
<g style="mix-blend-mode:color-dodge">
<path d="M1381.8 161.19C1380.96 162.024 1380.38 163.088 1380.15 164.248C1379.92 165.408 1380.03 166.611 1380.48 167.705C1380.93 168.799 1381.7 169.734 1382.69 170.393C1383.67 171.051 1384.83 171.402 1386.01 171.402C1387.19 171.402 1388.35 171.051 1389.34 170.393C1390.32 169.734 1391.09 168.799 1391.54 167.705C1391.99 166.611 1392.1 165.408 1391.87 164.248C1391.64 163.088 1391.06 162.024 1390.22 161.19C1389.67 160.636 1389.01 160.196 1388.29 159.896C1387.57 159.595 1386.79 159.441 1386.01 159.441C1385.23 159.441 1384.45 159.595 1383.73 159.896C1383.01 160.196 1382.35 160.636 1381.8 161.19Z" fill="#00C2FF"/>
</g>
</g>
</g>
<g style="mix-blend-mode:color-dodge">
<g style="mix-blend-mode:color-dodge">
<g style="mix-blend-mode:color-dodge">
<path d="M1297.02 -37.8895V-195.183H1298.61V-38.5568L1369.68 32.4319V95.5083H1368.09V33.0992L1297.02 -37.8895Z" fill="#00C2FF"/>
</g>
</g>
<g style="mix-blend-mode:color-dodge">
<g style="mix-blend-mode:color-dodge">
<path d="M1362.88 95.2261C1362.88 96.4076 1363.23 97.5626 1363.88 98.545C1364.54 99.5274 1365.47 100.293 1366.57 100.745C1367.66 101.198 1368.86 101.316 1370.02 101.085C1371.18 100.855 1372.25 100.286 1373.08 99.4503C1373.92 98.6148 1374.49 97.5503 1374.72 96.3915C1374.95 95.2327 1374.83 94.0315 1374.38 92.9399C1373.92 91.8483 1373.16 90.9153 1372.18 90.2589C1371.19 89.6025 1370.04 89.2521 1368.85 89.2521C1367.27 89.2521 1365.75 89.8815 1364.63 91.0018C1363.51 92.1222 1362.88 93.6417 1362.88 95.2261Z" fill="#00C2FF"/>
</g>
</g>
</g>
<g style="mix-blend-mode:color-dodge">
<g style="mix-blend-mode:color-dodge">
<path fill-rule="evenodd" clip-rule="evenodd" d="M1100.7 -254.577V47.3003L1211.35 157.873C1210.56 158.913 1210.13 160.187 1210.13 161.506C1210.13 163.089 1210.75 164.608 1211.87 165.732C1212.7 166.567 1213.77 167.136 1214.93 167.366C1216.09 167.596 1217.29 167.477 1218.38 167.025C1219.47 166.573 1220.41 165.807 1221.06 164.825C1221.72 163.842 1222.07 162.688 1222.07 161.506C1222.07 160.325 1221.72 159.17 1221.06 158.188C1220.41 157.206 1219.47 156.44 1218.38 155.988C1217.29 155.535 1216.09 155.417 1214.93 155.647C1214.04 155.824 1213.2 156.202 1212.48 156.747L1102.29 46.633V-254.577H1100.7Z" fill="#00C2FF"/>
</g>
</g>
<g style="mix-blend-mode:color-dodge">
<g style="mix-blend-mode:color-dodge">
<g style="mix-blend-mode:color-dodge">
<path fill-rule="evenodd" clip-rule="evenodd" d="M1047 -335L1024.17 -312.184V120.251C1027.09 120.64 1029.35 123.143 1029.35 126.172C1029.35 129.472 1026.67 132.146 1023.37 132.146C1020.07 132.146 1017.39 129.472 1017.39 126.172C1017.39 123.142 1019.65 120.639 1022.58 120.251V-312.852L1044.74 -335H1047Z" fill="#00C2FF"/>
</g>
</g>
</g>
<g style="mix-blend-mode:color-dodge">
<g style="mix-blend-mode:color-dodge">
<g style="mix-blend-mode:color-dodge">
<path fill-rule="evenodd" clip-rule="evenodd" d="M991.476 -335L965.719 -309.293V143.513C966.619 143.633 967.484 143.958 968.245 144.466C969.228 145.123 969.994 146.056 970.446 147.147C970.899 148.239 971.017 149.44 970.786 150.599C970.556 151.758 969.986 152.822 969.15 153.658C968.314 154.493 967.249 155.062 966.09 155.293C964.93 155.523 963.728 155.405 962.636 154.953C961.543 154.501 960.61 153.735 959.953 152.752C959.296 151.77 958.945 150.615 958.945 149.433C958.945 147.849 959.575 146.33 960.696 145.209C961.628 144.278 962.837 143.685 964.129 143.512V-309.928L989.218 -335H991.476Z" fill="#00C2FF"/>
</g>
</g>
</g>
<g style="mix-blend-mode:color-dodge">
<g style="mix-blend-mode:color-dodge">
<g style="mix-blend-mode:color-dodge">
<path fill-rule="evenodd" clip-rule="evenodd" d="M666.64 153.166C669.58 153.541 671.853 156.051 671.853 159.092C671.853 162.391 669.177 165.066 665.876 165.066C662.574 165.066 659.898 162.391 659.898 159.092C659.898 156.072 662.139 153.576 665.05 153.174V-61.1484L745.244 -141.257L746.357 -140.145L666.64 -60.481V153.166Z" fill="#00C2FF"/>
</g>
</g>
</g>
<path d="M1080 95C1080 57.4446 1071.27 27 1060.5 27C1049.73 27 1041 57.4446 1041 95C1041 132.555 1049.73 163 1060.5 163C1071.27 163 1080 132.555 1080 95Z" fill="url(#paint0_radial)" fill-opacity="0.4"/>
<path d="M1386 95C1386 57.4446 1377.27 27 1366.5 27C1355.73 27 1347 57.4446 1347 95C1347 132.555 1355.73 163 1366.5 163C1377.27 163 1386 132.555 1386 95Z" fill="url(#paint1_radial)" fill-opacity="0.4"/>
<g style="mix-blend-mode:color-dodge">
<g style="mix-blend-mode:color-dodge">
<path fill-rule="evenodd" clip-rule="evenodd" d="M-168 808.967H-70.6189L60.9715 940.653C61.6695 940.118 62.4833 939.749 63.3519 939.576C64.4698 939.354 65.6286 939.469 66.6816 939.905C67.7346 940.342 68.6345 941.081 69.2677 942.029C69.9008 942.978 70.2388 944.093 70.2388 945.233C70.2388 946.374 69.9008 947.488 69.2677 948.437C68.6345 949.385 67.7346 950.124 66.6816 950.561C65.6286 950.997 64.4698 951.112 63.3519 950.89C62.2339 950.668 61.2066 950.119 60.4003 949.313C59.3256 948.227 58.7227 946.761 58.7227 945.233C58.7227 943.961 59.1406 942.732 59.9007 941.729L-71.2628 810.501H-168V808.967Z" fill="#00C2FF"/>
</g>
</g>
<g style="mix-blend-mode:color-dodge">
<g style="mix-blend-mode:color-dodge">
<path fill-rule="evenodd" clip-rule="evenodd" d="M-206 888H-108.619L22.972 1019.69C23.6699 1019.15 24.4835 1018.78 25.3519 1018.61C26.4698 1018.39 27.6286 1018.5 28.6815 1018.94C29.7346 1019.38 30.6345 1020.11 31.2677 1021.06C31.9008 1022.01 32.2388 1023.13 32.2388 1024.27C32.2388 1025.41 31.9008 1026.52 31.2677 1027.47C30.6345 1028.42 29.7346 1029.16 28.6815 1029.59C27.6286 1030.03 26.4698 1030.15 25.3519 1029.92C24.2339 1029.7 23.2066 1029.15 22.4003 1028.35C21.3256 1027.26 20.7227 1025.79 20.7227 1024.27C20.7227 1023 21.1411 1021.76 21.9023 1020.76L-109.263 889.534H-206V888Z" fill="#00C2FF"/>
</g>
</g>
<g style="mix-blend-mode:color-dodge">
<g style="mix-blend-mode:color-dodge">
<g style="mix-blend-mode:color-dodge">
<path d="M144.87 -28.9998L58.1902 57.7234H-115.017L-168 110.733V112.911L-114.373 59.2573H58.8035L145.484 -27.4659H302.195V-28.9998H144.87Z" fill="#00C2FF"/>
</g>
</g>
</g>
<g style="mix-blend-mode:color-dodge">
<g style="mix-blend-mode:color-dodge">
<g style="mix-blend-mode:color-dodge">
<path fill-rule="evenodd" clip-rule="evenodd" d="M95.7482 718.265C94.8002 718.899 93.6857 719.237 92.5456 719.237C91.0168 719.237 89.5506 718.629 88.4696 717.548C87.5709 716.649 86.9995 715.483 86.8324 714.237H-238.6L-282.507 758.166H-348V756.632H-283.12L-239.243 712.703H86.8325C86.949 711.834 87.2623 711 87.7527 710.266C88.3862 709.317 89.2864 708.578 90.3397 708.142C91.393 707.705 92.552 707.591 93.6702 707.813C94.7884 708.036 95.8155 708.585 96.6217 709.392C97.4278 710.198 97.9768 711.226 98.1992 712.345C98.4217 713.463 98.3075 714.623 97.8712 715.677C97.4349 716.731 96.6961 717.631 95.7482 718.265Z" fill="#00C2FF"/>
</g>
</g>
</g>
<g style="mix-blend-mode:color-dodge">
<g style="mix-blend-mode:color-dodge">
<g style="mix-blend-mode:color-dodge">
<path fill-rule="evenodd" clip-rule="evenodd" d="M-135.407 245.496L-68.9325 312.003H124.348C124.465 311.135 124.778 310.3 125.268 309.566C125.902 308.618 126.802 307.878 127.855 307.442C128.909 307.005 130.068 306.891 131.186 307.114C132.304 307.336 133.331 307.886 134.137 308.692C134.943 309.499 135.492 310.526 135.715 311.645C135.937 312.764 135.823 313.923 135.387 314.977C134.951 316.031 134.212 316.932 133.264 317.565C132.316 318.199 131.201 318.537 130.061 318.537C128.532 318.537 127.066 317.93 125.985 316.848C125.086 315.949 124.515 314.783 124.348 313.537H-69.5458L-136.02 247.03H-168V245.496H-135.407Z" fill="#00C2FF"/>
</g>
</g>
</g>
<g style="mix-blend-mode:color-dodge">
<g style="mix-blend-mode:color-dodge">
<g style="mix-blend-mode:color-dodge">
<path fill-rule="evenodd" clip-rule="evenodd" d="M126.142 659.786C126.142 662.971 123.561 665.553 120.378 665.553C117.454 665.553 115.039 663.375 114.664 660.553H-128.718L-192.402 724.268H-228V722.734H-193.015L-129.362 659.019H114.664C115.039 656.196 117.454 654.019 120.378 654.019C123.561 654.019 126.142 656.601 126.142 659.786Z" fill="#00C2FF"/>
</g>
</g>
</g>
<g style="mix-blend-mode:color-dodge">
<g style="mix-blend-mode:color-dodge">
<g style="mix-blend-mode:color-dodge">
<path fill-rule="evenodd" clip-rule="evenodd" d="M-152.717 605.917H128.756L207.748 684.919C208.716 684.182 209.924 683.744 211.235 683.744C214.419 683.744 217 686.326 217 689.511C217 692.696 214.419 695.278 211.235 695.278C208.052 695.278 205.471 692.696 205.471 689.511C205.471 688.2 205.908 686.99 206.645 686.021L128.143 607.451H-152.104L-219.958 675.369H-278V673.835H-220.602L-152.717 605.917Z" fill="#00C2FF"/>
</g>
</g>
</g>
<g style="mix-blend-mode:color-dodge">
<g style="mix-blend-mode:color-dodge">
<g style="mix-blend-mode:color-dodge">
<path fill-rule="evenodd" clip-rule="evenodd" d="M181.448 299.64C180.308 299.64 179.193 299.302 178.245 298.668C177.298 298.035 176.559 297.134 176.122 296.08C175.686 295.026 175.572 293.867 175.794 292.748C176.017 291.629 176.566 290.602 177.372 289.795C178.178 288.989 179.205 288.439 180.323 288.217C181.442 287.994 182.601 288.108 183.654 288.545C184.707 288.981 185.607 289.721 186.241 290.669C186.726 291.395 187.037 292.218 187.157 293.076H241.415C241.534 292.218 241.846 291.395 242.331 290.669C242.964 289.721 243.865 288.981 244.918 288.545C245.971 288.108 247.13 287.994 248.248 288.217C249.366 288.439 250.394 288.989 251.2 289.795C252.006 290.602 252.555 291.629 252.777 292.748C253 293.867 252.886 295.026 252.449 296.08C252.013 297.134 251.274 298.035 250.326 298.668C249.378 299.302 248.264 299.64 247.124 299.64C245.595 299.64 244.129 299.033 243.048 297.951C242.142 297.045 241.568 295.867 241.407 294.609H187.165C187.003 295.867 186.43 297.045 185.524 297.951C184.443 299.033 182.977 299.64 181.448 299.64Z" fill="#00C2FF"/>
</g>
</g>
</g>
<g style="mix-blend-mode:color-dodge">
<g style="mix-blend-mode:color-dodge">
<g style="mix-blend-mode:color-dodge">
<path fill-rule="evenodd" clip-rule="evenodd" d="M-168 325.255L-141.631 351.637H67.0476C67.1673 350.78 67.479 349.957 67.9637 349.231C68.5971 348.282 69.4973 347.543 70.5506 347.107C71.604 346.67 72.763 346.556 73.8811 346.779C74.9993 347.001 76.0264 347.55 76.8326 348.357C77.6388 349.163 78.1878 350.191 78.4102 351.31C78.6326 352.429 78.5185 353.588 78.0822 354.642C77.6459 355.696 76.907 356.597 75.9591 357.23C75.0112 357.864 73.8967 358.202 72.7566 358.202C71.2278 358.202 69.7616 357.595 68.6805 356.513C67.7744 355.607 67.2012 354.429 67.0393 353.171H-142.275L-168 327.433V325.255Z" fill="#00C2FF"/>
</g>
</g>
</g>
<g style="mix-blend-mode:color-dodge">
<g style="mix-blend-mode:color-dodge">
<g style="mix-blend-mode:color-dodge">
<path fill-rule="evenodd" clip-rule="evenodd" d="M295.236 10.9721C295.236 14.1572 292.655 16.7393 289.471 16.7393C286.548 16.7393 284.132 14.5616 283.758 11.7389H144.84L33.9982 122.666H-93.0632L-165.302 194.94H-168V193.407H-165.915L-93.6764 121.132H33.3544L144.196 10.2051H283.758C284.132 7.38251 286.548 5.20483 289.471 5.20483C292.655 5.20483 295.236 7.78691 295.236 10.9721Z" fill="#00C2FF"/>
</g>
</g>
</g>
<g style="mix-blend-mode:color-dodge">
<g style="mix-blend-mode:color-dodge">
<g style="mix-blend-mode:color-dodge">
<path fill-rule="evenodd" clip-rule="evenodd" d="M301.809 181.925C301.587 183.044 301.039 184.072 300.233 184.878C299.148 185.954 297.682 186.557 296.155 186.557C294.883 186.557 293.653 186.138 292.651 185.377L210.854 267.215H-46.3657L-96.16 217.365H-168V215.831H-95.5468L-45.7218 265.681H210.21L291.563 184.288C291.036 183.594 290.672 182.787 290.501 181.925C290.279 180.807 290.394 179.648 290.83 178.594C291.266 177.541 292.005 176.64 292.953 176.007C293.901 175.373 295.015 175.035 296.155 175.035C297.295 175.035 298.409 175.373 299.357 176.007C300.305 176.64 301.044 177.541 301.48 178.594C301.916 179.648 302.031 180.807 301.809 181.925Z" fill="#00C2FF"/>
</g>
</g>
</g>
<g style="mix-blend-mode:color-dodge">
<g style="mix-blend-mode:color-dodge">
<g style="mix-blend-mode:color-dodge">
<path fill-rule="evenodd" clip-rule="evenodd" d="M-76.8935 175.951C-77.01 175.083 -77.3234 174.249 -77.8138 173.514C-78.4472 172.566 -79.3475 171.827 -80.4008 171.39C-81.4541 170.954 -82.6131 170.839 -83.7313 171.062C-84.8495 171.285 -85.8766 171.834 -86.6827 172.64C-87.4889 173.447 -88.0379 174.475 -88.2603 175.593C-88.4828 176.712 -88.3686 177.872 -87.9323 178.925C-87.496 179.979 -86.7572 180.88 -85.8092 181.514C-84.8613 182.147 -83.7468 182.486 -82.6067 182.486C-81.0779 182.486 -79.6117 181.878 -78.5307 180.796C-77.632 179.897 -77.0606 178.732 -76.8935 177.485H63.8934L153.548 87.7558H272.484L310.263 125.554C309.965 125.945 309.718 126.374 309.529 126.831C309.239 127.528 309.09 128.276 309.09 129.031C309.09 129.787 309.239 130.535 309.529 131.232C309.818 131.93 310.243 132.563 310.778 133.096C311.582 133.906 312.609 134.459 313.728 134.685C314.848 134.911 316.009 134.799 317.064 134.363C318.12 133.928 319.022 133.189 319.657 132.239C320.292 131.29 320.631 130.174 320.631 129.031C320.631 127.889 320.292 126.773 319.657 125.823C319.022 124.874 318.12 124.135 317.064 123.7C316.009 123.264 314.848 123.152 313.728 123.378C312.86 123.553 312.046 123.925 311.349 124.462L273.128 86.2219H152.935L63.2495 175.951H-76.8935Z" fill="#00C2FF"/>
</g>
</g>
</g>
<g style="mix-blend-mode:color-dodge">
<g style="mix-blend-mode:color-dodge">
<g style="mix-blend-mode:color-dodge">
<path fill-rule="evenodd" clip-rule="evenodd" d="M250.334 150.377C249.386 151.011 248.272 151.349 247.132 151.349C245.603 151.349 244.137 150.741 243.056 149.66C242.149 148.753 241.576 147.576 241.414 146.318H187.183L118.685 214.881H-27.096C-27.471 217.703 -29.8862 219.881 -32.8098 219.881C-35.9934 219.881 -38.5742 217.299 -38.5742 214.113C-38.5742 210.928 -35.9934 208.346 -32.8098 208.346C-29.8861 208.346 -27.4707 210.524 -27.0959 213.347H118.041L186.539 144.784H241.423C241.542 143.927 241.854 143.103 242.339 142.378C242.972 141.429 243.872 140.69 244.926 140.253C245.979 139.817 247.138 139.703 248.256 139.925C249.374 140.148 250.401 140.697 251.208 141.504C252.014 142.31 252.563 143.338 252.785 144.457C253.008 145.575 252.893 146.735 252.457 147.789C252.021 148.843 251.282 149.743 250.334 150.377Z" fill="#00C2FF"/>
</g>
</g>
</g>
<g style="mix-blend-mode:color-dodge">
<g style="mix-blend-mode:color-dodge">
<g style="mix-blend-mode:color-dodge">
<path fill-rule="evenodd" clip-rule="evenodd" d="M114.842 373.843C115.648 373.037 116.196 372.009 116.418 370.89C116.64 369.772 116.526 368.612 116.089 367.559C115.653 366.505 114.914 365.605 113.966 364.972C113.018 364.338 111.904 364 110.764 364C109.625 364 108.51 364.338 107.562 364.972C106.615 365.605 105.876 366.505 105.439 367.559C105.003 368.612 104.888 369.772 105.11 370.89C105.187 371.279 105.304 371.656 105.457 372.018L40.2617 416.015H-250V417H40.9046L106.032 373.061C106.226 373.339 106.445 373.601 106.686 373.843C107.772 374.919 109.237 375.522 110.764 375.522C112.292 375.522 113.757 374.919 114.842 373.843ZM-253.294 448.307C-252.346 448.941 -251.231 449.279 -250.091 449.279C-248.562 449.279 -247.096 448.672 -246.015 447.59C-244.934 446.508 -244.327 445.041 -244.327 443.512C-244.327 442.371 -244.665 441.256 -245.298 440.308C-245.932 439.359 -246.832 438.62 -247.885 438.184C-248.938 437.747 -250.097 437.633 -251.216 437.855C-252.334 438.078 -253.361 438.627 -254.167 439.434C-254.973 440.24 -255.522 441.268 -255.745 442.387C-255.967 443.505 -255.853 444.665 -255.417 445.719C-254.98 446.773 -254.242 447.673 -253.294 448.307Z" fill="#00C2FF"/>
</g>
</g>
</g>
<g style="mix-blend-mode:color-dodge">
<g style="mix-blend-mode:color-dodge">
<g style="mix-blend-mode:color-dodge">
<path fill-rule="evenodd" clip-rule="evenodd" d="M-168 426L-154.305 448.438H105.244C105.472 445.461 107.958 443.118 110.991 443.118C114.175 443.118 116.755 445.7 116.755 448.885C116.755 452.07 114.175 454.652 110.991 454.652C108.189 454.652 105.853 452.652 105.334 450H-154.706L-168 428.219V426Z" fill="#00C2FF"/>
</g>
</g>
</g>
<g style="mix-blend-mode:color-dodge">
<g style="mix-blend-mode:color-dodge">
<g style="mix-blend-mode:color-dodge">
<path fill-rule="evenodd" clip-rule="evenodd" d="M-208 460L-193.362 485.43H65.6974C65.7871 484.481 66.1108 483.566 66.6433 482.769C67.2767 481.82 68.177 481.081 69.2303 480.645C70.2836 480.208 71.4426 480.094 72.5608 480.316C73.679 480.539 74.7061 481.088 75.5123 481.895C76.3184 482.701 76.8674 483.729 77.0898 484.848C77.3123 485.966 77.1981 487.126 76.7618 488.18C76.3255 489.234 75.5867 490.134 74.6387 490.768C73.6908 491.402 72.5763 491.74 71.4362 491.74C69.9074 491.74 68.4413 491.132 67.3602 490.051C66.5244 489.215 65.9717 488.148 65.764 487H-193.724L-208 462.229V460Z" fill="#00C2FF"/>
</g>
</g>
</g>
<g style="mix-blend-mode:color-dodge">
<g style="mix-blend-mode:color-dodge">
<path fill-rule="evenodd" clip-rule="evenodd" d="M-168 776.572H-33.2732L82.1757 892.048C82.87 891.52 83.6777 891.155 84.5394 890.984C85.6573 890.762 86.8161 890.876 87.869 891.313C88.9221 891.75 89.822 892.489 90.4551 893.437C91.0883 894.386 91.4263 895.5 91.4263 896.641C91.4263 897.781 91.0883 898.896 90.4551 899.844C89.822 900.793 88.9221 901.532 87.869 901.968C86.8161 902.405 85.6573 902.52 84.5394 902.298C83.4214 902.076 82.3941 901.527 81.5878 900.721C80.513 899.635 79.9102 898.169 79.9102 896.641C79.9102 895.376 80.3231 894.154 81.0746 893.155L-33.9171 778.106H-168V776.572Z" fill="#00C2FF"/>
</g>
</g>
<g style="mix-blend-mode:color-dodge">
<g style="mix-blend-mode:color-dodge">
<g style="mix-blend-mode:color-dodge">
<path fill-rule="evenodd" clip-rule="evenodd" d="M15.6317 779.885C14.8261 779.078 14.2776 778.051 14.0557 776.932C13.8337 775.814 13.9482 774.654 14.3846 773.601C14.8211 772.547 15.5599 771.647 16.5078 771.014C17.4556 770.38 18.5698 770.042 19.7097 770.042C20.8495 770.042 21.9638 770.38 22.9116 771.014C23.8594 771.647 24.5983 772.547 25.0347 773.601C25.4712 774.654 25.5857 775.814 25.3637 776.932C25.19 777.807 24.8164 778.627 24.2762 779.329L96.887 851.976H303.039C303.4 849.138 305.822 846.945 308.757 846.945C311.94 846.945 314.521 849.527 314.521 852.712C314.521 855.897 311.94 858.479 308.757 858.479C305.843 858.479 303.435 856.317 303.047 853.509H96.2431L23.1961 780.397C22.197 781.15 20.9745 781.564 19.7097 781.564C18.1824 781.564 16.7168 780.961 15.6317 779.885Z" fill="#00C2FF"/>
</g>
</g>
</g>
<path d="M25.5 382C130.158 382 215 371.255 215 358C215 344.745 130.158 334 25.5 334C-79.158 334 -164 344.745 -164 358C-164 371.255 -79.158 382 25.5 382Z" fill="url(#paint2_radial)" fill-opacity="0.4"/>
<path d="M204.5 717C309.158 717 394 706.255 394 693C394 679.745 309.158 669 204.5 669C99.842 669 15 679.745 15 693C15 706.255 99.842 717 204.5 717Z" fill="url(#paint3_radial)" fill-opacity="0.4"/>
<g style="mix-blend-mode:color-dodge">
<g style="mix-blend-mode:color-dodge">
<path d="M1904.17 -148.332L1927 -171.147H1924.74L1902.58 -148.999V290.343H1904.17V-148.332Z" fill="#00C2FF"/>
</g>
</g>
<g style="mix-blend-mode:color-dodge">
<g style="mix-blend-mode:color-dodge">
<path d="M1897.39 290.025C1897.39 293.325 1900.07 295.999 1903.37 295.999C1906.67 295.999 1909.35 293.325 1909.35 290.025C1909.35 286.726 1906.67 284.051 1903.37 284.051C1900.07 284.051 1897.39 286.726 1897.39 290.025Z" fill="#00C2FF"/>
</g>
</g>
<g style="mix-blend-mode:color-dodge">
<g style="mix-blend-mode:color-dodge">
<g style="mix-blend-mode:color-dodge">
<path d="M1681.12 -152.289L1635.59 -197.761V-265H1634V-197.125L1679.54 -151.621V191.851H1681.12V-152.289Z" fill="#00C2FF"/>
</g>
</g>
<g style="mix-blend-mode:color-dodge">
<g style="mix-blend-mode:color-dodge">
<path d="M1674.35 191.567C1674.35 192.748 1674.7 193.903 1675.36 194.886C1676.02 195.868 1676.95 196.634 1678.04 197.086C1679.14 197.538 1680.34 197.656 1681.5 197.426C1682.66 197.195 1683.72 196.626 1684.56 195.791C1685.39 194.955 1685.96 193.891 1686.19 192.732C1686.42 191.573 1686.31 190.372 1685.85 189.28C1685.4 188.189 1684.63 187.256 1683.65 186.599C1682.67 185.943 1681.51 185.593 1680.33 185.593C1678.75 185.593 1677.22 186.222 1676.1 187.342C1674.98 188.463 1674.35 189.982 1674.35 191.567Z" fill="#00C2FF"/>
</g>
</g>
</g>
<g style="mix-blend-mode:color-dodge">
<g style="mix-blend-mode:color-dodge">
<g style="mix-blend-mode:color-dodge">
<path d="M1791.81 26.5472V-265.161L1721.41 -335.514V-395H1719.82V-334.847L1790.22 -264.526V25.9117L1704.37 111.676L1705.51 112.82L1791.81 26.5472Z" fill="#00C2FF"/>
</g>
</g>
<g style="mix-blend-mode:color-dodge">
<g style="mix-blend-mode:color-dodge">
<path d="M1699.18 112.025C1699.18 115.325 1701.86 117.999 1705.16 117.999C1708.46 117.999 1711.14 115.325 1711.14 112.025C1711.14 108.726 1708.46 106.051 1705.16 106.051C1701.86 106.051 1699.18 108.726 1699.18 112.025Z" fill="#00C2FF"/>
</g>
</g>
</g>
<g style="mix-blend-mode:color-dodge">
<g style="mix-blend-mode:color-dodge">
<g style="mix-blend-mode:color-dodge">
<path d="M1781.93 174.31V105.641H1780.34V174.31H1781.93Z" fill="#00C2FF"/>
</g>
</g>
<g style="mix-blend-mode:color-dodge">
<g style="mix-blend-mode:color-dodge">
<path d="M1775.12 105.96C1775.12 104.779 1775.47 103.624 1776.13 102.641C1776.79 101.659 1777.72 100.893 1778.81 100.441C1779.9 99.9886 1781.11 99.8703 1782.27 100.101C1783.43 100.331 1784.49 100.9 1785.33 101.736C1786.16 102.571 1786.73 103.636 1786.96 104.795C1787.19 105.953 1787.08 107.155 1786.62 108.246C1786.17 109.338 1785.4 110.271 1784.42 110.927C1783.44 111.584 1782.28 111.934 1781.1 111.934C1779.51 111.934 1777.99 111.305 1776.87 110.184C1775.75 109.064 1775.12 107.544 1775.12 105.96Z" fill="#00C2FF"/>
</g>
</g>
<g style="mix-blend-mode:color-dodge">
<g style="mix-blend-mode:color-dodge">
<path d="M1775.12 174.025C1775.12 175.207 1775.47 176.362 1776.13 177.344C1776.79 178.327 1777.72 179.092 1778.81 179.545C1779.9 179.997 1781.11 180.115 1782.27 179.884C1783.43 179.654 1784.49 179.085 1785.33 178.25C1786.16 177.414 1786.73 176.35 1786.96 175.191C1787.19 174.032 1787.08 172.831 1786.62 171.739C1786.17 170.647 1785.4 169.714 1784.42 169.058C1783.44 168.402 1782.28 168.051 1781.1 168.051C1779.51 168.051 1777.99 168.681 1776.87 169.801C1775.75 170.921 1775.12 172.441 1775.12 174.025Z" fill="#00C2FF"/>
</g>
</g>
</g>
<g style="mix-blend-mode:color-dodge">
<g style="mix-blend-mode:color-dodge">
<g style="mix-blend-mode:color-dodge">
<path d="M1874.56 -112.132L1897 -137H1894.78L1873 -112.86V366H1874.56V-112.132Z" fill="#00C2FF"/>
</g>
</g>
<g style="mix-blend-mode:color-dodge">
<g style="mix-blend-mode:color-dodge">
<path d="M1867.51 366.172C1867.51 369.472 1870.19 372.146 1873.49 372.146C1876.79 372.146 1879.47 369.472 1879.47 366.172C1879.47 362.873 1876.79 360.198 1873.49 360.198C1870.19 360.198 1867.51 362.873 1867.51 366.172Z" fill="#00C2FF"/>
</g>
</g>
</g>
<g style="mix-blend-mode:color-dodge">
<g style="mix-blend-mode:color-dodge">
<g style="mix-blend-mode:color-dodge">
<path d="M1832.89 -103.346L1858.65 -137H1856.39L1831.3 -104.178V497.552H1832.89V-103.346Z" fill="#00C2FF"/>
</g>
</g>
<g style="mix-blend-mode:color-dodge">
<g style="mix-blend-mode:color-dodge">
<path d="M1826.07 495.358C1826.07 496.545 1826.43 497.705 1827.09 498.691C1827.74 499.678 1828.68 500.447 1829.78 500.901C1830.87 501.355 1832.08 501.474 1833.24 501.243C1834.41 501.011 1835.48 500.44 1836.32 499.601C1837.16 498.761 1837.73 497.692 1837.96 496.528C1838.19 495.365 1838.07 494.158 1837.62 493.062C1837.16 491.965 1836.39 491.028 1835.41 490.369C1834.42 489.71 1833.26 489.358 1832.07 489.358C1830.48 489.358 1828.96 489.99 1827.83 491.115C1826.71 492.241 1826.07 493.767 1826.07 495.358Z" fill="#00C2FF"/>
</g>
</g>
</g>
<g style="mix-blend-mode:color-dodge">
<g style="mix-blend-mode:color-dodge">
<g style="mix-blend-mode:color-dodge">
<path d="M1471.1 1048.74L1381.2 1138.57V1318.07L1326.26 1372.98H1324L1379.61 1317.41V1137.93L1469.51 1048.1V885.69H1471.1V1048.74Z" fill="#00C2FF"/>
</g>
</g>
<g style="mix-blend-mode:color-dodge">
<g style="mix-blend-mode:color-dodge">
<path d="M1464.33 885.974C1464.33 884.792 1464.68 883.637 1465.33 882.655C1465.99 881.673 1466.92 880.907 1468.02 880.455C1469.11 880.003 1470.31 879.884 1471.47 880.115C1472.63 880.345 1473.69 880.914 1474.53 881.75C1475.37 882.585 1475.94 883.65 1476.17 884.809C1476.4 885.967 1476.28 887.169 1475.83 888.26C1475.37 889.352 1474.61 890.285 1473.62 890.941C1472.64 891.598 1471.49 891.948 1470.3 891.948C1468.72 891.948 1467.2 891.319 1466.08 890.198C1464.96 889.078 1464.33 887.558 1464.33 885.974Z" fill="#00C2FF"/>
</g>
</g>
<g style="mix-blend-mode:color-dodge">
<g style="mix-blend-mode:color-dodge">
<g style="mix-blend-mode:color-dodge">
<path d="M1410.82 1025.75L1320.93 1115.58V1295.09L1265.98 1350H1263.72L1319.34 1294.42V1114.95L1409.23 1025.12V862.706H1410.82V1025.75Z" fill="#00C2FF"/>
</g>
</g>
<g style="mix-blend-mode:color-dodge">
<g style="mix-blend-mode:color-dodge">
<path d="M1404.05 862.991C1404.05 861.809 1404.4 860.654 1405.06 859.672C1405.71 858.689 1406.65 857.924 1407.74 857.471C1408.83 857.019 1410.03 856.901 1411.19 857.131C1412.35 857.362 1413.42 857.931 1414.25 858.766C1415.09 859.602 1415.66 860.666 1415.89 861.825C1416.12 862.984 1416 864.185 1415.55 865.277C1415.1 866.368 1414.33 867.301 1413.35 867.958C1412.36 868.614 1411.21 868.965 1410.03 868.965C1408.44 868.965 1406.92 868.335 1405.8 867.215C1404.68 866.095 1404.05 864.575 1404.05 862.991Z" fill="#00C2FF"/>
</g>
</g>
</g>
<g style="mix-blend-mode:color-dodge">
<g style="mix-blend-mode:color-dodge">
<path fill-rule="evenodd" clip-rule="evenodd" d="M636.246 890.114C635.589 891.096 635.238 892.251 635.238 893.433C635.238 895.017 635.868 896.537 636.989 897.657C637.921 898.588 639.13 899.181 640.422 899.354V1236.62L594.887 1282.12V1350H596.477V1282.76L642.012 1237.29V899.354C642.912 899.233 643.776 898.908 644.537 898.4C645.521 897.743 646.287 896.81 646.739 895.719C647.192 894.627 647.31 893.426 647.079 892.267C646.849 891.108 646.279 890.044 645.443 889.209C644.607 888.373 643.542 887.804 642.383 887.574C641.223 887.343 640.021 887.461 638.929 887.914C637.836 888.366 636.903 889.131 636.246 890.114Z" fill="#00C2FF"/>
</g>
</g>
<g style="mix-blend-mode:color-dodge">
<g style="mix-blend-mode:color-dodge">
<g style="mix-blend-mode:color-dodge">
<path d="M1057.36 1247.33L1126.29 1316.22V1350H1124.7V1316.86L1055.77 1247.96V1040.81H1057.36V1247.33Z" fill="#00C2FF"/>
</g>
</g>
<g style="mix-blend-mode:color-dodge">
<g style="mix-blend-mode:color-dodge">
<path d="M1050.58 1041.1C1050.58 1039.92 1050.93 1038.76 1051.59 1037.78C1052.25 1036.8 1053.18 1036.03 1054.27 1035.58C1055.37 1035.13 1056.57 1035.01 1057.73 1035.24C1058.89 1035.47 1059.95 1036.04 1060.79 1036.88C1061.62 1037.71 1062.19 1038.78 1062.42 1039.93C1062.65 1041.09 1062.54 1042.29 1062.08 1043.39C1061.63 1044.48 1060.87 1045.41 1059.88 1046.07C1058.9 1046.72 1057.74 1047.07 1056.56 1047.07C1054.98 1047.07 1053.46 1046.44 1052.33 1045.32C1051.21 1044.2 1050.58 1042.68 1050.58 1041.1Z" fill="#00C2FF"/>
</g>
</g>
</g>
<g style="mix-blend-mode:color-dodge">
<g style="mix-blend-mode:color-dodge">
<g style="mix-blend-mode:color-dodge">
<path d="M697.654 1247.77L631.61 1313.74V1350H630.02V1313.11L696.064 1247.11V988.669H697.654V1247.77Z" fill="#00C2FF"/>
</g>
</g>
<g style="mix-blend-mode:color-dodge">
<g style="mix-blend-mode:color-dodge">
<path d="M690.883 988.954C690.883 985.655 693.559 982.98 696.861 982.98C700.162 982.98 702.839 985.655 702.839 988.954C702.839 992.253 700.162 994.928 696.861 994.928C693.559 994.928 690.883 992.253 690.883 988.954Z" fill="#00C2FF"/>
</g>
</g>
</g>
<g style="mix-blend-mode:color-dodge">
<g style="mix-blend-mode:color-dodge">
<g style="mix-blend-mode:color-dodge">
<path d="M1050.11 1009.39L982.66 1076.78V1350H981.07V1076.12L1048.96 1008.24L1050.11 1009.39Z" fill="#00C2FF"/>
</g>
</g>
<g style="mix-blend-mode:color-dodge">
<g style="mix-blend-mode:color-dodge">
<path d="M1045.08 1004.78C1045.92 1003.95 1046.98 1003.38 1048.14 1003.15C1049.3 1002.92 1050.5 1003.04 1051.6 1003.49C1052.69 1003.94 1053.62 1004.71 1054.28 1005.69C1054.93 1006.67 1055.29 1007.82 1055.29 1009.01C1055.29 1010.19 1054.93 1011.34 1054.28 1012.32C1053.62 1013.31 1052.69 1014.07 1051.6 1014.52C1050.5 1014.98 1049.3 1015.1 1048.14 1014.87C1046.98 1014.64 1045.92 1014.07 1045.08 1013.23C1043.97 1012.11 1043.34 1010.59 1043.34 1009.01C1043.34 1007.42 1043.97 1005.9 1045.08 1004.78Z" fill="#00C2FF"/>
</g>
</g>
</g>
<g style="mix-blend-mode:color-dodge">
<g style="mix-blend-mode:color-dodge">
<g style="mix-blend-mode:color-dodge">
<path fill-rule="evenodd" clip-rule="evenodd" d="M752.698 1220.16V928.452L670.809 846.588C671.573 845.584 672.026 844.332 672.026 842.974C672.026 839.675 669.35 837 666.048 837C662.747 837 660.07 839.675 660.07 842.974C660.07 846.273 662.747 848.948 666.048 848.948C667.408 848.948 668.662 848.494 669.666 847.73L751.108 929.088V1219.52L680.708 1289.85V1350H682.298V1290.51L752.698 1220.16Z" fill="#00C2FF"/>
</g>
</g>
</g>
<g style="mix-blend-mode:color-dodge">
<g style="mix-blend-mode:color-dodge">
<g style="mix-blend-mode:color-dodge">
<path d="M902.246 1276.26L926.031 1300H923.774L900.656 1276.9V864.343H902.246V1276.26Z" fill="#00C2FF"/>
</g>
</g>
<g style="mix-blend-mode:color-dodge">
<g style="mix-blend-mode:color-dodge">
<path d="M895.473 864.596C895.473 863.415 895.823 862.26 896.48 861.277C897.137 860.295 898.071 859.529 899.163 859.077C900.255 858.625 901.457 858.506 902.617 858.737C903.777 858.967 904.842 859.536 905.678 860.372C906.514 861.207 907.083 862.272 907.314 863.431C907.544 864.589 907.426 865.791 906.974 866.882C906.521 867.974 905.755 868.907 904.772 869.563C903.789 870.22 902.633 870.57 901.451 870.57C899.865 870.57 898.345 869.941 897.224 868.82C896.102 867.7 895.473 866.181 895.473 864.596Z" fill="#00C2FF"/>
</g>
</g>
</g>
<g style="mix-blend-mode:color-dodge">
<g style="mix-blend-mode:color-dodge">
<g style="mix-blend-mode:color-dodge">
<path d="M1076.97 919.493V988.162H1075.38V919.493H1076.97Z" fill="#00C2FF"/>
</g>
</g>
<g style="mix-blend-mode:color-dodge">
<g style="mix-blend-mode:color-dodge">
<path d="M1070.17 987.843C1070.17 989.024 1070.52 990.179 1071.18 991.162C1071.83 992.144 1072.77 992.91 1073.86 993.362C1074.95 993.814 1076.15 993.932 1077.31 993.702C1078.47 993.471 1079.54 992.902 1080.37 992.067C1081.21 991.231 1081.78 990.167 1082.01 989.008C1082.24 987.849 1082.12 986.648 1081.67 985.557C1081.22 984.465 1080.45 983.532 1079.47 982.875C1078.49 982.219 1077.33 981.869 1076.15 981.869C1074.56 981.869 1073.04 982.498 1071.92 983.618C1070.8 984.739 1070.17 986.258 1070.17 987.843Z" fill="#00C2FF"/>
</g>
</g>
<g style="mix-blend-mode:color-dodge">
<g style="mix-blend-mode:color-dodge">
<path d="M1070.17 919.777C1070.17 918.596 1070.52 917.441 1071.18 916.459C1071.83 915.476 1072.77 914.71 1073.86 914.258C1074.95 913.806 1076.15 913.688 1077.31 913.918C1078.47 914.149 1079.54 914.718 1080.37 915.553C1081.21 916.389 1081.78 917.453 1082.01 918.612C1082.24 919.771 1082.12 920.972 1081.67 922.064C1081.22 923.155 1080.45 924.088 1079.47 924.745C1078.49 925.401 1077.33 925.751 1076.15 925.751C1074.56 925.751 1073.04 925.122 1071.92 924.002C1070.8 922.881 1070.17 921.362 1070.17 919.777Z" fill="#00C2FF"/>
</g>
</g>
</g>
<g style="mix-blend-mode:color-dodge">
<g style="mix-blend-mode:color-dodge">
<g style="mix-blend-mode:color-dodge">
<path fill-rule="evenodd" clip-rule="evenodd" d="M736.004 859.039C736.004 860.221 736.355 861.376 737.011 862.358C737.668 863.341 738.602 864.106 739.694 864.558C740.787 865.011 741.989 865.129 743.148 864.898C744.308 864.668 745.373 864.099 746.209 863.263C747.045 862.428 747.614 861.363 747.845 860.205C748.076 859.046 747.957 857.845 747.505 856.753C747.052 855.661 746.286 854.728 745.303 854.072C744.551 853.57 743.697 853.246 742.808 853.122V796.891C743.697 796.767 744.551 796.444 745.303 795.941C746.286 795.285 747.052 794.352 747.505 793.26C747.957 792.169 748.076 790.967 747.845 789.809C747.614 788.65 747.045 787.585 746.209 786.75C745.373 785.914 744.308 785.345 743.148 785.115C741.989 784.884 740.787 785.003 739.694 785.455C738.602 785.907 737.668 786.673 737.011 787.655C736.355 788.637 736.004 789.792 736.004 790.974C736.004 792.558 736.634 794.078 737.755 795.198C738.694 796.137 739.914 796.731 741.218 796.899V853.114C739.914 853.282 738.694 853.876 737.755 854.815C736.634 855.935 736.004 857.455 736.004 859.039Z" fill="#00C2FF"/>
</g>
</g>
</g>
<g style="mix-blend-mode:color-dodge">
<g style="mix-blend-mode:color-dodge">
<g style="mix-blend-mode:color-dodge">
<path d="M1370.18 1026.45L1255.2 1141.32V1272.97L1180.29 1347.84V1350H1178.7V1347.2L1253.61 1272.34V1140.66L1368.59 1025.78V875.608H1370.18V1026.45Z" fill="#00C2FF"/>
</g>
</g>
<g style="mix-blend-mode:color-dodge">
<g style="mix-blend-mode:color-dodge">
<path d="M1363.41 875.893C1363.41 872.594 1366.09 869.919 1369.39 869.919C1372.69 869.919 1375.37 872.594 1375.37 875.893C1375.37 879.192 1372.69 881.867 1369.39 881.867C1366.09 881.867 1363.41 879.192 1363.41 875.893Z" fill="#00C2FF"/>
</g>
</g>
</g>
<g style="mix-blend-mode:color-dodge">
<g style="mix-blend-mode:color-dodge">
<g style="mix-blend-mode:color-dodge">
<path d="M1194.12 869.348L1105.37 958.036V1223.27L1157.04 1274.91V1350H1155.45V1275.55L1103.78 1223.94V957.369L1193 868.204L1194.12 869.348Z" fill="#00C2FF"/>
</g>
</g>
<g style="mix-blend-mode:color-dodge">
<g style="mix-blend-mode:color-dodge">
<path d="M1189.13 864.74C1189.96 863.905 1191.03 863.337 1192.19 863.107C1193.35 862.877 1194.55 862.995 1195.64 863.448C1196.73 863.9 1197.66 864.666 1198.32 865.648C1198.98 866.63 1199.33 867.785 1199.33 868.966C1199.33 870.148 1198.98 871.303 1198.32 872.285C1197.66 873.267 1196.73 874.033 1195.64 874.485C1194.55 874.937 1193.35 875.056 1192.19 874.826C1191.03 874.596 1189.96 874.028 1189.13 873.193C1188.01 872.068 1187.39 870.549 1187.39 868.966C1187.39 867.384 1188.01 865.865 1189.13 864.74Z" fill="#00C2FF"/>
</g>
</g>
</g>
<g style="mix-blend-mode:color-dodge">
<g style="mix-blend-mode:color-dodge">
<g style="mix-blend-mode:color-dodge">
<path d="M1196.79 1109.67V1261.82H1198.38V1110.34L1291.39 1017.39V892.83L1247.38 848.852L1246.27 849.996L1289.8 893.498V1016.76L1196.79 1109.67Z" fill="#00C2FF"/>
</g>
</g>
<g style="mix-blend-mode:color-dodge">
<g style="mix-blend-mode:color-dodge">
<path d="M1242.8 853.809C1241.96 852.975 1241.39 851.911 1241.15 850.751C1240.92 849.591 1241.04 848.388 1241.49 847.294C1241.94 846.2 1242.7 845.265 1243.69 844.607C1244.67 843.948 1245.83 843.597 1247.01 843.597C1248.2 843.597 1249.36 843.948 1250.34 844.607C1251.32 845.265 1252.09 846.2 1252.54 847.294C1252.99 848.388 1253.11 849.591 1252.87 850.751C1252.64 851.911 1252.07 852.975 1251.23 853.809C1250.67 854.363 1250.02 854.803 1249.3 855.103C1248.57 855.404 1247.8 855.558 1247.01 855.558C1246.23 855.558 1245.46 855.404 1244.73 855.103C1244.01 854.803 1243.35 854.363 1242.8 853.809Z" fill="#00C2FF"/>
</g>
</g>
</g>
<g style="mix-blend-mode:color-dodge">
<g style="mix-blend-mode:color-dodge">
<g style="mix-blend-mode:color-dodge">
<path d="M1158.03 1052.89V1210.18H1159.62V1053.56L1230.68 982.567V919.491H1229.09V981.9L1158.03 1052.89Z" fill="#00C2FF"/>
</g>
</g>
<g style="mix-blend-mode:color-dodge">
<g style="mix-blend-mode:color-dodge">
<path d="M1223.88 919.773C1223.88 918.592 1224.23 917.437 1224.89 916.454C1225.54 915.472 1226.48 914.706 1227.57 914.254C1228.66 913.802 1229.86 913.684 1231.02 913.914C1232.18 914.145 1233.25 914.714 1234.09 915.549C1234.92 916.385 1235.49 917.449 1235.72 918.608C1235.95 919.767 1235.83 920.968 1235.38 922.059C1234.93 923.151 1234.16 924.084 1233.18 924.741C1232.2 925.397 1231.04 925.747 1229.86 925.747C1228.27 925.747 1226.75 925.118 1225.63 923.998C1224.51 922.877 1223.88 921.358 1223.88 919.773Z" fill="#00C2FF"/>
</g>
</g>
</g>
<g style="mix-blend-mode:color-dodge">
<g style="mix-blend-mode:color-dodge">
<g style="mix-blend-mode:color-dodge">
<path d="M961.703 967.699V1269.58H963.293V968.366L1077.89 853.844L1076.75 852.732L961.703 967.699Z" fill="#00C2FF"/>
</g>
</g>
<g style="mix-blend-mode:color-dodge">
<g style="mix-blend-mode:color-dodge">
<path d="M1072.87 849.267C1073.71 848.432 1074.77 847.864 1075.93 847.634C1077.09 847.404 1078.29 847.522 1079.39 847.975C1080.48 848.427 1081.41 849.193 1082.07 850.175C1082.72 851.157 1083.07 852.312 1083.07 853.493C1083.07 854.675 1082.72 855.829 1082.07 856.812C1081.41 857.794 1080.48 858.56 1079.39 859.012C1078.29 859.464 1077.09 859.583 1075.93 859.353C1074.77 859.123 1073.71 858.554 1072.87 857.72C1071.76 856.595 1071.13 855.076 1071.13 853.493C1071.13 851.91 1071.76 850.392 1072.87 849.267Z" fill="#00C2FF"/>
</g>
</g>
</g>
<g style="mix-blend-mode:color-dodge">
<g style="mix-blend-mode:color-dodge">
<g style="mix-blend-mode:color-dodge">
<path fill-rule="evenodd" clip-rule="evenodd" d="M867.999 1180L845.168 1157.18V724.748C848.094 724.36 850.351 721.857 850.351 718.827C850.351 715.527 847.674 712.853 844.373 712.853C841.071 712.853 838.395 715.527 838.395 718.827C838.395 721.857 840.652 724.36 843.578 724.749V1157.85L865.741 1180H867.999Z" fill="#00C2FF"/>
</g>
</g>
</g>
<g style="mix-blend-mode:color-dodge">
<g style="mix-blend-mode:color-dodge">
<g style="mix-blend-mode:color-dodge">
<path d="M793.777 1224.7L819.533 1250.41H817.275L792.188 1225.34V765.689H793.777V1224.7Z" fill="#00C2FF"/>
</g>
</g>
<g style="mix-blend-mode:color-dodge">
<g style="mix-blend-mode:color-dodge">
<path d="M787.004 765.974C787.004 764.792 787.355 763.637 788.011 762.655C788.668 761.672 789.602 760.907 790.694 760.455C791.787 760.002 792.989 759.884 794.148 760.115C795.308 760.345 796.373 760.914 797.209 761.75C798.045 762.585 798.614 763.649 798.845 764.808C799.076 765.967 798.957 767.168 798.505 768.26C798.052 769.352 797.286 770.285 796.303 770.941C795.32 771.597 794.164 771.948 792.982 771.948C791.396 771.948 789.876 771.318 788.755 770.198C787.634 769.078 787.004 767.558 787.004 765.974Z" fill="#00C2FF"/>
</g>
</g>
</g>
<g style="mix-blend-mode:color-dodge">
<g style="mix-blend-mode:color-dodge">
<g style="mix-blend-mode:color-dodge">
<path fill-rule="evenodd" clip-rule="evenodd" d="M497.649 861.833C500.589 861.458 502.862 858.948 502.862 855.908C502.862 852.608 500.186 849.934 496.884 849.934C493.583 849.934 490.906 852.608 490.906 855.908C490.906 858.927 493.148 861.423 496.059 861.825V1076.15L576.253 1156.26L577.366 1155.14L497.649 1075.48V861.833Z" fill="#00C2FF"/>
</g>
</g>
</g>
<path style="mix-blend-mode:color-dodge" d="M817 778.5C817 673.842 806.255 589 793 589C779.745 589 769 673.842 769 778.5C769 883.158 779.745 968 793 968C806.255 968 817 883.158 817 778.5Z" fill="url(#paint4_radial)" fill-opacity="0.4"/>
<path style="mix-blend-mode:color-dodge" d="M1687 882.5C1687 777.842 1676.25 693 1663 693C1649.75 693 1639 777.842 1639 882.5C1639 987.158 1649.75 1072 1663 1072C1676.25 1072 1687 987.158 1687 882.5Z" fill="url(#paint5_radial)" fill-opacity="0.4"/>
<path style="mix-blend-mode:color-dodge" d="M1888 732.5C1888 627.842 1877.25 543 1864 543C1850.75 543 1840 627.842 1840 732.5C1840 837.158 1850.75 922 1864 922C1877.25 922 1888 837.158 1888 732.5Z" fill="url(#paint6_radial)" fill-opacity="0.4"/>
<g style="mix-blend-mode:color-dodge">
<g style="mix-blend-mode:color-dodge">
<g style="mix-blend-mode:color-dodge">
<path d="M1663 1223.29L1617.47 1268.76V1336H1615.88V1268.12L1661.41 1222.62V879.148H1663V1223.29Z" fill="#00C2FF"/>
</g>
</g>
<g style="mix-blend-mode:color-dodge">
<g style="mix-blend-mode:color-dodge">
<path d="M1656.23 879.433C1656.23 878.251 1656.58 877.096 1657.24 876.114C1657.9 875.131 1658.83 874.366 1659.92 873.914C1661.01 873.461 1662.22 873.343 1663.38 873.574C1664.54 873.804 1665.6 874.373 1666.44 875.209C1667.27 876.044 1667.84 877.108 1668.07 878.267C1668.3 879.426 1668.18 880.627 1667.73 881.719C1667.28 882.81 1666.51 883.743 1665.53 884.4C1664.55 885.056 1663.39 885.407 1662.21 885.407C1660.62 885.407 1659.1 884.777 1657.98 883.657C1656.86 882.537 1656.23 881.017 1656.23 879.433Z" fill="#00C2FF"/>
</g>
</g>
</g>
<g style="mix-blend-mode:color-dodge">
<g style="mix-blend-mode:color-dodge">
<g style="mix-blend-mode:color-dodge">
<path fill-rule="evenodd" clip-rule="evenodd" d="M1717.86 968.98C1714.56 968.98 1711.88 971.655 1711.88 974.954C1711.88 977.984 1714.14 980.487 1717.06 980.876V1233.11L1651.02 1299.11V1336H1652.61V1299.74L1718.65 1233.77V980.876C1721.58 980.487 1723.84 977.984 1723.84 974.954C1723.84 971.655 1721.16 968.98 1717.86 968.98Z" fill="#00C2FF"/>
</g>
</g>
</g>
<g style="mix-blend-mode:color-dodge">
<g style="mix-blend-mode:color-dodge">
<g style="mix-blend-mode:color-dodge">
<path d="M1773.7 914.452V1206.16L1703.29 1276.51V1336H1701.7V1275.85L1772.11 1205.52V915.088L1686.25 829.323L1687.4 828.179L1773.7 914.452Z" fill="#00C2FF"/>
</g>
</g>
<g style="mix-blend-mode:color-dodge">
<g style="mix-blend-mode:color-dodge">
<path d="M1681.07 828.974C1681.07 825.675 1683.74 823 1687.05 823C1690.35 823 1693.02 825.675 1693.02 828.974C1693.02 832.273 1690.35 834.948 1687.05 834.948C1683.74 834.948 1681.07 832.273 1681.07 828.974Z" fill="#00C2FF"/>
</g>
</g>
</g>
<g style="mix-blend-mode:color-dodge">
<g style="mix-blend-mode:color-dodge">
<g style="mix-blend-mode:color-dodge">
<path fill-rule="evenodd" clip-rule="evenodd" d="M1927.03 1286L1903.24 1262.26V856.517C1904.14 856.396 1905.01 856.072 1905.77 855.563C1906.75 854.907 1907.52 853.974 1907.97 852.882C1908.42 851.791 1908.54 850.589 1908.31 849.431C1908.08 848.272 1907.51 847.207 1906.67 846.372C1905.84 845.536 1904.77 844.967 1903.61 844.737C1902.45 844.506 1901.25 844.625 1900.16 845.077C1899.07 845.529 1898.13 846.295 1897.48 847.277C1896.82 848.26 1896.47 849.415 1896.47 850.596C1896.47 852.181 1897.1 853.7 1898.22 854.82C1899.15 855.752 1900.36 856.344 1901.65 856.517V1262.9L1924.77 1286H1927.03Z" fill="#00C2FF"/>
</g>
</g>
</g>
<g style="mix-blend-mode:color-dodge">
<g style="mix-blend-mode:color-dodge">
<g style="mix-blend-mode:color-dodge">
<path fill-rule="evenodd" clip-rule="evenodd" d="M1757 845.039C1757 846.221 1757.35 847.376 1758.01 848.358C1758.67 849.341 1759.6 850.106 1760.69 850.558C1761.78 851.011 1762.99 851.129 1764.15 850.898C1765.3 850.668 1766.37 850.099 1767.21 849.263C1768.04 848.428 1768.61 847.363 1768.84 846.205C1769.07 845.046 1768.95 843.845 1768.5 842.753C1768.05 841.661 1767.28 840.728 1766.3 840.072C1765.55 839.57 1764.69 839.246 1763.8 839.122V782.891C1764.69 782.767 1765.55 782.444 1766.3 781.941C1767.28 781.285 1768.05 780.352 1768.5 779.26C1768.95 778.169 1769.07 776.967 1768.84 775.809C1768.61 774.65 1768.04 773.585 1767.21 772.75C1766.37 771.914 1765.3 771.345 1764.15 771.115C1762.99 770.884 1761.78 771.003 1760.69 771.455C1759.6 771.907 1758.67 772.673 1758.01 773.655C1757.35 774.637 1757 775.792 1757 776.974C1757 778.558 1757.63 780.078 1758.75 781.198C1759.69 782.137 1760.91 782.731 1762.21 782.899V839.114C1760.91 839.282 1759.69 839.876 1758.75 840.815C1757.63 841.935 1757 843.455 1757 845.039Z" fill="#00C2FF"/>
</g>
</g>
</g>
<g style="mix-blend-mode:color-dodge">
<g style="mix-blend-mode:color-dodge">
<g style="mix-blend-mode:color-dodge">
<path d="M1866.17 1143.18L1889 1166H1886.74L1864.58 1143.85V704.509H1866.17V1143.18Z" fill="#00C2FF"/>
</g>
</g>
<g style="mix-blend-mode:color-dodge">
<g style="mix-blend-mode:color-dodge">
<path d="M1859.39 704.827C1859.39 701.527 1862.07 698.853 1865.37 698.853C1868.67 698.853 1871.35 701.527 1871.35 704.827C1871.35 708.126 1868.67 710.801 1865.37 710.801C1862.07 710.801 1859.39 708.126 1859.39 704.827Z" fill="#00C2FF"/>
</g>
</g>
</g>
<g style="mix-blend-mode:color-dodge">
<g style="mix-blend-mode:color-dodge">
<g style="mix-blend-mode:color-dodge">
<path d="M1814.77 1050.7L1840.53 1076.41H1838.27L1813.18 1051.34V591.689H1814.77V1050.7Z" fill="#00C2FF"/>
</g>
</g>
<g style="mix-blend-mode:color-dodge">
<g style="mix-blend-mode:color-dodge">
<path d="M1808 591.974C1808 590.792 1808.35 589.637 1809 588.655C1809.66 587.672 1810.6 586.907 1811.69 586.455C1812.78 586.002 1813.98 585.884 1815.14 586.115C1816.3 586.345 1817.37 586.914 1818.2 587.75C1819.04 588.585 1819.61 589.649 1819.84 590.808C1820.07 591.967 1819.95 593.168 1819.5 594.26C1819.05 595.352 1818.28 596.285 1817.3 596.941C1816.31 597.597 1815.16 597.948 1813.98 597.948C1812.39 597.948 1810.87 597.318 1809.75 596.198C1808.63 595.078 1808 593.558 1808 591.974Z" fill="#00C2FF"/>
</g>
</g>
</g>
<g style="mix-blend-mode:color-dodge">
<g style="mix-blend-mode:color-dodge">
<g style="mix-blend-mode:color-dodge">
<path d="M1607 1007.9V1126H1606.3V1008.47L1552 903.968L1552.5 903L1607 1007.9Z" fill="#00C2FF"/>
</g>
</g>
<g style="mix-blend-mode:color-dodge">
<g style="mix-blend-mode:color-dodge">
<path d="M1547.12 904.337C1546.28 903.501 1545.71 902.437 1545.48 901.278C1545.25 900.119 1545.37 898.919 1545.82 897.827C1546.28 896.736 1547.04 895.803 1548.03 895.147C1549.01 894.491 1550.16 894.141 1551.35 894.141C1552.53 894.141 1553.68 894.491 1554.67 895.147C1555.65 895.803 1556.42 896.736 1556.87 897.827C1557.32 898.919 1557.44 900.119 1557.21 901.278C1556.98 902.437 1556.41 903.501 1555.58 904.337C1554.45 905.451 1552.93 906.076 1551.35 906.076C1549.76 906.076 1548.24 905.451 1547.12 904.337Z" fill="#00C2FF"/>
</g>
</g>
</g>
<g style="mix-blend-mode:color-dodge">
<g style="mix-blend-mode:color-dodge">
<g style="mix-blend-mode:color-dodge">
<path d="M1517.05 841.587V1062.15L1597.25 1142.26L1598.36 1141.14L1518.64 1061.48V841.587H1517.05Z" fill="#00C2FF"/>
</g>
</g>
<g style="mix-blend-mode:color-dodge">
<g style="mix-blend-mode:color-dodge">
<path d="M1511.9 841.907C1511.9 838.608 1514.58 835.933 1517.88 835.933C1521.18 835.933 1523.86 838.608 1523.86 841.907C1523.86 845.207 1521.18 847.881 1517.88 847.881C1514.58 847.881 1511.9 845.207 1511.9 841.907Z" fill="#00C2FF"/>
</g>
</g>
</g>
</g>
<g style="mix-blend-mode:color-dodge">
<g style="mix-blend-mode:color-dodge">
<g style="mix-blend-mode:color-dodge">
<path d="M1582.49 26.5484L1467.51 -88.3237V-219.974L1392.59 -294.839V-297H1391V-294.204L1465.92 -219.338V-87.6563L1580.9 27.2157V177.392H1582.49V26.5484Z" fill="#00C2FF"/>
</g>
</g>
<g style="mix-blend-mode:color-dodge">
<g style="mix-blend-mode:color-dodge">
<path d="M1575.72 177.106C1575.72 180.406 1578.39 183.08 1581.69 183.08C1585 183.08 1587.67 180.406 1587.67 177.106C1587.67 173.807 1585 171.132 1581.69 171.132C1578.39 171.132 1575.72 173.807 1575.72 177.106Z" fill="#00C2FF"/>
</g>
</g>
</g>
<g style="mix-blend-mode:color-dodge">
<g style="mix-blend-mode:color-dodge">
<g style="mix-blend-mode:color-dodge">
<path fill-rule="evenodd" clip-rule="evenodd" d="M371.742 155.605C374.683 155.98 376.956 158.49 376.956 161.53C376.956 164.83 374.28 167.504 370.978 167.504C367.677 167.504 365 164.83 365 161.53C365 158.511 367.242 156.015 370.153 155.613V-58.7097L450.347 -138.818L451.46 -137.706L371.742 -58.0424V155.605Z" fill="#00C2FF"/>
</g>
</g>
</g>
<ellipse cx="461.5" cy="202" rx="68" ry="19.5" transform="rotate(-90 461.5 202)" fill="url(#paint7_radial)" fill-opacity="0.4"/>
<g style="mix-blend-mode:color-dodge">
<g style="mix-blend-mode:color-dodge">
<g style="mix-blend-mode:color-dodge">
<path fill-rule="evenodd" clip-rule="evenodd" d="M461.742 195.605C464.683 195.98 466.956 198.49 466.956 201.53C466.956 204.83 464.28 207.504 460.978 207.504C457.677 207.504 455 204.83 455 201.53C455 198.511 457.242 196.015 460.153 195.613V-18.7098L540.347 -98.8184L541.46 -97.7062L461.742 -18.0425V195.605Z" fill="#00C2FF"/>
</g>
</g>
</g>
<g style="mix-blend-mode:color-dodge">
<g style="mix-blend-mode:color-dodge">
<g style="mix-blend-mode:color-dodge">
<path d="M49.3811 985H-48V986.534H48.7372L184.139 1122L185.212 1120.93L49.3811 985Z" fill="#00C2FF"/>
</g>
</g>
</g>
<g style="mix-blend-mode:color-dodge">
<g style="mix-blend-mode:color-dodge">
<g style="mix-blend-mode:color-dodge">
<path fill-rule="evenodd" clip-rule="evenodd" d="M616.999 -89V12.0508L532.201 145.902C532.561 146.131 532.899 146.399 533.207 146.704C534.043 147.54 534.611 148.604 534.842 149.763C535.072 150.922 534.953 152.123 534.5 153.214C534.048 154.305 533.282 155.238 532.299 155.894C531.316 156.55 530.16 156.9 528.978 156.9C527.796 156.9 526.64 156.55 525.657 155.894C524.674 155.238 523.908 154.305 523.456 153.214C523.003 152.123 522.884 150.922 523.114 149.763C523.345 148.604 523.913 147.54 524.749 146.704C525.874 145.59 527.394 144.966 528.978 144.966C529.721 144.966 530.45 145.103 531.13 145.364L615.991 11.3826V-89H616.999Z" fill="#00C2FF"/>
</g>
</g>
</g>
<g style="mix-blend-mode:color-dodge">
<g style="mix-blend-mode:color-dodge">
<g style="mix-blend-mode:color-dodge">
<path fill-rule="evenodd" clip-rule="evenodd" d="M507.164 21.1566C507.164 19.9751 507.515 18.8201 508.172 17.8376C508.828 16.8552 509.762 16.0895 510.854 15.6374C511.947 15.1852 513.149 15.0669 514.308 15.2974C515.468 15.5279 516.533 16.0969 517.369 16.9324C518.205 17.7678 518.775 18.8323 519.005 19.9911C519.236 21.15 519.118 22.3512 518.665 23.4428C518.213 24.5344 517.446 25.4674 516.463 26.1238C515.711 26.6263 514.857 26.9494 513.968 27.0733V83.3051C514.857 83.429 515.711 83.7521 516.463 84.2546C517.446 84.911 518.213 85.844 518.665 86.9356C519.118 88.0272 519.236 89.2284 519.005 90.3872C518.775 91.5461 518.205 92.6106 517.369 93.446C516.533 94.2815 515.468 94.8505 514.308 95.081C513.149 95.3115 511.947 95.1932 510.854 94.741C509.762 94.2889 508.828 93.5232 508.172 92.5407C507.515 91.5583 507.164 90.4033 507.164 89.2218C507.164 87.6374 507.794 86.1179 508.915 84.9976C509.854 84.0588 511.074 83.4647 512.378 83.2968V27.0816C511.074 26.9137 509.854 26.3196 508.915 25.3809C507.794 24.2605 507.164 22.741 507.164 21.1566Z" fill="#00C2FF"/>
</g>
</g>
</g>
</g>
<defs>
<radialGradient id="paint0_radial" cx="0" cy="0" r="1" gradientUnits="userSpaceOnUse" gradientTransform="translate(1060.5 95) scale(19.5 68)">
<stop stop-color="#00C2FF"/>
<stop offset="0.529516" stop-color="#02FFE1" stop-opacity="0.16"/>
<stop offset="1" stop-color="#02FFE1" stop-opacity="0"/>
</radialGradient>
<radialGradient id="paint1_radial" cx="0" cy="0" r="1" gradientUnits="userSpaceOnUse" gradientTransform="translate(1366.5 95) scale(19.5 68)">
<stop stop-color="#00C2FF"/>
<stop offset="0.529516" stop-color="#02FFE1" stop-opacity="0.16"/>
<stop offset="1" stop-color="#02FFE1" stop-opacity="0"/>
</radialGradient>
<radialGradient id="paint2_radial" cx="0" cy="0" r="1" gradientUnits="userSpaceOnUse" gradientTransform="translate(25.5 358) rotate(90) scale(24 189.5)">
<stop stop-color="#00C2FF"/>
<stop offset="0.529516" stop-color="#02FFE1" stop-opacity="0.16"/>
<stop offset="1" stop-color="#02FFE1" stop-opacity="0"/>
</radialGradient>
<radialGradient id="paint3_radial" cx="0" cy="0" r="1" gradientUnits="userSpaceOnUse" gradientTransform="translate(204.5 693) rotate(90) scale(24 189.5)">
<stop stop-color="#00C2FF"/>
<stop offset="0.529516" stop-color="#02FFE1" stop-opacity="0.16"/>
<stop offset="1" stop-color="#02FFE1" stop-opacity="0"/>
</radialGradient>
<radialGradient id="paint4_radial" cx="0" cy="0" r="1" gradientUnits="userSpaceOnUse" gradientTransform="translate(793 778.5) scale(24 189.5)">
<stop stop-color="#00C2FF"/>
<stop offset="0.529516" stop-color="#02FFE1" stop-opacity="0.16"/>
<stop offset="1" stop-color="#02FFE1" stop-opacity="0"/>
</radialGradient>
<radialGradient id="paint5_radial" cx="0" cy="0" r="1" gradientUnits="userSpaceOnUse" gradientTransform="translate(1663 882.5) scale(24 189.5)">
<stop stop-color="#00C2FF"/>
<stop offset="0.529516" stop-color="#02FFE1" stop-opacity="0.16"/>
<stop offset="1" stop-color="#02FFE1" stop-opacity="0"/>
</radialGradient>
<radialGradient id="paint6_radial" cx="0" cy="0" r="1" gradientUnits="userSpaceOnUse" gradientTransform="translate(1864 732.5) scale(24 189.5)">
<stop stop-color="#00C2FF"/>
<stop offset="0.529516" stop-color="#02FFE1" stop-opacity="0.16"/>
<stop offset="1" stop-color="#02FFE1" stop-opacity="0"/>
</radialGradient>
<radialGradient id="paint7_radial" cx="0" cy="0" r="1" gradientUnits="userSpaceOnUse" gradientTransform="translate(461.5 202) rotate(90) scale(19.5 68)">
<stop stop-color="#00C2FF"/>
<stop offset="0.529516" stop-color="#02FFE1" stop-opacity="0.16"/>
<stop offset="1" stop-color="#02FFE1" stop-opacity="0"/>
</radialGradient>
<clipPath id="clip0">
<rect width="1920" height="1080" fill="white"/>
</clipPath>
</defs>
</svg>
