<svg width="1919" height="1080" viewBox="0 0 1919 1080" fill="none" xmlns="http://www.w3.org/2000/svg">
<g clip-path="url(#clip0)">
<g style="mix-blend-mode:color-dodge">
<g style="mix-blend-mode:color-dodge">
<path fill-rule="evenodd" clip-rule="evenodd" d="M1793.95 726.655C1794.61 727.637 1794.96 728.792 1794.96 729.974C1794.96 731.558 1794.33 733.077 1793.21 734.198C1792.27 735.129 1791.07 735.721 1789.77 735.894V1073.16L1835.31 1118.67V1186.54H1833.72V1119.3L1788.18 1073.83V735.895C1787.28 735.774 1786.42 735.449 1785.66 734.941C1784.67 734.284 1783.91 733.351 1783.46 732.26C1783 731.168 1782.88 729.967 1783.11 728.808C1783.35 727.649 1783.91 726.585 1784.75 725.749C1785.59 724.914 1786.65 724.345 1787.81 724.114C1788.97 723.884 1790.17 724.002 1791.27 724.454C1792.36 724.906 1793.29 725.672 1793.95 726.655Z" fill="#00C2FF"/>
</g>
</g>
<g style="mix-blend-mode:color-dodge">
<g style="mix-blend-mode:color-dodge">
<path fill-rule="evenodd" clip-rule="evenodd" d="M1860.98 725.98C1857.67 725.98 1855 728.655 1855 731.954C1855 735.253 1857.67 737.928 1860.98 737.928C1860.99 737.928 1861 737.928 1861.01 737.928V990.202L1820 1056.14V1093H1820.99V1056.78L1862 990.869V737.841C1864.81 737.355 1866.95 734.904 1866.95 731.954C1866.95 728.655 1864.28 725.98 1860.98 725.98Z" fill="#00C2FF"/>
</g>
</g>
<g style="mix-blend-mode:color-dodge">
<g style="mix-blend-mode:color-dodge">
<path fill-rule="evenodd" clip-rule="evenodd" d="M1912.81 1004.16V712.452L1830.92 630.588C1831.69 629.584 1832.14 628.332 1832.14 626.974C1832.14 623.674 1829.47 621 1826.16 621C1822.86 621 1820.19 623.674 1820.19 626.974C1820.19 630.273 1822.86 632.948 1826.16 632.948C1827.52 632.948 1828.78 632.494 1829.78 631.73L1911.22 713.087V1003.52L1840.82 1073.85V1134H1842.41V1074.51L1912.81 1004.16Z" fill="#00C2FF"/>
</g>
</g>
<g style="mix-blend-mode:color-dodge">
<g style="mix-blend-mode:color-dodge">
<path fill-rule="evenodd" clip-rule="evenodd" d="M1898.82 431.611C1898.19 430.663 1897.85 429.549 1897.85 428.408C1897.85 426.88 1898.46 425.413 1899.54 424.332C1900.44 423.434 1901.61 422.862 1902.85 422.695V97.2617L1858.92 53.3544V-12.1387H1860.46V52.7412L1904.39 96.6178V422.695C1905.26 422.812 1906.09 423.125 1906.82 423.616C1907.77 424.249 1908.51 425.149 1908.95 426.203C1909.38 427.256 1909.5 428.415 1909.28 429.533C1909.05 430.651 1908.5 431.678 1907.7 432.484C1906.89 433.291 1905.86 433.84 1904.75 434.062C1903.63 434.284 1902.47 434.17 1901.41 433.734C1900.36 433.298 1899.46 432.559 1898.82 431.611Z" fill="#00C2FF"/>
</g>
</g>
<g style="mix-blend-mode:color-dodge">
<g style="mix-blend-mode:color-dodge">
<path d="M1868.2 88.7935L1804.48 25.1401V-9.84473H1802.95V25.7533L1866.66 89.4374V338.808H1868.2V88.7935Z" fill="#00C2FF"/>
</g>
<g style="mix-blend-mode:color-dodge">
<path d="M1861.66 338.533C1861.66 341.717 1864.24 344.297 1867.43 344.297C1870.61 344.297 1873.2 341.717 1873.2 338.533C1873.2 335.349 1870.61 332.769 1867.43 332.769C1864.24 332.769 1861.66 335.349 1861.66 338.533Z" fill="#00C2FF"/>
</g>
</g>
<g style="mix-blend-mode:color-dodge">
<g style="mix-blend-mode:color-dodge">
<path fill-rule="evenodd" clip-rule="evenodd" d="M1836.36 124.283V405.756L1757.36 484.748C1758.1 485.716 1758.53 486.924 1758.53 488.235C1758.53 491.419 1755.95 494 1752.77 494C1749.58 494 1747 491.419 1747 488.235C1747 485.052 1749.58 482.471 1752.77 482.471C1754.08 482.471 1755.29 482.908 1756.26 483.645L1834.83 405.143V124.896L1766.91 57.0423V-1L1768.44 -1V56.3984L1836.36 124.283Z" fill="#00C2FF"/>
</g>
</g>
<ellipse cx="1529" cy="849.5" rx="189.5" ry="24" transform="rotate(-90 1529 849.5)" fill="url(#paint0_radial)" fill-opacity="0.4"/>
<ellipse cx="1736" cy="645.5" rx="189.5" ry="24" transform="rotate(-90 1736 645.5)" fill="url(#paint1_radial)" fill-opacity="0.4"/>
<g style="mix-blend-mode:color-dodge">
<g style="mix-blend-mode:color-dodge">
<path d="M1465.22 1148.08V1249H1463.63V1148.74L1323.21 1008.42L1324.32 1007.31L1465.22 1148.08Z" fill="#00C2FF"/>
</g>
<g style="mix-blend-mode:color-dodge">
<path d="M1319.75 1012.29C1318.91 1011.46 1318.34 1010.39 1318.11 1009.24C1317.88 1008.08 1318 1006.88 1318.45 1005.78C1318.9 1004.69 1319.67 1003.76 1320.65 1003.1C1321.64 1002.45 1322.79 1002.1 1323.97 1002.1C1325.16 1002.1 1326.31 1002.45 1327.29 1003.1C1328.28 1003.76 1329.04 1004.69 1329.5 1005.78C1329.95 1006.88 1330.07 1008.08 1329.84 1009.24C1329.61 1010.39 1329.04 1011.46 1328.2 1012.29C1327.08 1013.41 1325.56 1014.03 1323.97 1014.03C1322.39 1014.03 1320.87 1013.41 1319.75 1012.29Z" fill="#00C2FF"/>
</g>
</g>
<g style="mix-blend-mode:color-dodge">
<g style="mix-blend-mode:color-dodge">
<path d="M1535 1136.29L1489.47 1181.76V1249H1487.88V1181.12L1533.41 1135.62V792.148H1535V1136.29Z" fill="#00C2FF"/>
</g>
<g style="mix-blend-mode:color-dodge">
<path d="M1528.23 792.432C1528.23 791.251 1528.58 790.096 1529.24 789.113C1529.89 788.131 1530.83 787.365 1531.92 786.913C1533.01 786.461 1534.21 786.343 1535.37 786.573C1536.53 786.804 1537.6 787.373 1538.43 788.208C1539.27 789.043 1539.84 790.108 1540.07 791.267C1540.3 792.426 1540.18 793.627 1539.73 794.718C1539.28 795.81 1538.51 796.743 1537.53 797.399C1536.55 798.056 1535.39 798.406 1534.21 798.406C1532.62 798.406 1531.1 797.777 1529.98 796.656C1528.86 795.536 1528.23 794.017 1528.23 792.432Z" fill="#00C2FF"/>
</g>
</g>
<g style="mix-blend-mode:color-dodge">
<g style="mix-blend-mode:color-dodge">
<path d="M1590.65 1146.77L1524.6 1212.74V1249H1523.01V1212.11L1589.06 1146.11V887.668H1590.65V1146.77Z" fill="#00C2FF"/>
</g>
<g style="mix-blend-mode:color-dodge">
<path d="M1583.88 887.954C1583.88 884.654 1586.55 881.98 1589.85 881.98C1593.16 881.98 1595.83 884.654 1595.83 887.954C1595.83 891.253 1593.16 893.928 1589.85 893.928C1586.55 893.928 1583.88 891.253 1583.88 887.954Z" fill="#00C2FF"/>
</g>
</g>
<g style="mix-blend-mode:color-dodge">
<g style="mix-blend-mode:color-dodge">
<path d="M1645.69 827.452V1119.16L1575.29 1189.51V1249H1573.7V1188.85L1644.1 1118.52V828.087L1558.25 742.323L1559.39 741.179L1645.69 827.452Z" fill="#00C2FF"/>
</g>
<g style="mix-blend-mode:color-dodge">
<path d="M1553.06 741.974C1553.06 738.674 1555.74 736 1559.04 736C1562.34 736 1565.02 738.674 1565.02 741.974C1565.02 745.273 1562.34 747.948 1559.04 747.948C1555.74 747.948 1553.06 745.273 1553.06 741.974Z" fill="#00C2FF"/>
</g>
</g>
<g style="mix-blend-mode:color-dodge">
<g style="mix-blend-mode:color-dodge">
<path d="M1635.8 689.689V758.358H1634.21V689.689H1635.8Z" fill="#00C2FF"/>
</g>
<g style="mix-blend-mode:color-dodge">
<path d="M1629 758.039C1629 759.22 1629.35 760.375 1630 761.358C1630.66 762.34 1631.59 763.106 1632.69 763.558C1633.78 764.01 1634.98 764.128 1636.14 763.898C1637.3 763.667 1638.37 763.098 1639.2 762.263C1640.04 761.427 1640.61 760.363 1640.84 759.204C1641.07 758.045 1640.95 756.844 1640.5 755.753C1640.04 754.661 1639.28 753.728 1638.3 753.072C1637.31 752.415 1636.16 752.065 1634.97 752.065C1633.39 752.065 1631.87 752.694 1630.75 753.814C1629.63 754.935 1629 756.454 1629 758.039Z" fill="#00C2FF"/>
</g>
<g style="mix-blend-mode:color-dodge">
<path d="M1629 689.974C1629 688.792 1629.35 687.637 1630 686.655C1630.66 685.672 1631.59 684.907 1632.69 684.455C1633.78 684.002 1634.98 683.884 1636.14 684.115C1637.3 684.345 1638.37 684.914 1639.2 685.75C1640.04 686.585 1640.61 687.649 1640.84 688.808C1641.07 689.967 1640.95 691.168 1640.5 692.26C1640.04 693.352 1639.28 694.285 1638.3 694.941C1637.31 695.597 1636.16 695.948 1634.97 695.948C1633.39 695.948 1631.87 695.318 1630.75 694.198C1629.63 693.078 1629 691.558 1629 689.974Z" fill="#00C2FF"/>
</g>
</g>
<g style="mix-blend-mode:color-dodge">
<g style="mix-blend-mode:color-dodge">
<path d="M1738.16 1056.18L1760.99 1079H1758.73L1736.57 1056.85V617.509H1738.16V1056.18Z" fill="#00C2FF"/>
</g>
<g style="mix-blend-mode:color-dodge">
<path d="M1731.39 617.826C1731.39 614.527 1734.06 611.852 1737.37 611.852C1740.67 611.852 1743.34 614.527 1743.34 617.826C1743.34 621.126 1740.67 623.8 1737.37 623.8C1734.06 623.8 1731.39 621.126 1731.39 617.826Z" fill="#00C2FF"/>
</g>
</g>
<g style="mix-blend-mode:color-dodge">
<g style="mix-blend-mode:color-dodge">
<path d="M1686.77 1053.7L1712.53 1079.41H1710.27L1685.18 1054.34V594.688H1686.77V1053.7Z" fill="#00C2FF"/>
</g>
<g style="mix-blend-mode:color-dodge">
<path d="M1680 594.974C1680 593.792 1680.35 592.637 1681 591.655C1681.66 590.672 1682.59 589.907 1683.69 589.455C1684.78 589.002 1685.98 588.884 1687.14 589.115C1688.3 589.345 1689.37 589.914 1690.2 590.75C1691.04 591.585 1691.61 592.649 1691.84 593.808C1692.07 594.967 1691.95 596.168 1691.5 597.26C1691.04 598.352 1690.28 599.285 1689.3 599.941C1688.31 600.597 1687.16 600.948 1685.97 600.948C1684.39 600.948 1682.87 600.318 1681.75 599.198C1680.63 598.078 1680 596.558 1680 594.974Z" fill="#00C2FF"/>
</g>
</g>
<g style="mix-blend-mode:color-dodge">
<g style="mix-blend-mode:color-dodge">
<path d="M1498.8 1109.37V1249H1497.21V1110.04L1373.58 986.493L1374.72 985.349L1498.8 1109.37Z" fill="#00C2FF"/>
</g>
<g style="mix-blend-mode:color-dodge">
<path d="M1370.11 990.336C1369.28 989.501 1368.71 988.436 1368.48 987.278C1368.25 986.119 1368.37 984.918 1368.82 983.827C1369.27 982.736 1370.04 981.803 1371.02 981.147C1372 980.491 1373.16 980.14 1374.34 980.14C1375.52 980.14 1376.68 980.491 1377.66 981.147C1378.65 981.803 1379.41 982.736 1379.86 983.827C1380.32 984.918 1380.44 986.119 1380.21 987.278C1379.98 988.436 1379.41 989.501 1378.57 990.336C1377.45 991.45 1375.93 992.075 1374.34 992.075C1372.76 992.075 1371.24 991.45 1370.11 990.336Z" fill="#00C2FF"/>
</g>
</g>
<g style="mix-blend-mode:color-dodge">
<g style="mix-blend-mode:color-dodge">
<path d="M1433.05 735.587V956.147L1513.24 1036.26L1514.36 1035.14L1434.64 955.48V735.587H1433.05Z" fill="#00C2FF"/>
</g>
<g style="mix-blend-mode:color-dodge">
<path d="M1509.37 1039.69C1510.2 1040.52 1511.27 1041.09 1512.43 1041.32C1513.59 1041.55 1514.79 1041.43 1515.88 1040.98C1516.97 1040.53 1517.9 1039.76 1518.56 1038.78C1519.22 1037.8 1519.57 1036.64 1519.57 1035.46C1519.57 1034.28 1519.22 1033.13 1518.56 1032.15C1517.9 1031.16 1516.97 1030.4 1515.88 1029.94C1514.79 1029.49 1513.59 1029.37 1512.43 1029.6C1511.27 1029.83 1510.2 1030.4 1509.37 1031.24C1508.25 1032.36 1507.63 1033.88 1507.63 1035.46C1507.63 1037.05 1508.25 1038.57 1509.37 1039.69Z" fill="#00C2FF"/>
</g>
<g style="mix-blend-mode:color-dodge">
<path d="M1427.9 735.907C1427.9 732.608 1430.58 729.933 1433.88 729.933C1437.18 729.933 1439.86 732.608 1439.86 735.907C1439.86 739.207 1437.18 741.881 1433.88 741.881C1430.58 741.881 1427.9 739.207 1427.9 735.907Z" fill="#00C2FF"/>
</g>
</g>
<g style="mix-blend-mode:color-dodge">
<g style="mix-blend-mode:color-dodge">
<path fill-rule="evenodd" clip-rule="evenodd" d="M444.225 1263V1162.08L307.727 1025.7C308.28 1024.98 308.663 1024.14 308.842 1023.24C309.072 1022.08 308.953 1020.88 308.5 1019.79C308.048 1018.69 307.282 1017.76 306.299 1017.1C305.316 1016.45 304.16 1016.1 302.978 1016.1C301.796 1016.1 300.64 1016.45 299.657 1017.1C298.674 1017.76 297.908 1018.69 297.456 1019.79C297.003 1020.88 296.884 1022.08 297.115 1023.24C297.345 1024.39 297.913 1025.46 298.749 1026.29C299.874 1027.41 301.394 1028.03 302.978 1028.03C304.297 1028.03 305.572 1027.6 306.611 1026.81L442.635 1162.74V1263H444.225Z" fill="#00C2FF"/>
</g>
</g>
<g style="mix-blend-mode:color-dodge">
<g style="mix-blend-mode:color-dodge">
<path d="M1312.82 908.751L1222.93 998.584V1178.09L1167.98 1233H1165.72L1221.34 1177.42V997.948L1311.23 908.116V745.706H1312.82V908.751Z" fill="#00C2FF"/>
</g>
<g style="mix-blend-mode:color-dodge">
<path d="M1306.04 745.99C1306.04 744.809 1306.4 743.654 1307.05 742.671C1307.71 741.689 1308.64 740.923 1309.73 740.471C1310.83 740.019 1312.03 739.901 1313.19 740.131C1314.35 740.362 1315.41 740.931 1316.25 741.766C1317.09 742.602 1317.65 743.666 1317.89 744.825C1318.12 745.984 1318 747.185 1317.55 748.277C1317.09 749.368 1316.33 750.301 1315.34 750.958C1314.36 751.614 1313.2 751.964 1312.02 751.964C1310.44 751.964 1308.92 751.335 1307.8 750.215C1306.67 749.094 1306.04 747.575 1306.04 745.99Z" fill="#00C2FF"/>
</g>
</g>
<g style="mix-blend-mode:color-dodge">
<g style="mix-blend-mode:color-dodge">
<path fill-rule="evenodd" clip-rule="evenodd" d="M538.241 803.113C537.585 804.096 537.234 805.251 537.234 806.432C537.234 808.017 537.864 809.536 538.985 810.657C539.917 811.588 541.125 812.18 542.417 812.353V1149.62L496.882 1195.12V1263H498.472V1195.76L544.007 1150.29V812.353C544.907 812.233 545.772 811.908 546.533 811.4C547.516 810.743 548.282 809.81 548.735 808.719C549.187 807.627 549.306 806.426 549.075 805.267C548.844 804.108 548.275 803.044 547.439 802.208C546.603 801.373 545.538 800.804 544.378 800.573C543.219 800.343 542.017 800.461 540.924 800.913C539.832 801.365 538.898 802.131 538.241 803.113Z" fill="#00C2FF"/>
</g>
</g>
<g style="mix-blend-mode:color-dodge">
<g style="mix-blend-mode:color-dodge">
<path d="M959.351 1160.33L1028.29 1229.22V1263H1026.7V1229.86L957.761 1160.96V953.814H959.351V1160.33Z" fill="#00C2FF"/>
</g>
<g style="mix-blend-mode:color-dodge">
<path d="M952.578 954.099C952.578 952.918 952.929 951.763 953.586 950.78C954.243 949.798 955.176 949.032 956.268 948.58C957.361 948.128 958.563 948.01 959.722 948.24C960.882 948.471 961.947 949.04 962.783 949.875C963.619 950.71 964.189 951.775 964.419 952.934C964.65 954.093 964.532 955.294 964.079 956.385C963.627 957.477 962.86 958.41 961.877 959.066C960.894 959.723 959.739 960.073 958.556 960.073C956.971 960.073 955.45 959.444 954.329 958.324C953.208 957.203 952.578 955.684 952.578 954.099Z" fill="#00C2FF"/>
</g>
</g>
<g style="mix-blend-mode:color-dodge">
<g style="mix-blend-mode:color-dodge">
<path fill-rule="evenodd" clip-rule="evenodd" d="M598.858 895.98C595.556 895.98 592.88 898.654 592.88 901.954C592.88 904.984 595.137 907.487 598.063 907.875V1160.11L532.019 1226.11V1263H533.609V1226.74L599.653 1160.77V907.875C602.579 907.487 604.836 904.984 604.836 901.954C604.836 898.654 602.159 895.98 598.858 895.98Z" fill="#00C2FF"/>
</g>
</g>
<g style="mix-blend-mode:color-dodge">
<g style="mix-blend-mode:color-dodge">
<path d="M952.102 922.387L884.659 989.785V1263H883.069V989.117L950.957 921.243L952.102 922.387Z" fill="#00C2FF"/>
</g>
<g style="mix-blend-mode:color-dodge">
<path d="M947.078 917.78C947.914 916.945 948.979 916.376 950.139 916.146C951.298 915.916 952.5 916.035 953.592 916.487C954.684 916.94 955.617 917.705 956.274 918.688C956.93 919.67 957.281 920.825 957.281 922.006C957.281 923.187 956.93 924.342 956.274 925.324C955.617 926.307 954.684 927.072 953.592 927.525C952.5 927.977 951.298 928.096 950.139 927.866C948.979 927.636 947.914 927.067 947.078 926.232C945.963 925.108 945.338 923.589 945.338 922.006C945.338 920.423 945.963 918.904 947.078 917.78Z" fill="#00C2FF"/>
</g>
</g>
<g style="mix-blend-mode:color-dodge">
<g style="mix-blend-mode:color-dodge">
<path fill-rule="evenodd" clip-rule="evenodd" d="M654.695 1133.16V841.452L572.806 759.588C573.57 758.584 574.024 757.332 574.024 755.974C574.024 752.674 571.347 750 568.046 750C564.744 750 562.068 752.674 562.068 755.974C562.068 759.273 564.744 761.948 568.046 761.948C569.405 761.948 570.659 761.494 571.663 760.73L653.105 842.087V1132.52L582.705 1202.85V1263H584.295V1203.51L654.695 1133.16Z" fill="#00C2FF"/>
</g>
</g>
<g style="mix-blend-mode:color-dodge">
<g style="mix-blend-mode:color-dodge">
<path fill-rule="evenodd" clip-rule="evenodd" d="M828.028 1213L804.243 1189.26V783.517C805.143 783.396 806.008 783.071 806.769 782.563C807.752 781.907 808.518 780.974 808.971 779.882C809.423 778.79 809.542 777.589 809.311 776.43C809.08 775.272 808.511 774.207 807.675 773.372C806.839 772.536 805.774 771.967 804.614 771.737C803.454 771.506 802.252 771.624 801.16 772.077C800.068 772.529 799.134 773.294 798.477 774.277C797.82 775.259 797.47 776.414 797.47 777.596C797.47 779.18 798.1 780.7 799.221 781.82C800.153 782.752 801.361 783.344 802.653 783.517V1189.9L825.77 1213H828.028Z" fill="#00C2FF"/>
</g>
</g>
<g style="mix-blend-mode:color-dodge">
<g style="mix-blend-mode:color-dodge">
<path d="M978.97 832.493V901.162H977.38V832.493H978.97Z" fill="#00C2FF"/>
</g>
<g style="mix-blend-mode:color-dodge">
<path d="M972.166 900.842C972.166 902.024 972.516 903.179 973.173 904.161C973.83 905.144 974.764 905.909 975.856 906.362C976.948 906.814 978.15 906.932 979.31 906.702C980.469 906.471 981.535 905.902 982.371 905.067C983.207 904.231 983.776 903.167 984.007 902.008C984.237 900.849 984.119 899.648 983.667 898.556C983.214 897.465 982.448 896.532 981.465 895.875C980.482 895.219 979.326 894.868 978.144 894.868C976.558 894.868 975.038 895.498 973.916 896.618C972.795 897.739 972.166 899.258 972.166 900.842Z" fill="#00C2FF"/>
</g>
<g style="mix-blend-mode:color-dodge">
<path d="M972.166 832.777C972.166 831.596 972.516 830.441 973.173 829.459C973.83 828.476 974.764 827.71 975.856 827.258C976.948 826.806 978.15 826.688 979.31 826.918C980.469 827.149 981.535 827.718 982.371 828.553C983.207 829.389 983.776 830.453 984.007 831.612C984.237 832.771 984.119 833.972 983.667 835.064C983.214 836.155 982.448 837.088 981.465 837.745C980.482 838.401 979.326 838.751 978.144 838.751C976.558 838.751 975.038 838.122 973.916 837.002C972.795 835.881 972.166 834.362 972.166 832.777Z" fill="#00C2FF"/>
</g>
</g>
<g style="mix-blend-mode:color-dodge">
<g style="mix-blend-mode:color-dodge">
<path fill-rule="evenodd" clip-rule="evenodd" d="M638.001 772.039C638.001 773.22 638.351 774.375 639.008 775.358C639.665 776.34 640.598 777.106 641.691 777.558C642.783 778.01 643.985 778.128 645.145 777.898C646.304 777.667 647.37 777.098 648.206 776.263C649.042 775.427 649.611 774.363 649.842 773.204C650.072 772.045 649.954 770.844 649.501 769.753C649.049 768.661 648.283 767.728 647.3 767.072C646.547 766.569 645.694 766.246 644.805 766.122V709.89C645.694 709.766 646.547 709.443 647.3 708.941C648.283 708.284 649.049 707.351 649.501 706.26C649.954 705.168 650.072 703.967 649.842 702.808C649.611 701.649 649.042 700.585 648.206 699.749C647.37 698.914 646.304 698.345 645.145 698.114C643.985 697.884 642.783 698.002 641.691 698.454C640.598 698.906 639.665 699.672 639.008 700.655C638.351 701.637 638.001 702.792 638.001 703.974C638.001 705.558 638.63 707.077 639.751 708.198C640.691 709.137 641.911 709.731 643.215 709.899V766.114C641.911 766.281 640.691 766.875 639.751 767.814C638.63 768.935 638.001 770.454 638.001 772.039Z" fill="#00C2FF"/>
</g>
</g>
<g style="mix-blend-mode:color-dodge">
<g style="mix-blend-mode:color-dodge">
<path d="M918.269 1235.67L945.615 1263H943.357L916.679 1236.34V1013.2H918.269V1235.67Z" fill="#00C2FF"/>
</g>
<g style="mix-blend-mode:color-dodge">
<path d="M911.464 1013.49C911.464 1012.31 911.814 1011.15 912.471 1010.17C913.128 1009.19 914.062 1008.42 915.154 1007.97C916.247 1007.52 917.449 1007.4 918.608 1007.63C919.768 1007.86 920.833 1008.43 921.669 1009.26C922.505 1010.1 923.074 1011.16 923.305 1012.32C923.536 1013.48 923.417 1014.68 922.965 1015.77C922.512 1016.87 921.746 1017.8 920.763 1018.46C919.78 1019.11 918.624 1019.46 917.442 1019.46C915.856 1019.46 914.336 1018.83 913.215 1017.71C912.094 1016.59 911.464 1015.07 911.464 1013.49Z" fill="#00C2FF"/>
</g>
</g>
<g style="mix-blend-mode:color-dodge">
<g style="mix-blend-mode:color-dodge">
<path d="M1272.18 939.451L1157.2 1054.32V1185.97L1082.28 1260.84V1263H1080.69V1260.2L1155.61 1185.34V1053.66L1270.59 938.783V788.608H1272.18V939.451Z" fill="#00C2FF"/>
</g>
<g style="mix-blend-mode:color-dodge">
<path d="M1265.41 788.893C1265.41 785.593 1268.08 782.919 1271.38 782.919C1274.69 782.919 1277.36 785.593 1277.36 788.893C1277.36 792.192 1274.69 794.867 1271.38 794.867C1268.08 794.867 1265.41 792.192 1265.41 788.893Z" fill="#00C2FF"/>
</g>
</g>
<g style="mix-blend-mode:color-dodge">
<g style="mix-blend-mode:color-dodge">
<path d="M1096.11 782.348L1007.37 871.036V1136.27L1059.04 1187.91V1263H1057.45V1188.55L1005.78 1136.94V870.368L1095 781.204L1096.11 782.348Z" fill="#00C2FF"/>
</g>
<g style="mix-blend-mode:color-dodge">
<path d="M1091.12 777.74C1091.96 776.905 1093.02 776.337 1094.18 776.107C1095.34 775.877 1096.54 775.995 1097.64 776.448C1098.73 776.9 1099.66 777.666 1100.32 778.648C1100.97 779.63 1101.33 780.785 1101.33 781.966C1101.33 783.148 1100.97 784.303 1100.32 785.285C1099.66 786.267 1098.73 787.033 1097.64 787.485C1096.54 787.937 1095.34 788.056 1094.18 787.826C1093.02 787.596 1091.96 787.028 1091.12 786.193C1090.01 785.068 1089.38 783.549 1089.38 781.966C1089.38 780.384 1090.01 778.865 1091.12 777.74Z" fill="#00C2FF"/>
</g>
</g>
<g style="mix-blend-mode:color-dodge">
<g style="mix-blend-mode:color-dodge">
<path d="M1085.79 1011.67V1163.82H1087.38V1012.34L1180.38 919.394V794.83L1136.38 750.851L1135.26 751.995L1178.79 795.497V918.758L1085.79 1011.67Z" fill="#00C2FF"/>
</g>
<g style="mix-blend-mode:color-dodge">
<path d="M1131.8 755.809C1130.96 754.975 1130.38 753.91 1130.15 752.75C1129.92 751.59 1130.03 750.387 1130.48 749.293C1130.94 748.199 1131.7 747.264 1132.69 746.606C1133.67 745.948 1134.83 745.596 1136.01 745.596C1137.19 745.596 1138.35 745.948 1139.34 746.606C1140.32 747.264 1141.09 748.199 1141.54 749.293C1141.99 750.387 1142.1 751.59 1141.87 752.75C1141.64 753.91 1141.06 754.975 1140.22 755.809C1139.67 756.363 1139.01 756.803 1138.29 757.103C1137.57 757.403 1136.79 757.558 1136.01 757.558C1135.23 757.558 1134.45 757.403 1133.73 757.103C1133.01 756.803 1132.35 756.363 1131.8 755.809Z" fill="#00C2FF"/>
</g>
</g>
<g style="mix-blend-mode:color-dodge">
<g style="mix-blend-mode:color-dodge">
<path d="M1060.02 965.888V1123.18H1061.61V966.556L1132.68 895.567V832.491H1131.09V894.9L1060.02 965.888Z" fill="#00C2FF"/>
</g>
<g style="mix-blend-mode:color-dodge">
<path d="M1125.88 832.773C1125.88 831.592 1126.23 830.437 1126.88 829.454C1127.54 828.472 1128.48 827.706 1129.57 827.254C1130.66 826.802 1131.86 826.683 1133.02 826.914C1134.18 827.144 1135.25 827.713 1136.08 828.549C1136.92 829.384 1137.49 830.449 1137.72 831.608C1137.95 832.766 1137.83 833.968 1137.38 835.059C1136.93 836.151 1136.16 837.084 1135.18 837.74C1134.19 838.397 1133.04 838.747 1131.86 838.747C1130.27 838.747 1128.75 838.118 1127.63 836.997C1126.51 835.877 1125.88 834.357 1125.88 832.773Z" fill="#00C2FF"/>
</g>
</g>
<g style="mix-blend-mode:color-dodge">
<g style="mix-blend-mode:color-dodge">
<path d="M863.704 880.699V1182.58H865.294V881.366L979.894 766.844L978.749 765.731L863.704 880.699Z" fill="#00C2FF"/>
</g>
<g style="mix-blend-mode:color-dodge">
<path d="M974.869 762.267C975.705 761.432 976.771 760.863 977.93 760.633C979.09 760.403 980.291 760.522 981.383 760.974C982.475 761.426 983.409 762.192 984.065 763.174C984.722 764.157 985.072 765.312 985.072 766.493C985.072 767.674 984.722 768.829 984.065 769.811C983.409 770.794 982.475 771.559 981.383 772.012C980.291 772.464 979.09 772.582 977.93 772.352C976.771 772.122 975.705 771.554 974.869 770.719C973.755 769.594 973.129 768.076 973.129 766.493C973.129 764.91 973.755 763.391 974.869 762.267Z" fill="#00C2FF"/>
</g>
</g>
<g style="mix-blend-mode:color-dodge">
<g style="mix-blend-mode:color-dodge">
<path fill-rule="evenodd" clip-rule="evenodd" d="M769.997 1093L747.166 1070.18V637.748C750.091 637.36 752.349 634.857 752.349 631.827C752.349 628.527 749.672 625.853 746.371 625.853C743.069 625.853 740.393 628.527 740.393 631.827C740.393 634.857 742.65 637.36 745.576 637.748V1070.85L767.739 1093H769.997Z" fill="#00C2FF"/>
</g>
</g>
<g style="mix-blend-mode:color-dodge">
<g style="mix-blend-mode:color-dodge">
<path fill-rule="evenodd" clip-rule="evenodd" d="M721.53 1273.41L695.773 1247.7V794.894C696.674 794.774 697.539 794.449 698.3 793.941C699.283 793.284 700.049 792.351 700.501 791.26C700.954 790.168 701.072 788.967 700.842 787.808C700.611 786.649 700.042 785.585 699.206 784.749C698.37 783.914 697.304 783.345 696.145 783.114C694.985 782.884 693.783 783.002 692.691 783.454C691.599 783.906 690.665 784.672 690.008 785.655C689.351 786.637 689.001 787.792 689.001 788.974C689.001 790.558 689.63 792.077 690.751 793.198C691.683 794.129 692.892 794.721 694.183 794.894V1248.34L719.272 1273.41H721.53Z" fill="#00C2FF"/>
</g>
</g>
<g style="mix-blend-mode:color-dodge">
<g style="mix-blend-mode:color-dodge">
<path fill-rule="evenodd" clip-rule="evenodd" d="M477.804 1263V1123.37L358.108 1003.73C358.654 1003.01 359.033 1002.17 359.21 1001.28C359.44 1000.12 359.322 998.918 358.869 997.827C358.416 996.736 357.65 995.803 356.667 995.147C355.684 994.491 354.529 994.141 353.347 994.141C352.165 994.141 351.009 994.491 350.026 995.147C349.043 995.803 348.277 996.736 347.824 997.827C347.372 998.918 347.253 1000.12 347.483 1001.28C347.713 1002.44 348.282 1003.5 349.118 1004.34C350.243 1005.45 351.763 1006.08 353.347 1006.08C354.658 1006.08 355.925 1005.65 356.961 1004.87L476.214 1124.04V1263H477.804Z" fill="#00C2FF"/>
</g>
</g>
<g style="mix-blend-mode:color-dodge">
<path fill-rule="evenodd" clip-rule="evenodd" d="M474.369 1072.69C475.205 1073.52 476.271 1074.09 477.43 1074.32C478.59 1074.55 479.791 1074.43 480.883 1073.98C481.975 1073.53 482.909 1072.76 483.565 1071.78C484.222 1070.8 484.572 1069.64 484.572 1068.46C484.572 1067.28 484.222 1066.13 483.565 1065.15C482.909 1064.16 481.975 1063.4 480.883 1062.94C479.791 1062.49 478.59 1062.37 477.43 1062.6C476.523 1062.78 475.673 1063.17 474.946 1063.73L399.644 988.48V774.833C402.585 774.459 404.859 771.948 404.859 768.907C404.859 765.608 402.183 762.933 398.881 762.933C395.579 762.933 392.903 765.608 392.903 768.907C392.903 771.926 395.144 774.422 398.054 774.825V989.148L473.838 1064.85C473.058 1065.89 472.629 1067.15 472.629 1068.46C472.629 1070.05 473.255 1071.57 474.369 1072.69Z" fill="#00C2FF"/>
</g>
<ellipse cx="694.997" cy="795.5" rx="189.5" ry="24" transform="rotate(-90 694.997 795.5)" fill="url(#paint2_radial)" fill-opacity="0.4"/>
<g style="mix-blend-mode:color-dodge">
<path d="M1739.16 -46.3319L1762 -69.1475H1759.74L1737.57 -46.9992V127.5L1784.91 175.5L1787.57 372.343H1789.16L1786.5 175.5L1739.16 127.5V-46.3319Z" fill="#00C2FF"/>
</g>
<g style="mix-blend-mode:color-dodge">
<path d="M1782.39 367.025C1782.39 370.325 1785.07 372.999 1788.37 372.999C1791.67 372.999 1794.35 370.325 1794.35 367.025C1794.35 363.726 1791.67 361.051 1788.37 361.051C1785.07 361.051 1782.39 363.726 1782.39 367.025Z" fill="#00C2FF"/>
</g>
<g style="mix-blend-mode:color-dodge">
<g style="mix-blend-mode:color-dodge">
<path d="M1454.12 39.7113L1408.59 -5.76091V-73H1407V-5.12537L1452.54 40.3786V383.851H1454.12V39.7113Z" fill="#00C2FF"/>
</g>
<g style="mix-blend-mode:color-dodge">
<path d="M1447.35 383.567C1447.35 384.748 1447.7 385.903 1448.36 386.886C1449.02 387.868 1449.95 388.634 1451.04 389.086C1452.13 389.538 1453.34 389.656 1454.5 389.426C1455.66 389.195 1456.72 388.626 1457.56 387.791C1458.39 386.956 1458.96 385.891 1459.19 384.732C1459.42 383.573 1459.31 382.372 1458.85 381.281C1458.4 380.189 1457.63 379.256 1456.65 378.6C1455.67 377.943 1454.51 377.593 1453.33 377.593C1451.74 377.593 1450.22 378.222 1449.1 379.343C1447.98 380.463 1447.35 381.982 1447.35 383.567Z" fill="#00C2FF"/>
</g>
</g>
<g style="mix-blend-mode:color-dodge">
<g style="mix-blend-mode:color-dodge">
<path d="M1564.81 218.547V-73.1612L1494.41 -143.514V-203H1492.82V-142.847L1563.22 -72.5257V217.912L1477.37 303.676L1478.51 304.82L1564.81 218.547Z" fill="#00C2FF"/>
</g>
<g style="mix-blend-mode:color-dodge">
<path d="M1472.19 304.025C1472.19 307.325 1474.86 309.999 1478.16 309.999C1481.47 309.999 1484.14 307.325 1484.14 304.025C1484.14 300.726 1481.47 298.051 1478.16 298.051C1474.86 298.051 1472.19 300.726 1472.19 304.025Z" fill="#00C2FF"/>
</g>
</g>
<g style="mix-blend-mode:color-dodge">
<g style="mix-blend-mode:color-dodge">
<path d="M1554.92 469.31V400.641H1553.33V469.31H1554.92Z" fill="#00C2FF"/>
</g>
<g style="mix-blend-mode:color-dodge">
<path d="M1548.12 400.96C1548.12 399.779 1548.47 398.624 1549.13 397.641C1549.78 396.659 1550.72 395.893 1551.81 395.441C1552.9 394.989 1554.1 394.871 1555.26 395.101C1556.42 395.332 1557.49 395.901 1558.32 396.736C1559.16 397.572 1559.73 398.636 1559.96 399.795C1560.19 400.954 1560.07 402.155 1559.62 403.246C1559.17 404.338 1558.4 405.271 1557.42 405.928C1556.44 406.584 1555.28 406.934 1554.1 406.934C1552.51 406.934 1550.99 406.305 1549.87 405.185C1548.75 404.064 1548.12 402.545 1548.12 400.96Z" fill="#00C2FF"/>
</g>
<g style="mix-blend-mode:color-dodge">
<path d="M1548.12 469.025C1548.12 470.207 1548.47 471.362 1549.13 472.344C1549.78 473.327 1550.72 474.092 1551.81 474.545C1552.9 474.997 1554.1 475.115 1555.26 474.884C1556.42 474.654 1557.49 474.085 1558.32 473.25C1559.16 472.414 1559.73 471.35 1559.96 470.191C1560.19 469.032 1560.07 467.831 1559.62 466.739C1559.17 465.647 1558.4 464.714 1557.42 464.058C1556.44 463.402 1555.28 463.051 1554.1 463.051C1552.51 463.051 1550.99 463.681 1549.87 464.801C1548.75 465.921 1548.12 467.441 1548.12 469.025Z" fill="#00C2FF"/>
</g>
</g>
<g style="mix-blend-mode:color-dodge">
<g style="mix-blend-mode:color-dodge">
<path d="M1677.28 19.8155L1700.11 -3H1697.86L1675.69 19.1482V458.49H1677.28V19.8155Z" fill="#00C2FF"/>
</g>
<g style="mix-blend-mode:color-dodge">
<path d="M1670.51 458.173C1670.51 461.472 1673.19 464.147 1676.49 464.147C1679.79 464.147 1682.47 461.472 1682.47 458.173C1682.47 454.873 1679.79 452.199 1676.49 452.199C1673.19 452.199 1670.51 454.873 1670.51 458.173Z" fill="#00C2FF"/>
</g>
</g>
<g style="mix-blend-mode:color-dodge">
<g style="mix-blend-mode:color-dodge">
<path d="M1605.89 12.299L1631.65 -13.4082H1629.39L1604.3 11.6635V471.311H1605.89V12.299Z" fill="#00C2FF"/>
</g>
<g style="mix-blend-mode:color-dodge">
<path d="M1599.12 471.025C1599.12 472.207 1599.47 473.362 1600.13 474.344C1600.78 475.327 1601.72 476.092 1602.81 476.545C1603.9 476.997 1605.1 477.115 1606.26 476.884C1607.42 476.654 1608.49 476.085 1609.32 475.25C1610.16 474.414 1610.73 473.35 1610.96 472.191C1611.19 471.032 1611.07 469.831 1610.62 468.739C1610.17 467.647 1609.4 466.714 1608.42 466.058C1607.43 465.402 1606.28 465.051 1605.1 465.051C1603.51 465.051 1601.99 465.681 1600.87 466.801C1599.75 467.921 1599.12 469.441 1599.12 471.025Z" fill="#00C2FF"/>
</g>
</g>
<g style="mix-blend-mode:color-dodge">
<g style="mix-blend-mode:color-dodge">
<path d="M521.225 -88.0778V-189H519.635V-88.7451L379.215 51.58L380.328 52.6921L521.225 -88.0778Z" fill="#00C2FF"/>
</g>
<g style="mix-blend-mode:color-dodge">
<path d="M375.749 47.7045C374.913 48.5402 374.345 49.6047 374.114 50.7634C373.884 51.9221 374.003 53.1229 374.456 54.2142C374.908 55.3055 375.674 56.2382 376.657 56.8943C377.64 57.5505 378.796 57.9007 379.978 57.9007C381.16 57.9007 382.316 57.5505 383.299 56.8943C384.282 56.2382 385.048 55.3055 385.5 54.2142C385.953 53.1229 386.072 51.9221 385.842 50.7634C385.611 49.6047 385.043 48.5402 384.207 47.7045C383.082 46.5907 381.562 45.9658 379.978 45.9658C378.394 45.9658 376.874 46.5907 375.749 47.7045Z" fill="#00C2FF"/>
</g>
</g>
<g style="mix-blend-mode:color-dodge">
<g style="mix-blend-mode:color-dodge">
<path d="M1389.82 135.248L1299.92 45.4153V-134.09L1244.98 -189H1242.72L1298.33 -133.423V46.0509L1388.23 135.883V298.293H1389.82V135.248Z" fill="#00C2FF"/>
</g>
<g style="mix-blend-mode:color-dodge">
<path d="M1383.04 298.009C1383.04 299.19 1383.39 300.345 1384.05 301.328C1384.71 302.31 1385.64 303.076 1386.73 303.528C1387.83 303.98 1389.03 304.098 1390.19 303.868C1391.35 303.637 1392.41 303.068 1393.25 302.233C1394.09 301.397 1394.65 300.333 1394.89 299.174C1395.12 298.015 1395 296.814 1394.54 295.722C1394.09 294.631 1393.33 293.698 1392.34 293.042C1391.36 292.385 1390.2 292.035 1389.02 292.035C1387.44 292.035 1385.92 292.664 1384.79 293.784C1383.67 294.905 1383.04 296.424 1383.04 298.009Z" fill="#00C2FF"/>
</g>
</g>
<g style="mix-blend-mode:color-dodge">
<g style="mix-blend-mode:color-dodge">
<path fill-rule="evenodd" clip-rule="evenodd" d="M615.241 270.886C614.584 269.903 614.233 268.748 614.233 267.567C614.233 265.982 614.863 264.463 615.984 263.342C616.916 262.411 618.124 261.819 619.416 261.646V-75.6214L573.882 -121.125V-189H575.471V-121.761L621.006 -76.2887V261.646C621.907 261.766 622.771 262.091 623.533 262.599C624.516 263.256 625.282 264.189 625.734 265.28C626.187 266.372 626.305 267.573 626.075 268.732C625.844 269.891 625.275 270.955 624.439 271.791C623.603 272.626 622.537 273.195 621.378 273.426C620.218 273.656 619.016 273.538 617.924 273.086C616.831 272.634 615.898 271.868 615.241 270.886Z" fill="#00C2FF"/>
</g>
</g>
<g style="mix-blend-mode:color-dodge">
<g style="mix-blend-mode:color-dodge">
<path d="M1036.35 -86.3301L1105.29 -155.222V-189H1103.7V-155.857L1034.76 -86.9656V120.185H1036.35V-86.3301Z" fill="#00C2FF"/>
</g>
<g style="mix-blend-mode:color-dodge">
<path d="M1029.58 119.9C1029.58 121.081 1029.93 122.236 1030.59 123.219C1031.24 124.201 1032.18 124.967 1033.27 125.419C1034.36 125.871 1035.56 125.989 1036.72 125.759C1037.88 125.528 1038.95 124.959 1039.78 124.124C1040.62 123.289 1041.19 122.224 1041.42 121.065C1041.65 119.906 1041.53 118.705 1041.08 117.614C1040.63 116.522 1039.86 115.589 1038.88 114.933C1037.89 114.276 1036.74 113.926 1035.56 113.926C1033.97 113.926 1032.45 114.555 1031.33 115.676C1030.21 116.796 1029.58 118.315 1029.58 119.9Z" fill="#00C2FF"/>
</g>
</g>
<g style="mix-blend-mode:color-dodge">
<g style="mix-blend-mode:color-dodge">
<path fill-rule="evenodd" clip-rule="evenodd" d="M675.858 178.019C672.556 178.019 669.88 175.345 669.88 172.045C669.88 169.015 672.137 166.512 675.063 166.124V-86.1077L609.018 -152.107V-189H610.608V-152.743L676.653 -86.775V166.124C679.578 166.512 681.836 169.015 681.836 172.045C681.836 175.345 679.159 178.019 675.858 178.019Z" fill="#00C2FF"/>
</g>
</g>
<g style="mix-blend-mode:color-dodge">
<g style="mix-blend-mode:color-dodge">
<path fill-rule="evenodd" clip-rule="evenodd" d="M1027.14 157.853C1025.98 157.623 1024.91 157.054 1024.08 156.219C1022.96 155.095 1022.34 153.576 1022.34 151.993C1022.34 150.674 1022.77 149.4 1023.56 148.361L960.068 84.8817V-189H961.658V84.2144L1024.71 147.221C1025.42 146.682 1026.25 146.309 1027.14 146.133C1028.3 145.903 1029.5 146.022 1030.59 146.474C1031.68 146.927 1032.62 147.692 1033.27 148.675C1033.93 149.657 1034.28 150.812 1034.28 151.993C1034.28 153.174 1033.93 154.329 1033.27 155.311C1032.62 156.294 1031.68 157.059 1030.59 157.512C1029.5 157.964 1028.3 158.083 1027.14 157.853Z" fill="#00C2FF"/>
</g>
</g>
<g style="mix-blend-mode:color-dodge">
<g style="mix-blend-mode:color-dodge">
<path fill-rule="evenodd" clip-rule="evenodd" d="M731.695 -59.1612V232.547L649.806 314.411C650.57 315.415 651.023 316.667 651.023 318.025C651.023 321.325 648.347 323.999 645.045 323.999C641.744 323.999 639.067 321.325 639.067 318.025C639.067 314.726 641.744 312.051 645.045 312.051C646.405 312.051 647.658 312.505 648.663 313.269L730.105 231.912V-58.5257L659.704 -128.847V-189H661.294V-129.514L731.695 -59.1612Z" fill="#00C2FF"/>
</g>
</g>
<g style="mix-blend-mode:color-dodge">
<g style="mix-blend-mode:color-dodge">
<path fill-rule="evenodd" clip-rule="evenodd" d="M925.026 -189L901.242 -165.263V240.482C902.142 240.603 903.006 240.928 903.768 241.436C904.751 242.092 905.517 243.025 905.969 244.117C906.422 245.209 906.54 246.41 906.309 247.569C906.079 248.727 905.509 249.792 904.673 250.627C903.837 251.463 902.772 252.032 901.613 252.262C900.453 252.493 899.251 252.375 898.159 251.922C897.066 251.47 896.133 250.705 895.476 249.722C894.819 248.74 894.468 247.585 894.468 246.403C894.468 244.819 895.098 243.299 896.219 242.179C897.151 241.247 898.36 240.655 899.652 240.482V-165.898L922.769 -189H925.026Z" fill="#00C2FF"/>
</g>
</g>
<g style="mix-blend-mode:color-dodge">
<g style="mix-blend-mode:color-dodge">
<path fill-rule="evenodd" clip-rule="evenodd" d="M1049.17 173.157C1049.17 171.975 1049.52 170.82 1050.17 169.838C1050.83 168.855 1051.76 168.09 1052.86 167.637C1053.95 167.185 1055.15 167.067 1056.31 167.297C1057.47 167.528 1058.53 168.097 1059.37 168.932C1060.21 169.768 1060.78 170.832 1061.01 171.991C1061.24 173.15 1061.12 174.351 1060.67 175.443C1060.21 176.534 1059.45 177.467 1058.46 178.124C1057.71 178.626 1056.86 178.949 1055.97 179.073V235.305C1056.86 235.429 1057.71 235.752 1058.46 236.255C1059.45 236.911 1060.21 237.844 1060.67 238.936C1061.12 240.027 1061.24 241.228 1061.01 242.387C1060.78 243.546 1060.21 244.611 1059.37 245.446C1058.53 246.282 1057.47 246.85 1056.31 247.081C1055.15 247.311 1053.95 247.193 1052.86 246.741C1051.76 246.289 1050.83 245.523 1050.17 244.541C1049.52 243.558 1049.17 242.403 1049.17 241.222C1049.17 239.637 1049.8 238.118 1050.92 236.998C1051.86 236.059 1053.08 235.464 1054.38 235.297V179.082C1053.08 178.914 1051.86 178.32 1050.92 177.381C1049.8 176.261 1049.17 174.741 1049.17 173.157Z" fill="#00C2FF"/>
</g>
</g>
<g style="mix-blend-mode:color-dodge">
<g style="mix-blend-mode:color-dodge">
<path d="M995.268 -161.672L1022.61 -189H1020.36L993.678 -162.34V60.7951H995.268V-161.672Z" fill="#00C2FF"/>
</g>
<g style="mix-blend-mode:color-dodge">
<path d="M988.463 60.5106C988.463 61.6922 988.814 62.8472 989.471 63.8296C990.128 64.812 991.061 65.5777 992.154 66.0299C993.246 66.482 994.448 66.6003 995.608 66.3698C996.767 66.1393 997.832 65.5703 998.669 64.7349C999.505 63.8994 1000.07 62.8349 1000.3 61.6761C1000.54 60.5172 1000.42 59.3161 999.964 58.2245C999.512 57.1329 998.746 56.1999 997.763 55.5434C996.78 54.887 995.624 54.5366 994.441 54.5366C992.856 54.5366 991.335 55.166 990.214 56.2864C989.093 57.4067 988.463 58.9262 988.463 60.5106Z" fill="#00C2FF"/>
</g>
</g>
<g style="mix-blend-mode:color-dodge">
<g style="mix-blend-mode:color-dodge">
<path d="M1349.18 134.548L1234.2 19.6763V-111.974L1159.28 -186.839V-189H1157.69V-186.204L1232.61 -111.338V20.3436L1347.59 135.216V285.392H1349.18V134.548Z" fill="#00C2FF"/>
</g>
<g style="mix-blend-mode:color-dodge">
<path d="M1342.41 285.106C1342.41 288.406 1345.08 291.08 1348.38 291.08C1351.69 291.08 1354.36 288.406 1354.36 285.106C1354.36 281.807 1351.69 279.132 1348.38 279.132C1345.08 279.132 1342.41 281.807 1342.41 285.106Z" fill="#00C2FF"/>
</g>
</g>
<g style="mix-blend-mode:color-dodge">
<g style="mix-blend-mode:color-dodge">
<path fill-rule="evenodd" clip-rule="evenodd" d="M1171.18 297.892C1170.02 297.662 1168.96 297.094 1168.12 296.259C1167.01 295.134 1166.38 293.616 1166.38 292.033C1166.38 290.714 1166.82 289.441 1167.6 288.402L1082.78 203.631V-62.9426L1134.45 -114.548V-189H1136.04V-113.912L1084.37 -62.2753V202.963L1168.73 287.274C1169.45 286.728 1170.29 286.35 1171.18 286.173C1172.34 285.943 1173.54 286.062 1174.64 286.514C1175.73 286.966 1176.66 287.732 1177.32 288.714C1177.97 289.697 1178.32 290.852 1178.32 292.033C1178.32 293.214 1177.97 294.369 1177.32 295.351C1176.66 296.333 1175.73 297.099 1174.64 297.552C1173.54 298.004 1172.34 298.122 1171.18 297.892Z" fill="#00C2FF"/>
</g>
</g>
<g style="mix-blend-mode:color-dodge">
<g style="mix-blend-mode:color-dodge">
<path d="M1175.78 51.3256V-100.82H1177.37V50.6583L1270.38 143.605V268.169L1226.38 312.147L1225.26 311.003L1268.79 267.501V144.24L1175.78 51.3256Z" fill="#00C2FF"/>
</g>
<g style="mix-blend-mode:color-dodge">
<path d="M1221.8 307.19C1220.96 308.024 1220.38 309.088 1220.15 310.248C1219.92 311.408 1220.03 312.611 1220.48 313.705C1220.93 314.799 1221.7 315.734 1222.68 316.393C1223.67 317.051 1224.83 317.402 1226.01 317.402C1227.19 317.402 1228.35 317.051 1229.34 316.393C1230.32 315.734 1231.09 314.799 1231.54 313.705C1231.99 312.611 1232.1 311.408 1231.87 310.248C1231.64 309.088 1231.06 308.024 1230.22 307.19C1229.67 306.636 1229.01 306.196 1228.29 305.896C1227.57 305.595 1226.79 305.441 1226.01 305.441C1225.23 305.441 1224.45 305.595 1223.73 305.896C1223.01 306.196 1222.35 306.636 1221.8 307.19Z" fill="#00C2FF"/>
</g>
</g>
<g style="mix-blend-mode:color-dodge">
<g style="mix-blend-mode:color-dodge">
<path fill-rule="evenodd" clip-rule="evenodd" d="M1203.88 244.545C1203.23 243.563 1202.88 242.408 1202.88 241.226C1202.88 239.642 1203.51 238.122 1204.63 237.002C1205.57 236.063 1206.79 235.469 1208.09 235.301V179.099L1137.02 108.111V-49.1831H1138.61V107.443L1209.68 178.432V235.31C1210.57 235.434 1211.42 235.757 1212.18 236.259C1213.16 236.915 1213.93 237.848 1214.38 238.94C1214.83 240.032 1214.95 241.233 1214.72 242.392C1214.49 243.55 1213.92 244.615 1213.08 245.45C1212.25 246.286 1211.18 246.855 1210.02 247.085C1208.86 247.316 1207.66 247.198 1206.57 246.745C1205.47 246.293 1204.54 245.528 1203.88 244.545Z" fill="#00C2FF"/>
</g>
</g>
<g style="mix-blend-mode:color-dodge">
<g style="mix-blend-mode:color-dodge">
<path fill-rule="evenodd" clip-rule="evenodd" d="M1054.93 313.366C1053.77 313.136 1052.7 312.567 1051.87 311.732C1050.75 310.608 1050.13 309.089 1050.13 307.506C1050.13 306.188 1050.56 304.913 1051.35 303.875L940.703 193.3V-108.577H942.293V192.633L1052.48 302.747C1053.2 302.201 1054.04 301.824 1054.93 301.647C1056.09 301.417 1057.29 301.535 1058.38 301.988C1059.47 302.44 1060.41 303.206 1061.06 304.188C1061.72 305.17 1062.07 306.325 1062.07 307.506C1062.07 308.688 1061.72 309.842 1061.06 310.825C1060.41 311.807 1059.47 312.573 1058.38 313.025C1057.29 313.477 1056.09 313.596 1054.93 313.366Z" fill="#00C2FF"/>
</g>
</g>
<g style="mix-blend-mode:color-dodge">
<g style="mix-blend-mode:color-dodge">
<path fill-rule="evenodd" clip-rule="evenodd" d="M886.996 -189L864.165 -166.184V266.251C867.091 266.639 869.348 269.142 869.348 272.172C869.348 275.472 866.672 278.146 863.37 278.146C860.069 278.146 857.392 275.472 857.392 272.172C857.392 269.142 859.649 266.639 862.575 266.251V-166.852L884.738 -189H886.996Z" fill="#00C2FF"/>
</g>
</g>
<g style="mix-blend-mode:color-dodge">
<g style="mix-blend-mode:color-dodge">
<path fill-rule="evenodd" clip-rule="evenodd" d="M851.478 -189L825.722 -163.293V289.513C826.622 289.633 827.487 289.958 828.248 290.466C829.231 291.123 829.997 292.056 830.45 293.147C830.902 294.239 831.021 295.44 830.79 296.599C830.559 297.758 829.99 298.822 829.154 299.658C828.318 300.493 827.253 301.062 826.093 301.293C824.933 301.523 823.731 301.405 822.639 300.953C821.547 300.501 820.613 299.735 819.956 298.752C819.299 297.77 818.949 296.615 818.949 295.433C818.949 293.849 819.579 292.33 820.7 291.209C821.632 290.278 822.84 289.686 824.132 289.513V-163.928L849.22 -189H851.478Z" fill="#00C2FF"/>
</g>
</g>
<g style="mix-blend-mode:color-dodge">
<g style="mix-blend-mode:color-dodge">
<path d="M554.803 -49.374V-189H553.213V-50.0413L429.583 73.5058L430.728 74.6497L554.803 -49.374Z" fill="#00C2FF"/>
</g>
<g style="mix-blend-mode:color-dodge">
<path d="M426.117 69.6625C425.282 70.4982 424.713 71.5627 424.483 72.7214C424.252 73.8801 424.371 75.0809 424.824 76.1722C425.276 77.2635 426.043 78.1961 427.026 78.8523C428.008 79.5085 429.164 79.8587 430.346 79.8587C431.528 79.8587 432.684 79.5085 433.667 78.8523C434.65 78.1961 435.416 77.2635 435.869 76.1722C436.321 75.0809 436.44 73.8801 436.21 72.7214C435.98 71.5627 435.411 70.4982 434.575 69.6625C433.45 68.5487 431.93 67.9238 430.346 67.9238C428.762 67.9238 427.242 68.5487 426.117 69.6625Z" fill="#00C2FF"/>
</g>
</g>
<g style="mix-blend-mode:color-dodge">
<g style="mix-blend-mode:color-dodge">
<path d="M551.369 1.30922C552.205 0.474324 553.27 -0.0940677 554.43 -0.324109C555.589 -0.55415 556.791 -0.435497 557.883 0.0168274C558.975 0.469152 559.908 1.23485 560.565 2.21714C561.221 3.19943 561.572 4.3542 561.572 5.5355C561.572 6.7168 561.221 7.87156 560.565 8.85385C559.908 9.83614 558.975 10.6018 557.883 11.0542C556.791 11.5065 555.589 11.6251 554.43 11.3951C553.27 11.1651 552.205 10.5967 551.369 9.76177C550.254 8.63718 549.629 7.11833 549.629 5.5355C549.629 3.95266 550.254 2.43382 551.369 1.30922Z" fill="#00C2FF"/>
</g>
<g style="mix-blend-mode:color-dodge">
<path fill-rule="evenodd" clip-rule="evenodd" d="M476.644 299.166C479.585 299.54 481.859 302.051 481.859 305.092C481.859 308.391 479.183 311.066 475.881 311.066C472.579 311.066 469.903 308.391 469.903 305.092C469.903 302.073 472.144 299.577 475.054 299.175V84.8517L555.248 4.74316L556.361 5.85534L476.644 85.5191V299.166Z" fill="#00C2FF"/>
</g>
</g>
<ellipse cx="1208.5" cy="241" rx="68" ry="19.5" transform="rotate(-90 1208.5 241)" fill="url(#paint3_radial)" fill-opacity="0.4"/>
<ellipse cx="619.5" cy="256" rx="68" ry="19.5" transform="rotate(-90 619.5 256)" fill="url(#paint4_radial)" fill-opacity="0.4"/>
<ellipse cx="900.5" cy="241" rx="68" ry="19.5" transform="rotate(-90 900.5 241)" fill="url(#paint5_radial)" fill-opacity="0.4"/>
<g style="mix-blend-mode:color-dodge">
<g style="mix-blend-mode:color-dodge">
<path fill-rule="evenodd" clip-rule="evenodd" d="M-50 925.967H47.3811L178.971 1057.65C179.669 1057.12 180.482 1056.75 181.35 1056.58C182.468 1056.35 183.627 1056.47 184.68 1056.91C185.733 1057.34 186.633 1058.08 187.266 1059.03C187.899 1059.98 188.237 1061.09 188.237 1062.23C188.237 1063.37 187.899 1064.49 187.266 1065.44C186.633 1066.38 185.733 1067.12 184.68 1067.56C183.627 1068 182.468 1068.11 181.35 1067.89C180.232 1067.67 179.205 1067.12 178.399 1066.31C177.324 1065.23 176.721 1063.76 176.721 1062.23C176.721 1060.96 177.139 1059.73 177.9 1058.73L46.7372 927.501H-50V925.967Z" fill="#00C2FF"/>
</g>
<ellipse cx="238.5" cy="759" rx="189.5" ry="24" fill="url(#paint6_radial)" fill-opacity="0.4"/>
</g>
<g style="mix-blend-mode:color-dodge">
<g style="mix-blend-mode:color-dodge">
<path fill-rule="evenodd" clip-rule="evenodd" d="M302.124 22.5625C301.176 23.1962 300.061 23.5345 298.921 23.5345C297.393 23.5345 295.926 22.9268 294.845 21.8453C293.947 20.9461 293.375 19.7805 293.208 18.5341H142.484L55.8035 105.257H-117.373L-171 158.911V156.733L-118.017 103.723H55.1902L141.87 17.0002H293.208C293.325 16.1316 293.638 15.2974 294.128 14.5631C294.762 13.6147 295.662 12.8755 296.715 12.439C297.769 12.0025 298.928 11.8883 300.046 12.1108C301.164 12.3333 302.191 12.8826 302.997 13.6892C303.804 14.4957 304.353 15.5234 304.575 16.6421C304.797 17.7608 304.683 18.9204 304.247 19.9743C303.811 21.0281 303.072 21.9288 302.124 22.5625Z" fill="#00C2FF"/>
</g>
</g>
<g style="mix-blend-mode:color-dodge">
<g style="mix-blend-mode:color-dodge">
<path fill-rule="evenodd" clip-rule="evenodd" d="M272.75 764.265C271.802 764.899 270.687 765.237 269.547 765.237C268.018 765.237 266.552 764.629 265.471 763.548C264.572 762.649 264.001 761.483 263.834 760.237H-61.5996L-105.507 804.166H-171V802.632H-106.12L-62.2435 758.703H263.834C263.95 757.834 264.264 757 264.754 756.266C265.388 755.317 266.288 754.578 267.341 754.142C268.395 753.705 269.553 753.591 270.672 753.813C271.79 754.036 272.817 754.585 273.623 755.392C274.429 756.198 274.978 757.226 275.201 758.345C275.423 759.463 275.309 760.623 274.873 761.677C274.436 762.731 273.698 763.631 272.75 764.265Z" fill="#00C2FF"/>
</g>
</g>
<g style="mix-blend-mode:color-dodge">
<g style="mix-blend-mode:color-dodge">
<path fill-rule="evenodd" clip-rule="evenodd" d="M-138.407 271.496L-71.9325 338.003H121.348C121.465 337.134 121.778 336.3 122.269 335.566C122.902 334.617 123.802 333.878 124.856 333.442C125.909 333.005 127.068 332.891 128.186 333.113C129.304 333.336 130.331 333.885 131.138 334.692C131.944 335.498 132.493 336.526 132.715 337.645C132.938 338.764 132.823 339.923 132.387 340.977C131.951 342.031 131.212 342.931 130.264 343.565C129.316 344.199 128.202 344.537 127.061 344.537C125.533 344.537 124.066 343.93 122.985 342.848C122.087 341.949 121.515 340.783 121.348 339.537H-72.5458L-139.02 273.029H-171V271.496H-138.407Z" fill="#00C2FF"/>
</g>
</g>
<g style="mix-blend-mode:color-dodge">
<g style="mix-blend-mode:color-dodge">
<path fill-rule="evenodd" clip-rule="evenodd" d="M183.142 705.786C183.142 708.971 180.561 711.553 177.377 711.553C174.454 711.553 172.038 709.375 171.664 706.553H-71.7179L-135.402 770.268H-171V768.734H-136.015L-72.3618 705.019H171.664C172.038 702.196 174.454 700.019 177.377 700.019C180.561 700.019 183.142 702.601 183.142 705.786Z" fill="#00C2FF"/>
</g>
</g>
<g style="mix-blend-mode:color-dodge">
<g style="mix-blend-mode:color-dodge">
<path fill-rule="evenodd" clip-rule="evenodd" d="M163.682 366.891C163.46 368.01 162.912 369.037 162.106 369.844C161.021 370.92 159.555 371.523 158.028 371.523C156.756 371.523 155.526 371.104 154.524 370.343L93.2719 431.597H-171V430.063H92.628L153.423 369.237C152.904 368.547 152.544 367.746 152.374 366.891C152.152 365.773 152.267 364.613 152.703 363.56C153.139 362.506 153.878 361.606 154.826 360.973C155.774 360.339 156.888 360.001 158.028 360.001C159.168 360.001 160.282 360.339 161.23 360.973C162.178 361.606 162.917 362.506 163.353 363.56C163.79 364.613 163.904 365.773 163.682 366.891Z" fill="#00C2FF"/>
</g>
</g>
<g style="mix-blend-mode:color-dodge">
<g style="mix-blend-mode:color-dodge">
<path fill-rule="evenodd" clip-rule="evenodd" d="M-45.7169 651.917H235.756L314.748 730.919C315.716 730.182 316.924 729.744 318.235 729.744C321.419 729.744 324 732.326 324 735.511C324 738.696 321.419 741.278 318.235 741.278C315.052 741.278 312.471 738.696 312.471 735.511C312.471 734.2 312.908 732.99 313.645 732.021L235.143 653.451H-45.1037L-112.958 721.369H-171V719.835H-113.602L-45.7169 651.917Z" fill="#00C2FF"/>
</g>
</g>
<g style="mix-blend-mode:color-dodge">
<g style="mix-blend-mode:color-dodge">
<path fill-rule="evenodd" clip-rule="evenodd" d="M178.449 345.64C177.309 345.64 176.195 345.302 175.247 344.668C174.299 344.035 173.56 343.134 173.124 342.08C172.688 341.026 172.573 339.867 172.796 338.748C173.018 337.629 173.567 336.602 174.373 335.795C175.18 334.989 176.207 334.439 177.325 334.217C178.443 333.994 179.602 334.108 180.655 334.545C181.709 334.981 182.609 335.721 183.242 336.669C183.727 337.395 184.039 338.218 184.158 339.076H238.418C238.537 338.218 238.849 337.395 239.334 336.669C239.967 335.721 240.867 334.981 241.921 334.545C242.974 334.108 244.133 333.994 245.251 334.217C246.369 334.439 247.397 334.989 248.203 335.795C249.009 336.602 249.558 337.629 249.78 338.748C250.003 339.867 249.889 341.026 249.452 342.08C249.016 343.134 248.277 344.035 247.329 344.668C246.381 345.302 245.267 345.64 244.127 345.64C242.598 345.64 241.132 345.033 240.051 343.951C239.145 343.045 238.571 341.867 238.409 340.609H184.167C184.005 341.867 183.432 343.045 182.525 343.951C181.444 345.033 179.978 345.64 178.449 345.64Z" fill="#00C2FF"/>
</g>
</g>
<g style="mix-blend-mode:color-dodge">
<g style="mix-blend-mode:color-dodge">
<path fill-rule="evenodd" clip-rule="evenodd" d="M-171 351.255L-144.631 377.637H64.0468C64.1665 376.78 64.4783 375.957 64.9629 375.231C65.5963 374.282 66.4966 373.543 67.5499 373.107C68.6032 372.67 69.7622 372.556 70.8804 372.779C71.9986 373.001 73.0257 373.55 73.8319 374.357C74.638 375.163 75.187 376.191 75.4095 377.31C75.6319 378.429 75.5177 379.588 75.0814 380.642C74.6451 381.696 73.9063 382.597 72.9584 383.23C72.0104 383.864 70.8959 384.202 69.7558 384.202C68.227 384.202 66.7608 383.595 65.6798 382.513C64.7737 381.607 64.2004 380.429 64.0386 379.171H-145.275L-171 353.433V351.255Z" fill="#00C2FF"/>
</g>
</g>
<g style="mix-blend-mode:color-dodge">
<g style="mix-blend-mode:color-dodge">
<path d="M141.196 56.2056L30.3544 167.133H-96.6764L-168.915 239.407H-171V240.941H-168.302L-96.0632 168.667H30.9982L141.84 57.7394H286.746V56.2056H141.196Z" fill="#00C2FF"/>
</g>
<g style="mix-blend-mode:color-dodge">
<path d="M286.471 62.7395C289.654 62.7395 292.235 60.1575 292.235 56.9723C292.235 53.7872 289.654 51.2051 286.471 51.2051C283.287 51.2051 280.707 53.7872 280.707 56.9723C280.707 60.1575 283.287 62.7395 286.471 62.7395Z" fill="#00C2FF"/>
</g>
</g>
<g style="mix-blend-mode:color-dodge">
<g style="mix-blend-mode:color-dodge">
<path fill-rule="evenodd" clip-rule="evenodd" d="M298.808 217.925C298.586 219.044 298.038 220.072 297.232 220.878C296.147 221.954 294.682 222.557 293.154 222.557C291.882 222.557 290.653 222.139 289.651 221.377L207.854 303.215H-49.3657L-99.16 253.365H-171V251.831H-98.5468L-48.7218 301.681H207.21L288.562 220.288C288.036 219.594 287.671 218.787 287.5 217.925C287.278 216.807 287.393 215.648 287.829 214.594C288.266 213.541 289.005 212.64 289.952 212.007C290.9 211.373 292.014 211.035 293.154 211.035C294.294 211.035 295.408 211.373 296.356 212.007C297.304 212.64 298.043 213.541 298.479 214.594C298.916 215.648 299.03 216.807 298.808 217.925Z" fill="#00C2FF"/>
</g>
</g>
<g style="mix-blend-mode:color-dodge">
<g style="mix-blend-mode:color-dodge">
<path fill-rule="evenodd" clip-rule="evenodd" d="M-85.9136 223.486H60.8939L150.548 133.756H269.484L307.265 171.556C306.968 171.947 306.721 172.375 306.532 172.831C306.242 173.528 306.093 174.276 306.093 175.032C306.093 175.787 306.242 176.535 306.532 177.232C306.821 177.93 307.246 178.563 307.781 179.096C308.585 179.907 309.612 180.46 310.732 180.685C311.851 180.911 313.012 180.799 314.067 180.363C315.123 179.928 316.025 179.189 316.66 178.24C317.295 177.29 317.635 176.174 317.635 175.032C317.635 173.889 317.295 172.773 316.66 171.824C316.025 170.874 315.123 170.135 314.067 169.7C313.012 169.264 311.851 169.152 310.732 169.378C309.862 169.553 309.048 169.926 308.351 170.464L270.128 132.222H149.935L60.25 221.952H-85.9136V223.486Z" fill="#00C2FF"/>
</g>
</g>
<g style="mix-blend-mode:color-dodge">
<g style="mix-blend-mode:color-dodge">
<path fill-rule="evenodd" clip-rule="evenodd" d="M247.334 196.377C246.386 197.011 245.272 197.349 244.132 197.349C242.603 197.349 241.137 196.741 240.056 195.66C239.149 194.753 238.576 193.576 238.414 192.318H184.184L115.686 260.881H-36.0889V259.347H115.042L183.54 190.784H238.423C238.542 189.927 238.854 189.103 239.339 188.378C239.972 187.429 240.872 186.69 241.926 186.253C242.979 185.817 244.138 185.703 245.256 185.925C246.374 186.148 247.401 186.697 248.208 187.504C249.014 188.31 249.563 189.338 249.785 190.457C250.008 191.575 249.893 192.735 249.457 193.789C249.021 194.843 248.282 195.743 247.334 196.377Z" fill="#00C2FF"/>
</g>
</g>
<g style="mix-blend-mode:color-dodge">
<g style="mix-blend-mode:color-dodge">
<path fill-rule="evenodd" clip-rule="evenodd" d="M313.739 340.08C313.517 341.198 312.969 342.226 312.163 343.033C311.078 344.108 309.612 344.711 308.085 344.711C306.813 344.711 305.583 344.293 304.581 343.531L197.886 450.279H-93.3984V448.745H197.242L303.492 342.442C302.966 341.748 302.602 340.941 302.431 340.08C302.209 338.961 302.323 337.802 302.76 336.748C303.196 335.695 303.935 334.794 304.883 334.161C305.831 333.528 306.945 333.189 308.085 333.189C309.225 333.189 310.339 333.528 311.287 334.161C312.235 334.794 312.974 335.695 313.41 336.748C313.846 337.802 313.961 338.961 313.739 340.08Z" fill="#00C2FF"/>
</g>
</g>
<g style="mix-blend-mode:color-dodge">
<g style="mix-blend-mode:color-dodge">
<path fill-rule="evenodd" clip-rule="evenodd" d="M-171 502.092L-148.985 524.118H268.277C268.652 521.295 271.068 519.118 273.991 519.118C277.175 519.118 279.756 521.7 279.756 524.885C279.756 528.07 277.175 530.652 273.991 530.652C271.067 530.652 268.652 528.474 268.277 525.652H-149.629L-171 504.27V502.092Z" fill="#00C2FF"/>
</g>
</g>
<g style="mix-blend-mode:color-dodge">
<g style="mix-blend-mode:color-dodge">
<path fill-rule="evenodd" clip-rule="evenodd" d="M-171 536.357L-146.195 561.206H290.723C290.839 560.337 291.152 559.503 291.643 558.768C292.276 557.82 293.177 557.081 294.23 556.644C295.283 556.208 296.442 556.094 297.56 556.316C298.678 556.539 299.706 557.088 300.512 557.895C301.318 558.701 301.867 559.729 302.089 560.847C302.312 561.966 302.198 563.126 301.761 564.18C301.325 565.233 300.586 566.134 299.638 566.768C298.69 567.402 297.576 567.74 296.436 567.74C294.907 567.74 293.441 567.132 292.36 566.051C291.461 565.151 290.89 563.986 290.723 562.74H-146.808L-171 538.536V536.357Z" fill="#00C2FF"/>
</g>
</g>
<g style="mix-blend-mode:color-dodge">
<g style="mix-blend-mode:color-dodge">
<path fill-rule="evenodd" clip-rule="evenodd" d="M-8 906.572H126.727L242.175 1022.05C242.869 1021.52 243.677 1021.16 244.538 1020.98C245.656 1020.76 246.815 1020.88 247.868 1021.31C248.921 1021.75 249.821 1022.49 250.454 1023.44C251.087 1024.39 251.425 1025.5 251.425 1026.64C251.425 1027.78 251.087 1028.9 250.454 1029.84C249.821 1030.79 248.921 1031.53 247.868 1031.97C246.815 1032.41 245.656 1032.52 244.538 1032.3C243.42 1032.08 242.393 1031.53 241.587 1030.72C240.512 1029.64 239.909 1028.17 239.909 1026.64C239.909 1025.38 240.322 1024.15 241.074 1023.15L126.083 908.106H-8V906.572Z" fill="#00C2FF"/>
</g>
</g>
<g style="mix-blend-mode:color-dodge">
<g style="mix-blend-mode:color-dodge">
<path fill-rule="evenodd" clip-rule="evenodd" d="M31.0557 792.932C31.2776 794.051 31.8261 795.078 32.6317 795.885C33.7168 796.961 35.1824 797.564 36.7097 797.564C37.9746 797.564 39.1971 797.15 40.1962 796.397L113.243 869.509H326.065V867.976H113.887L41.2763 795.329C41.8165 794.627 42.19 793.807 42.3637 792.932C42.5857 791.814 42.4712 790.654 42.0347 789.601C41.5983 788.547 40.8594 787.647 39.9116 787.014C38.9638 786.38 37.8495 786.042 36.7097 786.042C35.5698 786.042 34.4556 786.38 33.5078 787.014C32.5599 787.647 31.8211 788.547 31.3846 789.601C30.9482 790.654 30.8337 791.814 31.0557 792.932Z" fill="#00C2FF"/>
</g>
<g style="mix-blend-mode:color-dodge">
<path d="M325.755 874.479C328.939 874.479 331.519 871.897 331.519 868.712C331.519 865.527 328.939 862.945 325.755 862.945C322.572 862.945 319.991 865.527 319.991 868.712C319.991 871.897 322.572 874.479 325.755 874.479Z" fill="#00C2FF"/>
</g>
</g>
<ellipse cx="21.5" cy="381" rx="189.5" ry="24" fill="url(#paint7_radial)" fill-opacity="0.4"/>
</g>
<defs>
<radialGradient id="paint0_radial" cx="0" cy="0" r="1" gradientUnits="userSpaceOnUse" gradientTransform="translate(1529 849.5) rotate(90) scale(24 189.5)">
<stop stop-color="#00C2FF"/>
<stop offset="0.529516" stop-color="#02FFE1" stop-opacity="0.16"/>
<stop offset="1" stop-color="#02FFE1" stop-opacity="0"/>
</radialGradient>
<radialGradient id="paint1_radial" cx="0" cy="0" r="1" gradientUnits="userSpaceOnUse" gradientTransform="translate(1736 645.5) rotate(90) scale(24 189.5)">
<stop stop-color="#00C2FF"/>
<stop offset="0.529516" stop-color="#02FFE1" stop-opacity="0.16"/>
<stop offset="1" stop-color="#02FFE1" stop-opacity="0"/>
</radialGradient>
<radialGradient id="paint2_radial" cx="0" cy="0" r="1" gradientUnits="userSpaceOnUse" gradientTransform="translate(694.997 795.5) rotate(90) scale(24 189.5)">
<stop stop-color="#00C2FF"/>
<stop offset="0.529516" stop-color="#02FFE1" stop-opacity="0.16"/>
<stop offset="1" stop-color="#02FFE1" stop-opacity="0"/>
</radialGradient>
<radialGradient id="paint3_radial" cx="0" cy="0" r="1" gradientUnits="userSpaceOnUse" gradientTransform="translate(1208.5 241) rotate(90) scale(19.5 68)">
<stop stop-color="#00C2FF"/>
<stop offset="0.529516" stop-color="#02FFE1" stop-opacity="0.16"/>
<stop offset="1" stop-color="#02FFE1" stop-opacity="0"/>
</radialGradient>
<radialGradient id="paint4_radial" cx="0" cy="0" r="1" gradientUnits="userSpaceOnUse" gradientTransform="translate(619.5 256) rotate(90) scale(19.5 68)">
<stop stop-color="#00C2FF"/>
<stop offset="0.529516" stop-color="#02FFE1" stop-opacity="0.16"/>
<stop offset="1" stop-color="#02FFE1" stop-opacity="0"/>
</radialGradient>
<radialGradient id="paint5_radial" cx="0" cy="0" r="1" gradientUnits="userSpaceOnUse" gradientTransform="translate(900.5 241) rotate(90) scale(19.5 68)">
<stop stop-color="#00C2FF"/>
<stop offset="0.529516" stop-color="#02FFE1" stop-opacity="0.16"/>
<stop offset="1" stop-color="#02FFE1" stop-opacity="0"/>
</radialGradient>
<radialGradient id="paint6_radial" cx="0" cy="0" r="1" gradientUnits="userSpaceOnUse" gradientTransform="translate(238.5 759) rotate(90) scale(24 189.5)">
<stop stop-color="#00C2FF"/>
<stop offset="0.529516" stop-color="#02FFE1" stop-opacity="0.16"/>
<stop offset="1" stop-color="#02FFE1" stop-opacity="0"/>
</radialGradient>
<radialGradient id="paint7_radial" cx="0" cy="0" r="1" gradientUnits="userSpaceOnUse" gradientTransform="translate(21.5 381) rotate(90) scale(24 189.5)">
<stop stop-color="#00C2FF"/>
<stop offset="0.529516" stop-color="#02FFE1" stop-opacity="0.16"/>
<stop offset="1" stop-color="#02FFE1" stop-opacity="0"/>
</radialGradient>
<clipPath id="clip0">
<rect width="1920" height="1080" fill="white"/>
</clipPath>
</defs>
</svg>
