<svg width="1920" height="1373" viewBox="0 0 1920 1373" fill="none" xmlns="http://www.w3.org/2000/svg">
<g clip-path="url(#clip0)">
<g style="mix-blend-mode:color-dodge">
<g style="mix-blend-mode:color-dodge">
<path d="M1549.82 89.2475L1459.92 -0.584686V-180.09L1404.98 -235H1402.72L1458.33 -179.423V0.0508575L1548.23 89.8831V252.293H1549.82V89.2475Z" fill="#00C2FF"/>
</g>
<g style="mix-blend-mode:color-dodge">
<path d="M1543.04 252.009C1543.04 253.19 1543.39 254.345 1544.05 255.328C1544.71 256.31 1545.64 257.076 1546.73 257.528C1547.83 257.98 1549.03 258.098 1550.19 257.868C1551.35 257.637 1552.41 257.068 1553.25 256.233C1554.09 255.397 1554.65 254.333 1554.89 253.174C1555.12 252.015 1555 250.814 1554.54 249.722C1554.09 248.631 1553.33 247.698 1552.34 247.042C1551.36 246.385 1550.2 246.035 1549.02 246.035C1547.44 246.035 1545.92 246.664 1544.79 247.784C1543.67 248.905 1543.04 250.424 1543.04 252.009Z" fill="#00C2FF"/>
</g>
</g>
<g style="mix-blend-mode:color-dodge">
<g style="mix-blend-mode:color-dodge">
<path fill-rule="evenodd" clip-rule="evenodd" d="M775.239 224.886C774.582 223.903 774.232 222.748 774.232 221.567C774.232 219.982 774.861 218.463 775.982 217.342C776.914 216.411 778.122 215.819 779.414 215.646V-121.621L733.879 -167.125V-235H735.469V-167.761L781.004 -122.289V215.646C781.904 215.766 782.769 216.091 783.531 216.599C784.514 217.256 785.28 218.189 785.732 219.28C786.185 220.372 786.303 221.573 786.073 222.732C785.842 223.891 785.273 224.955 784.437 225.791C783.601 226.626 782.535 227.195 781.376 227.426C780.216 227.656 779.014 227.538 777.922 227.086C776.829 226.634 775.896 225.868 775.239 224.886Z" fill="#00C2FF"/>
</g>
</g>
<g style="mix-blend-mode:color-dodge">
<g style="mix-blend-mode:color-dodge">
<path d="M1196.35 -132.33L1265.29 -201.222V-235H1263.7V-201.857L1194.76 -132.966V74.1855H1196.35V-132.33Z" fill="#00C2FF"/>
</g>
<g style="mix-blend-mode:color-dodge">
<path d="M1189.58 73.8998C1189.58 75.0813 1189.93 76.2363 1190.59 77.2187C1191.24 78.2011 1192.18 78.9668 1193.27 79.419C1194.36 79.8712 1195.56 79.9895 1196.72 79.759C1197.88 79.5285 1198.95 78.9595 1199.78 78.124C1200.62 77.2885 1201.19 76.2241 1201.42 75.0652C1201.65 73.9064 1201.53 72.7052 1201.08 71.6136C1200.63 70.522 1199.86 69.589 1198.88 68.9326C1197.9 68.2761 1196.74 67.9258 1195.56 67.9258C1193.97 67.9258 1192.45 68.5552 1191.33 69.6755C1190.21 70.7959 1189.58 72.3154 1189.58 73.8998Z" fill="#00C2FF"/>
</g>
</g>
<g style="mix-blend-mode:color-dodge">
<g style="mix-blend-mode:color-dodge">
<path fill-rule="evenodd" clip-rule="evenodd" d="M835.858 132.019C832.556 132.019 829.88 129.345 829.88 126.045C829.88 123.015 832.137 120.512 835.062 120.124V-132.108L769.018 -198.107V-235H770.608V-198.743L836.652 -132.775V120.124C839.578 120.512 841.836 123.015 841.836 126.045C841.836 129.345 839.159 132.019 835.858 132.019Z" fill="#00C2FF"/>
</g>
</g>
<g style="mix-blend-mode:color-dodge">
<g style="mix-blend-mode:color-dodge">
<path d="M1189.1 105.612L1121.66 38.2144V-235H1120.07V38.8817L1187.96 106.756L1189.1 105.612Z" fill="#00C2FF"/>
</g>
<g style="mix-blend-mode:color-dodge">
<path d="M1184.08 110.219C1184.91 111.054 1185.98 111.623 1187.14 111.853C1188.3 112.083 1189.5 111.964 1190.59 111.512C1191.68 111.059 1192.62 110.294 1193.27 109.311C1193.93 108.329 1194.28 107.174 1194.28 105.993C1194.28 104.812 1193.93 103.657 1193.27 102.675C1192.62 101.692 1191.68 100.927 1190.59 100.474C1189.5 100.022 1188.3 99.9034 1187.14 100.133C1185.98 100.363 1184.91 100.932 1184.08 101.767C1182.96 102.891 1182.34 104.41 1182.34 105.993C1182.34 107.576 1182.96 109.095 1184.08 110.219Z" fill="#00C2FF"/>
</g>
</g>
<g style="mix-blend-mode:color-dodge">
<g style="mix-blend-mode:color-dodge">
<path fill-rule="evenodd" clip-rule="evenodd" d="M891.695 -105.161V186.547L809.806 268.411C810.57 269.415 811.023 270.667 811.023 272.025C811.023 275.325 808.347 277.999 805.045 277.999C801.744 277.999 799.067 275.325 799.067 272.025C799.067 268.726 801.744 266.051 805.045 266.051C806.405 266.051 807.659 266.505 808.663 267.269L890.105 185.912V-104.526L819.705 -174.847V-235H821.295V-175.514L891.695 -105.161Z" fill="#00C2FF"/>
</g>
</g>
<g style="mix-blend-mode:color-dodge">
<g style="mix-blend-mode:color-dodge">
<path fill-rule="evenodd" clip-rule="evenodd" d="M1085.03 -235L1061.24 -211.263V194.482C1062.14 194.603 1063.01 194.928 1063.77 195.436C1064.75 196.092 1065.52 197.025 1065.97 198.117C1066.42 199.209 1066.54 200.41 1066.31 201.569C1066.08 202.727 1065.51 203.792 1064.67 204.627C1063.84 205.463 1062.77 206.032 1061.61 206.262C1060.45 206.493 1059.25 206.375 1058.16 205.922C1057.07 205.47 1056.13 204.705 1055.48 203.722C1054.82 202.74 1054.47 201.585 1054.47 200.403C1054.47 198.819 1055.1 197.299 1056.22 196.179C1057.15 195.248 1058.36 194.655 1059.65 194.482V-211.898L1082.77 -235H1085.03Z" fill="#00C2FF"/>
</g>
</g>
<g style="mix-blend-mode:color-dodge">
<g style="mix-blend-mode:color-dodge">
<path fill-rule="evenodd" clip-rule="evenodd" d="M1209.17 127.157C1209.17 125.975 1209.52 124.82 1210.17 123.838C1210.83 122.855 1211.76 122.09 1212.86 121.637C1213.95 121.185 1215.15 121.067 1216.31 121.297C1217.47 121.528 1218.53 122.097 1219.37 122.932C1220.21 123.768 1220.78 124.832 1221.01 125.991C1221.24 127.15 1221.12 128.351 1220.67 129.443C1220.21 130.534 1219.45 131.467 1218.46 132.124C1217.71 132.626 1216.86 132.949 1215.97 133.073V189.305C1216.86 189.429 1217.71 189.752 1218.46 190.255C1219.45 190.911 1220.21 191.844 1220.67 192.936C1221.12 194.027 1221.24 195.228 1221.01 196.387C1220.78 197.546 1220.21 198.611 1219.37 199.446C1218.53 200.282 1217.47 200.85 1216.31 201.081C1215.15 201.311 1213.95 201.193 1212.86 200.741C1211.76 200.289 1210.83 199.523 1210.17 198.541C1209.52 197.558 1209.17 196.403 1209.17 195.222C1209.17 193.637 1209.79 192.118 1210.92 190.998C1211.86 190.059 1213.08 189.465 1214.38 189.297V133.082C1213.08 132.914 1211.86 132.32 1210.92 131.381C1209.79 130.261 1209.17 128.741 1209.17 127.157Z" fill="#00C2FF"/>
</g>
</g>
<g style="mix-blend-mode:color-dodge">
<g style="mix-blend-mode:color-dodge">
<path fill-rule="evenodd" clip-rule="evenodd" d="M1182.61 -235L1155.27 -207.672V8.59407C1156.16 8.71815 1157.01 9.04123 1157.76 9.54343C1158.74 10.1999 1159.51 11.1329 1159.96 12.2245C1160.42 13.3161 1160.53 14.5172 1160.3 15.6761C1160.07 16.8349 1159.5 17.8994 1158.67 18.7349C1157.83 19.5703 1156.77 20.1393 1155.61 20.3698C1154.45 20.6003 1153.24 20.482 1152.15 20.0298C1151.06 19.5777 1150.13 18.812 1149.47 17.8296C1148.81 16.8472 1148.46 15.6922 1148.46 14.5106C1148.46 12.9262 1149.09 11.4067 1150.21 10.2864C1151.15 9.34724 1152.37 8.75307 1153.68 8.58543V-208.34L1180.36 -235H1182.61Z" fill="#00C2FF"/>
</g>
</g>
<g style="mix-blend-mode:color-dodge">
<g style="mix-blend-mode:color-dodge">
<path d="M1509.18 88.5484L1394.2 -26.3237V-157.974L1319.28 -232.839V-235H1317.69V-232.204L1392.61 -157.338V-25.6564L1507.59 89.2158V239.392H1509.18V88.5484Z" fill="#00C2FF"/>
</g>
<g style="mix-blend-mode:color-dodge">
<path d="M1502.41 239.106C1502.41 242.406 1505.08 245.08 1508.39 245.08C1511.69 245.08 1514.36 242.406 1514.36 239.106C1514.36 235.807 1511.69 233.132 1508.39 233.132C1505.08 233.132 1502.41 235.807 1502.41 239.106Z" fill="#00C2FF"/>
</g>
</g>
<g style="mix-blend-mode:color-dodge">
<g style="mix-blend-mode:color-dodge">
<path d="M1333.11 245.651L1244.37 156.963V-108.275L1296.04 -159.912V-235H1294.45V-160.548L1242.78 -108.943V157.631L1332 246.795L1333.11 245.651Z" fill="#00C2FF"/>
</g>
<g style="mix-blend-mode:color-dodge">
<path d="M1328.12 250.259C1328.96 251.094 1330.02 251.662 1331.18 251.892C1332.34 252.122 1333.54 252.004 1334.64 251.552C1335.73 251.099 1336.66 250.333 1337.32 249.351C1337.97 248.369 1338.32 247.214 1338.32 246.033C1338.32 244.852 1337.97 243.697 1337.32 242.714C1336.66 241.732 1335.73 240.966 1334.64 240.514C1333.54 240.062 1332.34 239.943 1331.18 240.173C1330.02 240.403 1328.96 240.972 1328.12 241.807C1327.01 242.931 1326.38 244.45 1326.38 246.033C1326.38 247.616 1327.01 249.134 1328.12 250.259Z" fill="#00C2FF"/>
</g>
</g>
<g style="mix-blend-mode:color-dodge">
<g style="mix-blend-mode:color-dodge">
<path d="M1335.78 5.32587V-146.82H1337.37V4.65855L1430.38 97.6049V222.169L1386.37 266.147L1385.26 265.004L1428.79 221.501V98.2404L1335.78 5.32587Z" fill="#00C2FF"/>
</g>
<g style="mix-blend-mode:color-dodge">
<path d="M1381.8 261.19C1380.96 262.024 1380.38 263.089 1380.15 264.248C1379.92 265.408 1380.03 266.612 1380.48 267.705C1380.93 268.799 1381.7 269.735 1382.69 270.393C1383.67 271.051 1384.83 271.402 1386.01 271.402C1387.19 271.402 1388.35 271.051 1389.34 270.393C1390.32 269.735 1391.09 268.799 1391.54 267.705C1391.99 266.612 1392.1 265.408 1391.87 264.248C1391.64 263.089 1391.06 262.024 1390.22 261.19C1389.67 260.636 1389.01 260.196 1388.29 259.896C1387.57 259.596 1386.79 259.441 1386.01 259.441C1385.23 259.441 1384.45 259.596 1383.73 259.896C1383.01 260.196 1382.35 260.636 1381.8 261.19Z" fill="#00C2FF"/>
</g>
</g>
<g style="mix-blend-mode:color-dodge">
<g style="mix-blend-mode:color-dodge">
<path d="M1297.02 62.1104V-95.1833H1298.61V61.4431L1369.68 132.432V195.508H1368.09V133.099L1297.02 62.1104Z" fill="#00C2FF"/>
</g>
<g style="mix-blend-mode:color-dodge">
<path d="M1362.88 195.226C1362.88 196.407 1363.23 197.562 1363.88 198.545C1364.54 199.527 1365.47 200.293 1366.57 200.745C1367.66 201.197 1368.86 201.316 1370.02 201.085C1371.18 200.855 1372.25 200.286 1373.08 199.45C1373.92 198.615 1374.49 197.55 1374.72 196.391C1374.95 195.233 1374.83 194.031 1374.38 192.94C1373.92 191.848 1373.16 190.915 1372.18 190.259C1371.19 189.602 1370.04 189.252 1368.85 189.252C1367.27 189.252 1365.75 189.881 1364.63 191.002C1363.51 192.122 1362.88 193.642 1362.88 195.226Z" fill="#00C2FF"/>
</g>
</g>
<g style="mix-blend-mode:color-dodge">
<g style="mix-blend-mode:color-dodge">
<path d="M1100.7 147.3V-154.577H1102.29V146.633L1216.89 261.155L1215.75 262.268L1100.7 147.3Z" fill="#00C2FF"/>
</g>
<g style="mix-blend-mode:color-dodge">
<path d="M1211.87 265.732C1212.7 266.567 1213.77 267.136 1214.93 267.366C1216.09 267.596 1217.29 267.477 1218.38 267.025C1219.47 266.573 1220.41 265.807 1221.06 264.825C1221.72 263.842 1222.07 262.688 1222.07 261.506C1222.07 260.325 1221.72 259.17 1221.06 258.188C1220.41 257.206 1219.47 256.44 1218.38 255.988C1217.29 255.535 1216.09 255.417 1214.93 255.647C1213.77 255.877 1212.7 256.445 1211.87 257.28C1210.75 258.405 1210.13 259.923 1210.13 261.506C1210.13 263.089 1210.75 264.608 1211.87 265.732Z" fill="#00C2FF"/>
</g>
</g>
<g style="mix-blend-mode:color-dodge">
<g style="mix-blend-mode:color-dodge">
<path fill-rule="evenodd" clip-rule="evenodd" d="M1047 -235L1024.17 -212.184V220.251C1027.09 220.64 1029.35 223.143 1029.35 226.172C1029.35 229.472 1026.67 232.146 1023.37 232.146C1020.07 232.146 1017.39 229.472 1017.39 226.172C1017.39 223.142 1019.65 220.639 1022.58 220.251V-212.852L1044.74 -235H1047Z" fill="#00C2FF"/>
</g>
</g>
<g style="mix-blend-mode:color-dodge">
<g style="mix-blend-mode:color-dodge">
<path fill-rule="evenodd" clip-rule="evenodd" d="M1011.48 -235L985.72 -209.293V243.513C986.62 243.633 987.485 243.958 988.246 244.466C989.229 245.123 989.995 246.056 990.447 247.147C990.9 248.239 991.018 249.44 990.787 250.599C990.557 251.758 989.987 252.822 989.151 253.658C988.315 254.493 987.25 255.062 986.091 255.293C984.931 255.523 983.729 255.405 982.637 254.953C981.544 254.501 980.611 253.735 979.954 252.752C979.297 251.77 978.946 250.615 978.946 249.433C978.946 247.849 979.576 246.33 980.697 245.209C981.629 244.278 982.838 243.685 984.13 243.512V-209.928L1009.22 -235H1011.48Z" fill="#00C2FF"/>
</g>
</g>
<g style="mix-blend-mode:color-dodge">
<g style="mix-blend-mode:color-dodge">
<path fill-rule="evenodd" clip-rule="evenodd" d="M714.805 -235V-95.374L595.108 24.2727C595.654 24.992 596.032 25.8286 596.21 26.7211C596.44 27.8798 596.321 29.0807 595.869 30.172C595.416 31.2632 594.65 32.1959 593.667 32.8521C592.684 33.5082 591.528 33.8585 590.346 33.8585C589.164 33.8585 588.008 33.5082 587.026 32.8521C586.043 32.1959 585.276 31.2632 584.824 30.172C584.371 29.0807 584.252 27.8798 584.483 26.7211C584.713 25.5625 585.282 24.498 586.117 23.6623C587.242 22.5484 588.762 21.9236 590.346 21.9236C591.658 21.9236 592.925 22.352 593.961 23.1317L713.215 -96.0413V-235H714.805Z" fill="#00C2FF"/>
</g>
</g>
<g style="mix-blend-mode:color-dodge">
<g style="mix-blend-mode:color-dodge">
<path fill-rule="evenodd" clip-rule="evenodd" d="M636.642 253.166C639.582 253.541 641.855 256.051 641.855 259.092C641.855 262.391 639.179 265.066 635.878 265.066C632.576 265.066 629.9 262.391 629.9 259.092C629.9 256.072 632.141 253.576 635.052 253.174V38.8515L715.246 -41.2571L716.359 -40.1449L636.642 39.5188V253.166Z" fill="#00C2FF"/>
</g>
</g>
<ellipse cx="779.5" cy="210" rx="68" ry="19.5" transform="rotate(-90 779.5 210)" fill="url(#paint0_radial)" fill-opacity="0.4"/>
<ellipse cx="1366.5" cy="195" rx="68" ry="19.5" transform="rotate(-90 1366.5 195)" fill="url(#paint1_radial)" fill-opacity="0.4"/>
</g>
<g clip-path="url(#clip1)">
<g style="mix-blend-mode:color-dodge">
<g style="mix-blend-mode:color-dodge">
<path d="M89.3811 808.967H-8V810.501H88.7372L224.139 945.969L225.212 944.896L89.3811 808.967Z" fill="#00C2FF"/>
</g>
<g style="mix-blend-mode:color-dodge">
<path d="M220.4 949.313C221.207 950.119 222.234 950.668 223.352 950.89C224.47 951.112 225.629 950.997 226.682 950.561C227.735 950.124 228.635 949.385 229.268 948.437C229.901 947.488 230.239 946.374 230.239 945.233C230.239 944.093 229.901 942.978 229.268 942.029C228.635 941.081 227.735 940.342 226.682 939.905C225.629 939.469 224.47 939.354 223.352 939.576C222.234 939.798 221.207 940.347 220.4 941.153C219.326 942.239 218.723 943.705 218.723 945.233C218.723 946.761 219.326 948.227 220.4 949.313Z" fill="#00C2FF"/>
</g>
</g>
<g style="mix-blend-mode:color-dodge">
<g style="mix-blend-mode:color-dodge">
<path d="M51.3811 888H-46V889.534H50.7372L186.139 1025L187.212 1023.93L51.3811 888Z" fill="#00C2FF"/>
</g>
</g>
<g style="mix-blend-mode:color-dodge">
<g style="mix-blend-mode:color-dodge">
<path d="M304.87 -28.9998L218.19 57.7234H44.9832L-8 110.733V112.911L45.627 59.2573H218.803L305.484 -27.4659H462.195V-28.9998H304.87Z" fill="#00C2FF"/>
</g>
</g>
<g style="mix-blend-mode:color-dodge">
<g style="mix-blend-mode:color-dodge">
<path fill-rule="evenodd" clip-rule="evenodd" d="M435.748 718.265C434.8 718.899 433.686 719.237 432.546 719.237C431.017 719.237 429.551 718.629 428.47 717.548C427.571 716.649 427 715.483 426.832 714.237H101.4L57.4931 758.166H-8V756.632H56.8798L100.757 712.703H426.832C426.949 711.834 427.262 711 427.753 710.266C428.386 709.317 429.286 708.578 430.34 708.142C431.393 707.705 432.552 707.591 433.67 707.813C434.788 708.036 435.815 708.585 436.622 709.392C437.428 710.198 437.977 711.226 438.199 712.345C438.422 713.463 438.307 714.623 437.871 715.677C437.435 716.731 436.696 717.631 435.748 718.265Z" fill="#00C2FF"/>
</g>
</g>
<g style="mix-blend-mode:color-dodge">
<g style="mix-blend-mode:color-dodge">
<path fill-rule="evenodd" clip-rule="evenodd" d="M24.5932 245.496L91.0675 312.003H284.348C284.465 311.135 284.778 310.3 285.268 309.566C285.902 308.618 286.802 307.878 287.855 307.442C288.909 307.005 290.068 306.891 291.186 307.114C292.304 307.336 293.331 307.886 294.137 308.692C294.943 309.499 295.492 310.526 295.715 311.645C295.937 312.764 295.823 313.923 295.387 314.977C294.951 316.031 294.212 316.932 293.264 317.565C292.316 318.199 291.201 318.537 290.061 318.537C288.532 318.537 287.066 317.93 285.985 316.848C285.086 315.949 284.515 314.783 284.348 313.537H90.4542L23.98 247.03H-8V245.496H24.5932Z" fill="#00C2FF"/>
</g>
</g>
<g style="mix-blend-mode:color-dodge">
<g style="mix-blend-mode:color-dodge">
<path fill-rule="evenodd" clip-rule="evenodd" d="M346.142 659.786C346.142 662.971 343.561 665.553 340.378 665.553C337.454 665.553 335.039 663.375 334.664 660.553H91.2821L27.5981 724.268H-8V722.734H26.9848L90.6382 659.019H334.664C335.039 656.196 337.454 654.019 340.378 654.019C343.561 654.019 346.142 656.601 346.142 659.786Z" fill="#00C2FF"/>
</g>
</g>
<g style="mix-blend-mode:color-dodge">
<g style="mix-blend-mode:color-dodge">
<path fill-rule="evenodd" clip-rule="evenodd" d="M117.283 605.917H398.756L477.748 684.919C478.716 684.182 479.924 683.744 481.235 683.744C484.419 683.744 487 686.326 487 689.511C487 692.696 484.419 695.278 481.235 695.278C478.052 695.278 475.471 692.696 475.471 689.511C475.471 688.2 475.908 686.99 476.645 686.021L398.143 607.451H117.896L50.0423 675.369H-8V673.835H49.3984L117.283 605.917Z" fill="#00C2FF"/>
</g>
</g>
<g style="mix-blend-mode:color-dodge">
<g style="mix-blend-mode:color-dodge">
<path fill-rule="evenodd" clip-rule="evenodd" d="M153.477 544.157C153.255 545.275 152.707 546.303 151.901 547.11C150.816 548.185 149.35 548.788 147.823 548.788C146.566 548.788 145.35 548.38 144.355 547.635L45.0445 647.024H-8V645.49H44.4006L143.27 546.572C142.723 545.866 142.344 545.04 142.169 544.157C141.947 543.038 142.061 541.879 142.498 540.826C142.934 539.772 143.673 538.872 144.621 538.238C145.569 537.605 146.683 537.267 147.823 537.267C148.963 537.267 150.077 537.605 151.025 538.238C151.973 538.872 152.712 539.772 153.148 540.826C153.584 541.879 153.699 543.038 153.477 544.157Z" fill="#00C2FF"/>
</g>
</g>
<g style="mix-blend-mode:color-dodge">
<g style="mix-blend-mode:color-dodge">
<path fill-rule="evenodd" clip-rule="evenodd" d="M49.6718 619.626C48.7208 620.267 47.6004 620.61 46.4539 620.61C44.9513 620.611 43.5079 620.024 42.4311 618.975C41.5021 618.071 40.9095 616.884 40.7387 615.61H-8V614.076H40.7387C40.8491 613.253 41.1366 612.459 41.5856 611.751C42.2002 610.783 43.0894 610.02 44.1397 609.56C45.1899 609.1 46.3535 608.964 47.4816 609.168C48.6096 609.373 49.651 609.91 50.4726 610.71C51.2942 611.51 51.8586 612.537 52.0937 613.66C52.3289 614.783 52.224 615.95 51.7926 617.013C51.3612 618.076 50.6228 618.986 49.6718 619.626Z" fill="#00C2FF"/>
</g>
</g>
<g style="mix-blend-mode:color-dodge">
<g style="mix-blend-mode:color-dodge">
<path fill-rule="evenodd" clip-rule="evenodd" d="M67.1537 554.933C67.1537 558.118 64.5729 560.7 61.3894 560.7C58.4657 560.7 56.0503 558.523 55.6755 555.7H-8V554.166H55.6755C56.0504 551.343 58.4657 549.166 61.3894 549.166C64.5729 549.166 67.1537 551.748 67.1537 554.933Z" fill="#00C2FF"/>
</g>
</g>
<g style="mix-blend-mode:color-dodge">
<g style="mix-blend-mode:color-dodge">
<path fill-rule="evenodd" clip-rule="evenodd" d="M341.448 299.64C340.308 299.64 339.193 299.302 338.245 298.668C337.298 298.035 336.559 297.134 336.122 296.08C335.686 295.026 335.572 293.867 335.794 292.748C336.017 291.629 336.566 290.602 337.372 289.795C338.178 288.989 339.205 288.439 340.323 288.217C341.442 287.994 342.601 288.108 343.654 288.545C344.707 288.981 345.607 289.721 346.241 290.669C346.726 291.395 347.037 292.218 347.157 293.076H401.415C401.534 292.218 401.846 291.395 402.331 290.669C402.964 289.721 403.865 288.981 404.918 288.545C405.971 288.108 407.13 287.994 408.248 288.217C409.366 288.439 410.394 288.989 411.2 289.795C412.006 290.602 412.555 291.629 412.777 292.748C413 293.867 412.886 295.026 412.449 296.08C412.013 297.134 411.274 298.035 410.326 298.668C409.378 299.302 408.264 299.64 407.124 299.64C405.595 299.64 404.129 299.033 403.048 297.951C402.142 297.045 401.568 295.867 401.407 294.609H347.165C347.003 295.867 346.43 297.045 345.524 297.951C344.443 299.033 342.977 299.64 341.448 299.64Z" fill="#00C2FF"/>
</g>
</g>
<g style="mix-blend-mode:color-dodge">
<g style="mix-blend-mode:color-dodge">
<path fill-rule="evenodd" clip-rule="evenodd" d="M-8 325.255L18.3689 351.637H227.048C227.167 350.78 227.479 349.957 227.964 349.231C228.597 348.282 229.497 347.543 230.551 347.107C231.604 346.67 232.763 346.556 233.881 346.779C234.999 347.001 236.026 347.55 236.833 348.357C237.639 349.163 238.188 350.191 238.41 351.31C238.633 352.429 238.518 353.588 238.082 354.642C237.646 355.696 236.907 356.597 235.959 357.23C235.011 357.864 233.897 358.202 232.757 358.202C231.228 358.202 229.762 357.595 228.681 356.513C227.774 355.607 227.201 354.429 227.039 353.171H17.725L-8 327.433V325.255Z" fill="#00C2FF"/>
</g>
</g>
<g style="mix-blend-mode:color-dodge">
<g style="mix-blend-mode:color-dodge">
<path fill-rule="evenodd" clip-rule="evenodd" d="M455.236 10.9721C455.236 14.1572 452.655 16.7393 449.471 16.7393C446.548 16.7393 444.132 14.5616 443.758 11.7389H304.84L193.998 122.666H66.9368L-5.30178 194.94H-8V193.407H-5.91501L66.3236 121.132H193.354L304.196 10.2051H443.758C444.132 7.38251 446.548 5.20483 449.471 5.20483C452.655 5.20483 455.236 7.78691 455.236 10.9721Z" fill="#00C2FF"/>
</g>
</g>
<g style="mix-blend-mode:color-dodge">
<g style="mix-blend-mode:color-dodge">
<path fill-rule="evenodd" clip-rule="evenodd" d="M461.809 181.925C461.587 183.044 461.039 184.072 460.233 184.878C459.148 185.954 457.682 186.557 456.155 186.557C454.883 186.557 453.653 186.138 452.651 185.377L370.854 267.215H113.634L63.84 217.365H-8V215.831H64.4532L114.278 265.681H370.21L451.563 184.288C451.036 183.594 450.672 182.787 450.501 181.925C450.279 180.807 450.394 179.648 450.83 178.594C451.266 177.541 452.005 176.64 452.953 176.007C453.901 175.373 455.015 175.035 456.155 175.035C457.295 175.035 458.409 175.373 459.357 176.007C460.305 176.64 461.044 177.541 461.48 178.594C461.916 179.648 462.031 180.807 461.809 181.925Z" fill="#00C2FF"/>
</g>
</g>
<g style="mix-blend-mode:color-dodge">
<g style="mix-blend-mode:color-dodge">
<path fill-rule="evenodd" clip-rule="evenodd" d="M83.1065 175.951C82.99 175.083 82.6766 174.249 82.1862 173.514C81.5528 172.566 80.6525 171.827 79.5992 171.39C78.5459 170.954 77.3869 170.839 76.2687 171.062C75.1505 171.285 74.1234 171.834 73.3173 172.64C72.5111 173.447 71.9621 174.475 71.7397 175.593C71.5172 176.712 71.6314 177.872 72.0677 178.925C72.504 179.979 73.2428 180.88 74.1908 181.514C75.1387 182.147 76.2532 182.486 77.3933 182.486C78.9221 182.486 80.3883 181.878 81.4693 180.796C82.368 179.897 82.9394 178.732 83.1065 177.485H223.893L313.548 87.7558H432.484L470.263 125.554C469.965 125.945 469.718 126.374 469.529 126.831C469.239 127.528 469.09 128.276 469.09 129.031C469.09 129.787 469.239 130.535 469.529 131.232C469.818 131.93 470.243 132.563 470.778 133.096C471.582 133.906 472.609 134.459 473.728 134.685C474.848 134.911 476.009 134.799 477.064 134.363C478.12 133.928 479.022 133.189 479.657 132.239C480.292 131.29 480.631 130.174 480.631 129.031C480.631 127.889 480.292 126.773 479.657 125.823C479.022 124.874 478.12 124.135 477.064 123.7C476.009 123.264 474.848 123.152 473.728 123.378C472.86 123.553 472.046 123.925 471.349 124.462L433.128 86.2219H312.935L223.25 175.951H83.1065Z" fill="#00C2FF"/>
</g>
</g>
<g style="mix-blend-mode:color-dodge">
<g style="mix-blend-mode:color-dodge">
<path fill-rule="evenodd" clip-rule="evenodd" d="M410.334 150.377C409.386 151.011 408.272 151.349 407.132 151.349C405.603 151.349 404.137 150.741 403.056 149.66C402.149 148.753 401.576 147.576 401.414 146.318H347.183L278.685 214.881H132.904C132.529 217.703 130.114 219.881 127.19 219.881C124.007 219.881 121.426 217.299 121.426 214.113C121.426 210.928 124.007 208.346 127.19 208.346C130.114 208.346 132.529 210.524 132.904 213.347H278.041L346.539 144.784H401.423C401.542 143.927 401.854 143.103 402.339 142.378C402.972 141.429 403.872 140.69 404.926 140.253C405.979 139.817 407.138 139.703 408.256 139.925C409.374 140.148 410.401 140.697 411.208 141.504C412.014 142.31 412.563 143.338 412.785 144.457C413.008 145.575 412.893 146.735 412.457 147.789C412.021 148.843 411.282 149.743 410.334 150.377Z" fill="#00C2FF"/>
</g>
</g>
<g style="mix-blend-mode:color-dodge">
<g style="mix-blend-mode:color-dodge">
<path fill-rule="evenodd" clip-rule="evenodd" d="M274.842 373.843C275.648 373.037 276.196 372.009 276.418 370.89C276.64 369.772 276.526 368.612 276.089 367.559C275.653 366.505 274.914 365.605 273.966 364.972C273.018 364.338 271.904 364 270.764 364C269.625 364 268.51 364.338 267.562 364.972C266.615 365.605 265.876 366.505 265.439 367.559C265.003 368.612 264.888 369.772 265.11 370.89C265.187 371.279 265.304 371.656 265.457 372.018L200.262 416.015H-90V417H200.905L266.032 373.061C266.226 373.339 266.445 373.601 266.686 373.843C267.772 374.919 269.237 375.522 270.764 375.522C272.292 375.522 273.757 374.919 274.842 373.843ZM-93.2936 448.307C-92.3457 448.941 -91.2312 449.279 -90.0911 449.279C-88.5623 449.279 -87.0961 448.672 -86.0151 447.59C-84.934 446.508 -84.3267 445.041 -84.3267 443.512C-84.3267 442.371 -84.6648 441.256 -85.2982 440.308C-85.9316 439.359 -86.8319 438.62 -87.8852 438.184C-88.9385 437.747 -90.0975 437.633 -91.2157 437.855C-92.3338 438.078 -93.361 438.627 -94.1671 439.434C-94.9733 440.24 -95.5223 441.268 -95.7447 442.387C-95.9671 443.505 -95.853 444.665 -95.4167 445.719C-94.9804 446.773 -94.2416 447.673 -93.2936 448.307Z" fill="#00C2FF"/>
</g>
</g>
<g style="mix-blend-mode:color-dodge">
<g style="mix-blend-mode:color-dodge">
<path fill-rule="evenodd" clip-rule="evenodd" d="M-8 426L5.69455 448.438H265.244C265.472 445.461 267.958 443.118 270.991 443.118C274.175 443.118 276.755 445.7 276.755 448.885C276.755 452.07 274.175 454.652 270.991 454.652C268.189 454.652 265.853 452.652 265.334 450H5.29402L-8 428.219V426Z" fill="#00C2FF"/>
</g>
</g>
<g style="mix-blend-mode:color-dodge">
<g style="mix-blend-mode:color-dodge">
<path fill-rule="evenodd" clip-rule="evenodd" d="M-48 460L-33.3623 485.43H225.697C225.787 484.481 226.111 483.566 226.643 482.769C227.277 481.82 228.177 481.081 229.23 480.645C230.284 480.208 231.443 480.094 232.561 480.316C233.679 480.539 234.706 481.088 235.512 481.895C236.318 482.701 236.867 483.729 237.09 484.848C237.312 485.966 237.198 487.126 236.762 488.18C236.326 489.234 235.587 490.134 234.639 490.768C233.691 491.402 232.576 491.74 231.436 491.74C229.907 491.74 228.441 491.132 227.36 490.051C226.524 489.215 225.972 488.148 225.764 487H-33.7241L-48 462.229V460Z" fill="#00C2FF"/>
</g>
</g>
<g style="mix-blend-mode:color-dodge">
<g style="mix-blend-mode:color-dodge">
<path d="M126.727 776.572H-8V778.106H126.083L245.295 897.377L246.399 896.272L126.727 776.572Z" fill="#00C2FF"/>
</g>
<g style="mix-blend-mode:color-dodge">
<path d="M241.588 900.721C242.394 901.527 243.421 902.076 244.539 902.298C245.657 902.52 246.816 902.405 247.869 901.968C248.922 901.532 249.822 900.793 250.455 899.844C251.088 898.896 251.426 897.781 251.426 896.641C251.426 895.5 251.088 894.386 250.455 893.437C249.822 892.489 248.922 891.75 247.869 891.313C246.816 890.876 245.657 890.762 244.539 890.984C243.421 891.206 242.394 891.755 241.588 892.561C240.513 893.646 239.91 895.113 239.91 896.641C239.91 898.169 240.513 899.635 241.588 900.721Z" fill="#00C2FF"/>
</g>
</g>
<g style="mix-blend-mode:color-dodge">
<g style="mix-blend-mode:color-dodge">
<path fill-rule="evenodd" clip-rule="evenodd" d="M175.632 779.885C174.826 779.078 174.278 778.051 174.056 776.932C173.834 775.814 173.948 774.654 174.385 773.601C174.821 772.547 175.56 771.647 176.508 771.014C177.456 770.38 178.57 770.042 179.71 770.042C180.85 770.042 181.964 770.38 182.912 771.014C183.859 771.647 184.598 772.547 185.035 773.601C185.471 774.654 185.586 775.814 185.364 776.932C185.19 777.807 184.816 778.627 184.276 779.329L256.887 851.976H463.039C463.4 849.138 465.822 846.945 468.757 846.945C471.94 846.945 474.521 849.527 474.521 852.712C474.521 855.897 471.94 858.479 468.757 858.479C465.843 858.479 463.435 856.317 463.047 853.509H256.243L183.196 780.397C182.197 781.15 180.974 781.564 179.71 781.564C178.182 781.564 176.717 780.961 175.632 779.885Z" fill="#00C2FF"/>
</g>
</g>
<ellipse cx="185.5" cy="358" rx="189.5" ry="24" fill="url(#paint2_radial)" fill-opacity="0.4"/>
</g>
<ellipse cx="434.5" cy="713" rx="189.5" ry="24" fill="url(#paint3_radial)" fill-opacity="0.4"/>
<g style="mix-blend-mode:color-dodge">
<g style="mix-blend-mode:color-dodge">
<path d="M542.23 1249.08V1350H540.641V1249.74L400.221 1109.42L401.334 1108.31L542.23 1249.08Z" fill="#00C2FF"/>
</g>
<g style="mix-blend-mode:color-dodge">
<path d="M396.754 1113.29C395.918 1112.46 395.35 1111.39 395.119 1110.24C394.889 1109.08 395.008 1107.88 395.461 1106.79C395.913 1105.69 396.679 1104.76 397.662 1104.11C398.645 1103.45 399.801 1103.1 400.983 1103.1C402.165 1103.1 403.321 1103.45 404.304 1104.11C405.287 1104.76 406.053 1105.69 406.505 1106.79C406.958 1107.88 407.077 1109.08 406.846 1110.24C406.616 1111.39 406.048 1112.46 405.212 1113.29C404.087 1114.41 402.567 1115.03 400.983 1115.03C399.399 1115.03 397.879 1114.41 396.754 1113.29Z" fill="#00C2FF"/>
</g>
</g>
<g style="mix-blend-mode:color-dodge">
<g style="mix-blend-mode:color-dodge">
<path d="M1410.82 1025.75L1320.93 1115.58V1295.09L1265.98 1350H1263.72L1319.34 1294.42V1114.95L1409.23 1025.12V862.706H1410.82V1025.75Z" fill="#00C2FF"/>
</g>
<g style="mix-blend-mode:color-dodge">
<path d="M1404.05 862.991C1404.05 861.809 1404.4 860.654 1405.06 859.672C1405.71 858.689 1406.65 857.924 1407.74 857.471C1408.83 857.019 1410.03 856.901 1411.19 857.131C1412.35 857.362 1413.42 857.931 1414.25 858.766C1415.09 859.602 1415.66 860.666 1415.89 861.825C1416.12 862.984 1416 864.185 1415.55 865.277C1415.1 866.368 1414.33 867.301 1413.35 867.958C1412.36 868.614 1411.21 868.965 1410.03 868.965C1408.44 868.965 1406.92 868.335 1405.8 867.215C1404.68 866.095 1404.05 864.575 1404.05 862.991Z" fill="#00C2FF"/>
</g>
</g>
<g style="mix-blend-mode:color-dodge">
<g style="mix-blend-mode:color-dodge">
<path d="M642.012 1237.29L596.477 1282.76V1350H594.887V1282.12L640.422 1236.62V893.148H642.012V1237.29Z" fill="#00C2FF"/>
</g>
<g style="mix-blend-mode:color-dodge">
<path d="M635.239 893.433C635.239 892.251 635.59 891.096 636.247 890.114C636.904 889.131 637.837 888.366 638.93 887.914C640.022 887.461 641.224 887.343 642.384 887.574C643.543 887.804 644.608 888.373 645.444 889.208C646.28 890.044 646.85 891.108 647.08 892.267C647.311 893.426 647.193 894.627 646.74 895.719C646.288 896.81 645.522 897.743 644.538 898.4C643.555 899.056 642.4 899.407 641.217 899.407C639.632 899.407 638.111 898.777 636.99 897.657C635.869 896.537 635.239 895.017 635.239 893.433Z" fill="#00C2FF"/>
</g>
</g>
<g style="mix-blend-mode:color-dodge">
<g style="mix-blend-mode:color-dodge">
<path d="M1057.36 1247.33L1126.29 1316.22V1350H1124.7V1316.86L1055.77 1247.96V1040.81H1057.36V1247.33Z" fill="#00C2FF"/>
</g>
<g style="mix-blend-mode:color-dodge">
<path d="M1050.58 1041.1C1050.58 1039.92 1050.93 1038.76 1051.59 1037.78C1052.25 1036.8 1053.18 1036.03 1054.27 1035.58C1055.37 1035.13 1056.57 1035.01 1057.73 1035.24C1058.89 1035.47 1059.95 1036.04 1060.79 1036.88C1061.62 1037.71 1062.19 1038.78 1062.42 1039.93C1062.65 1041.09 1062.54 1042.29 1062.08 1043.39C1061.63 1044.48 1060.87 1045.41 1059.88 1046.07C1058.9 1046.72 1057.74 1047.07 1056.56 1047.07C1054.98 1047.07 1053.46 1046.44 1052.33 1045.32C1051.21 1044.2 1050.58 1042.68 1050.58 1041.1Z" fill="#00C2FF"/>
</g>
</g>
<g style="mix-blend-mode:color-dodge">
<g style="mix-blend-mode:color-dodge">
<path d="M697.656 1247.77L631.612 1313.74V1350H630.022V1313.11L696.066 1247.11V988.669H697.656V1247.77Z" fill="#00C2FF"/>
</g>
<g style="mix-blend-mode:color-dodge">
<path d="M690.884 988.954C690.884 985.655 693.56 982.98 696.862 982.98C700.163 982.98 702.84 985.655 702.84 988.954C702.84 992.253 700.163 994.928 696.862 994.928C693.56 994.928 690.884 992.253 690.884 988.954Z" fill="#00C2FF"/>
</g>
</g>
<g style="mix-blend-mode:color-dodge">
<g style="mix-blend-mode:color-dodge">
<path d="M1050.11 1009.39L982.662 1076.78V1350H981.072V1076.12L1048.96 1008.24L1050.11 1009.39Z" fill="#00C2FF"/>
</g>
<g style="mix-blend-mode:color-dodge">
<path d="M1045.08 1004.78C1045.92 1003.95 1046.98 1003.38 1048.14 1003.15C1049.3 1002.92 1050.5 1003.04 1051.6 1003.49C1052.69 1003.94 1053.62 1004.71 1054.28 1005.69C1054.93 1006.67 1055.29 1007.82 1055.29 1009.01C1055.29 1010.19 1054.93 1011.34 1054.28 1012.32C1053.62 1013.31 1052.69 1014.07 1051.6 1014.52C1050.5 1014.98 1049.3 1015.1 1048.14 1014.87C1046.98 1014.64 1045.92 1014.07 1045.08 1013.23C1043.97 1012.11 1043.34 1010.59 1043.34 1009.01C1043.34 1007.42 1043.97 1005.9 1045.08 1004.78Z" fill="#00C2FF"/>
</g>
</g>
<g style="mix-blend-mode:color-dodge">
<g style="mix-blend-mode:color-dodge">
<path fill-rule="evenodd" clip-rule="evenodd" d="M752.699 1220.16V928.452L670.81 846.588C671.574 845.584 672.027 844.332 672.027 842.974C672.027 839.675 669.351 837 666.049 837C662.748 837 660.071 839.675 660.071 842.974C660.071 846.273 662.748 848.948 666.049 848.948C667.409 848.948 668.663 848.494 669.667 847.73L751.109 929.088V1219.52L680.709 1289.85V1350H682.299V1290.51L752.699 1220.16Z" fill="#00C2FF"/>
</g>
</g>
<g style="mix-blend-mode:color-dodge">
<g style="mix-blend-mode:color-dodge">
<path d="M818.68 1188.77L711.68 1295.69V1350H710.09V1295.03L817.567 1187.65L818.68 1188.77Z" fill="#00C2FF"/>
</g>
<g style="mix-blend-mode:color-dodge">
<path d="M813.656 1184.29C814.493 1183.45 815.558 1182.88 816.717 1182.65C817.877 1182.42 819.078 1182.54 820.17 1182.99C821.262 1183.45 822.196 1184.21 822.852 1185.19C823.509 1186.18 823.859 1187.33 823.859 1188.51C823.859 1189.69 823.509 1190.85 822.852 1191.83C822.196 1192.81 821.262 1193.58 820.17 1194.03C819.078 1194.48 817.877 1194.6 816.717 1194.37C815.558 1194.14 814.493 1193.57 813.656 1192.74C812.542 1191.61 811.916 1190.1 811.916 1188.51C811.916 1186.93 812.542 1185.41 813.656 1184.29Z" fill="#00C2FF"/>
</g>
</g>
<g style="mix-blend-mode:color-dodge">
<g style="mix-blend-mode:color-dodge">
<path d="M902.246 1276.26L926.031 1300H923.774L900.656 1276.9V864.343H902.246V1276.26Z" fill="#00C2FF"/>
</g>
<g style="mix-blend-mode:color-dodge">
<path d="M895.474 864.596C895.474 863.415 895.824 862.26 896.481 861.277C897.138 860.295 898.072 859.529 899.164 859.077C900.256 858.625 901.458 858.506 902.618 858.737C903.778 858.967 904.843 859.536 905.679 860.372C906.515 861.207 907.084 862.272 907.315 863.431C907.545 864.589 907.427 865.791 906.975 866.882C906.522 867.974 905.756 868.907 904.773 869.563C903.79 870.22 902.634 870.57 901.452 870.57C899.866 870.57 898.346 869.941 897.225 868.82C896.103 867.7 895.474 866.181 895.474 864.596Z" fill="#00C2FF"/>
</g>
</g>
<g style="mix-blend-mode:color-dodge">
<g style="mix-blend-mode:color-dodge">
<path d="M764.973 1293.28V1350H763.383V1293.28H764.973Z" fill="#00C2FF"/>
</g>
<g style="mix-blend-mode:color-dodge">
<path d="M758.2 1293.57C758.201 1292.38 758.556 1291.22 759.22 1290.23C759.884 1289.24 760.827 1288.48 761.929 1288.03C763.03 1287.59 764.24 1287.48 765.404 1287.72C766.568 1287.96 767.633 1288.55 768.462 1289.4C769.291 1290.25 769.848 1291.33 770.06 1292.5C770.272 1293.67 770.131 1294.88 769.654 1295.96C769.177 1297.05 768.386 1297.97 767.383 1298.61C766.379 1299.25 765.208 1299.57 764.019 1299.54C762.461 1299.5 760.981 1298.85 759.895 1297.73C758.808 1296.62 758.2 1295.12 758.2 1293.57Z" fill="#00C2FF"/>
</g>
</g>
<g style="mix-blend-mode:color-dodge">
<g style="mix-blend-mode:color-dodge">
<path d="M795.977 1277.8V1350H794.387V1277.8H795.977Z" fill="#00C2FF"/>
</g>
<g style="mix-blend-mode:color-dodge">
<path d="M789.204 1278.09C789.204 1274.79 791.881 1272.12 795.182 1272.12C798.484 1272.12 801.16 1274.79 801.16 1278.09C801.16 1281.39 798.484 1284.06 795.182 1284.06C791.881 1284.06 789.204 1281.39 789.204 1278.09Z" fill="#00C2FF"/>
</g>
</g>
<g style="mix-blend-mode:color-dodge">
<g style="mix-blend-mode:color-dodge">
<path d="M1076.97 919.493V988.162H1075.38V919.493H1076.97Z" fill="#00C2FF"/>
</g>
<g style="mix-blend-mode:color-dodge">
<path d="M1070.17 987.843C1070.17 989.024 1070.52 990.179 1071.18 991.162C1071.83 992.144 1072.77 992.91 1073.86 993.362C1074.95 993.814 1076.15 993.932 1077.31 993.702C1078.47 993.471 1079.54 992.902 1080.37 992.067C1081.21 991.231 1081.78 990.167 1082.01 989.008C1082.24 987.849 1082.12 986.648 1081.67 985.557C1081.22 984.465 1080.45 983.532 1079.47 982.875C1078.49 982.219 1077.33 981.869 1076.15 981.869C1074.56 981.869 1073.04 982.498 1071.92 983.618C1070.8 984.739 1070.17 986.258 1070.17 987.843Z" fill="#00C2FF"/>
</g>
<g style="mix-blend-mode:color-dodge">
<path d="M1070.17 919.777C1070.17 918.596 1070.52 917.441 1071.18 916.459C1071.83 915.476 1072.77 914.71 1073.86 914.258C1074.95 913.806 1076.15 913.688 1077.31 913.918C1078.47 914.149 1079.54 914.718 1080.37 915.553C1081.21 916.389 1081.78 917.453 1082.01 918.612C1082.24 919.771 1082.12 920.972 1081.67 922.064C1081.22 923.155 1080.45 924.088 1079.47 924.745C1078.49 925.401 1077.33 925.751 1076.15 925.751C1074.56 925.751 1073.04 925.122 1071.92 924.002C1070.8 922.881 1070.17 921.362 1070.17 919.777Z" fill="#00C2FF"/>
</g>
</g>
<g style="mix-blend-mode:color-dodge">
<g style="mix-blend-mode:color-dodge">
<path fill-rule="evenodd" clip-rule="evenodd" d="M736.005 859.039C736.005 860.221 736.356 861.376 737.012 862.358C737.669 863.341 738.603 864.106 739.695 864.558C740.788 865.011 741.99 865.129 743.149 864.898C744.309 864.668 745.374 864.099 746.21 863.263C747.046 862.428 747.615 861.363 747.846 860.205C748.077 859.046 747.958 857.845 747.506 856.753C747.053 855.661 746.287 854.728 745.304 854.072C744.552 853.57 743.698 853.246 742.809 853.122V796.891C743.698 796.767 744.552 796.444 745.304 795.941C746.287 795.285 747.053 794.352 747.506 793.26C747.958 792.169 748.077 790.967 747.846 789.809C747.615 788.65 747.046 787.585 746.21 786.75C745.374 785.914 744.309 785.345 743.149 785.115C741.99 784.884 740.788 785.003 739.695 785.455C738.603 785.907 737.669 786.673 737.012 787.655C736.356 788.637 736.005 789.792 736.005 790.974C736.005 792.558 736.635 794.078 737.756 795.198C738.695 796.137 739.915 796.731 741.219 796.899V853.114C739.915 853.282 738.695 853.876 737.756 854.815C736.635 855.935 736.005 857.455 736.005 859.039Z" fill="#00C2FF"/>
</g>
</g>
<g style="mix-blend-mode:color-dodge">
<g style="mix-blend-mode:color-dodge">
<path d="M1016.27 1322.67L1043.62 1350H1041.36L1014.68 1323.34V1100.2H1016.27V1322.67Z" fill="#00C2FF"/>
</g>
<g style="mix-blend-mode:color-dodge">
<path d="M1009.47 1100.49C1009.47 1099.31 1009.82 1098.15 1010.47 1097.17C1011.13 1096.19 1012.06 1095.42 1013.16 1094.97C1014.25 1094.52 1015.45 1094.4 1016.61 1094.63C1017.77 1094.86 1018.83 1095.43 1019.67 1096.26C1020.51 1097.1 1021.08 1098.16 1021.31 1099.32C1021.54 1100.48 1021.42 1101.68 1020.97 1102.77C1020.51 1103.87 1019.75 1104.8 1018.77 1105.46C1017.78 1106.11 1016.63 1106.46 1015.44 1106.46C1013.86 1106.46 1012.34 1105.83 1011.22 1104.71C1010.1 1103.59 1009.47 1102.07 1009.47 1100.49Z" fill="#00C2FF"/>
</g>
</g>
<g style="mix-blend-mode:color-dodge">
<g style="mix-blend-mode:color-dodge">
<path d="M1370.18 1026.45L1255.2 1141.32V1272.97L1180.29 1347.84V1350H1178.7V1347.2L1253.61 1272.34V1140.66L1368.59 1025.78V875.608H1370.18V1026.45Z" fill="#00C2FF"/>
</g>
<g style="mix-blend-mode:color-dodge">
<path d="M1363.41 875.893C1363.41 872.594 1366.09 869.919 1369.39 869.919C1372.69 869.919 1375.37 872.594 1375.37 875.893C1375.37 879.192 1372.69 881.867 1369.39 881.867C1366.09 881.867 1363.41 879.192 1363.41 875.893Z" fill="#00C2FF"/>
</g>
</g>
<g style="mix-blend-mode:color-dodge">
<g style="mix-blend-mode:color-dodge">
<path d="M1194.12 869.348L1105.37 958.036V1223.27L1157.04 1274.91V1350H1155.45V1275.55L1103.78 1223.94V957.369L1193 868.204L1194.12 869.348Z" fill="#00C2FF"/>
</g>
<g style="mix-blend-mode:color-dodge">
<path d="M1189.13 864.74C1189.96 863.905 1191.03 863.337 1192.19 863.107C1193.35 862.877 1194.55 862.995 1195.64 863.448C1196.73 863.9 1197.66 864.666 1198.32 865.648C1198.98 866.63 1199.33 867.785 1199.33 868.966C1199.33 870.148 1198.98 871.303 1198.32 872.285C1197.66 873.267 1196.73 874.033 1195.64 874.485C1194.55 874.937 1193.35 875.056 1192.19 874.826C1191.03 874.596 1189.96 874.028 1189.13 873.193C1188.01 872.068 1187.39 870.549 1187.39 868.966C1187.39 867.384 1188.01 865.865 1189.13 864.74Z" fill="#00C2FF"/>
</g>
</g>
<g style="mix-blend-mode:color-dodge">
<g style="mix-blend-mode:color-dodge">
<path d="M1196.79 1109.67V1261.82H1198.38V1110.34L1291.39 1017.39V892.831L1247.38 848.852L1246.27 849.996L1289.8 893.498V1016.76L1196.79 1109.67Z" fill="#00C2FF"/>
</g>
<g style="mix-blend-mode:color-dodge">
<path d="M1191.61 1261.5C1191.61 1262.68 1191.96 1263.84 1192.61 1264.82C1193.27 1265.8 1194.2 1266.57 1195.3 1267.02C1196.39 1267.47 1197.59 1267.59 1198.75 1267.36C1199.91 1267.13 1200.98 1266.56 1201.81 1265.72C1202.65 1264.89 1203.22 1263.82 1203.45 1262.67C1203.68 1261.51 1203.56 1260.31 1203.11 1259.21C1202.65 1258.12 1201.89 1257.19 1200.91 1256.53C1199.92 1255.88 1198.77 1255.53 1197.58 1255.53C1196 1255.53 1194.48 1256.16 1193.36 1257.28C1192.24 1258.4 1191.61 1259.92 1191.61 1261.5Z" fill="#00C2FF"/>
</g>
<g style="mix-blend-mode:color-dodge">
<path d="M1242.8 853.809C1241.96 852.975 1241.39 851.911 1241.15 850.751C1240.92 849.591 1241.04 848.388 1241.49 847.294C1241.94 846.2 1242.7 845.265 1243.69 844.607C1244.67 843.948 1245.83 843.597 1247.01 843.597C1248.2 843.597 1249.36 843.948 1250.34 844.607C1251.32 845.265 1252.09 846.2 1252.54 847.294C1252.99 848.388 1253.11 849.591 1252.87 850.751C1252.64 851.911 1252.07 852.975 1251.23 853.809C1250.67 854.363 1250.02 854.803 1249.3 855.103C1248.57 855.404 1247.8 855.558 1247.01 855.558C1246.23 855.558 1245.46 855.404 1244.73 855.103C1244.01 854.803 1243.35 854.363 1242.8 853.809Z" fill="#00C2FF"/>
</g>
</g>
<g style="mix-blend-mode:color-dodge">
<g style="mix-blend-mode:color-dodge">
<path d="M1158.03 1052.89V1210.18H1159.62V1053.56L1230.68 982.567V919.491H1229.09V981.9L1158.03 1052.89Z" fill="#00C2FF"/>
</g>
<g style="mix-blend-mode:color-dodge">
<path d="M1152.84 1209.89C1152.84 1206.6 1155.52 1203.92 1158.82 1203.92C1162.12 1203.92 1164.8 1206.6 1164.8 1209.89C1164.8 1213.19 1162.12 1215.87 1158.82 1215.87C1155.52 1215.87 1152.84 1213.19 1152.84 1209.89Z" fill="#00C2FF"/>
</g>
<g style="mix-blend-mode:color-dodge">
<path d="M1223.88 919.773C1223.88 918.592 1224.23 917.437 1224.89 916.454C1225.54 915.472 1226.48 914.706 1227.57 914.254C1228.66 913.802 1229.86 913.684 1231.02 913.914C1232.18 914.145 1233.25 914.714 1234.09 915.549C1234.92 916.385 1235.49 917.449 1235.72 918.608C1235.95 919.767 1235.83 920.968 1235.38 922.059C1234.93 923.151 1234.16 924.084 1233.18 924.741C1232.2 925.397 1231.04 925.747 1229.86 925.747C1228.27 925.747 1226.75 925.118 1225.63 923.998C1224.51 922.877 1223.88 921.358 1223.88 919.773Z" fill="#00C2FF"/>
</g>
</g>
<g style="mix-blend-mode:color-dodge">
<g style="mix-blend-mode:color-dodge">
<path d="M961.705 967.699V1269.58H963.295V968.366L1077.89 853.844L1076.75 852.732L961.705 967.699Z" fill="#00C2FF"/>
</g>
<g style="mix-blend-mode:color-dodge">
<path d="M956.521 1269.26C956.521 1270.44 956.871 1271.59 957.528 1272.58C958.185 1273.56 959.119 1274.32 960.211 1274.78C961.303 1275.23 962.505 1275.35 963.665 1275.12C964.824 1274.89 965.89 1274.32 966.726 1273.48C967.562 1272.65 968.131 1271.58 968.362 1270.42C968.592 1269.26 968.474 1268.06 968.022 1266.97C967.569 1265.88 966.803 1264.95 965.82 1264.29C964.837 1263.63 963.681 1263.28 962.499 1263.28C960.913 1263.28 959.393 1263.91 958.271 1265.03C957.15 1266.15 956.521 1267.67 956.521 1269.26Z" fill="#00C2FF"/>
</g>
<g style="mix-blend-mode:color-dodge">
<path d="M1072.87 849.267C1073.71 848.432 1074.77 847.864 1075.93 847.634C1077.09 847.404 1078.29 847.522 1079.39 847.975C1080.48 848.427 1081.41 849.193 1082.07 850.175C1082.72 851.157 1083.07 852.312 1083.07 853.493C1083.07 854.675 1082.72 855.829 1082.07 856.812C1081.41 857.794 1080.48 858.56 1079.39 859.012C1078.29 859.464 1077.09 859.583 1075.93 859.353C1074.77 859.123 1073.71 858.554 1072.87 857.72C1071.76 856.595 1071.13 855.076 1071.13 853.493C1071.13 851.91 1071.76 850.392 1072.87 849.267Z" fill="#00C2FF"/>
</g>
</g>
<g style="mix-blend-mode:color-dodge">
<g style="mix-blend-mode:color-dodge">
<path fill-rule="evenodd" clip-rule="evenodd" d="M868 1180L845.169 1157.18V724.748C848.095 724.36 850.352 721.857 850.352 718.827C850.352 715.527 847.675 712.853 844.374 712.853C841.072 712.853 838.396 715.527 838.396 718.827C838.396 721.857 840.653 724.36 843.579 724.749V1157.85L865.742 1180H868Z" fill="#00C2FF"/>
</g>
</g>
<g style="mix-blend-mode:color-dodge">
<g style="mix-blend-mode:color-dodge">
<path d="M793.779 1044.7L819.535 1070.41H817.277L792.189 1045.34V585.689H793.779V1044.7Z" fill="#00C2FF"/>
</g>
<g style="mix-blend-mode:color-dodge">
<path d="M787.005 585.974C787.005 584.792 787.356 583.637 788.012 582.655C788.669 581.672 789.603 580.907 790.695 580.455C791.788 580.002 792.99 579.884 794.149 580.115C795.309 580.345 796.374 580.914 797.21 581.75C798.046 582.585 798.615 583.649 798.846 584.808C799.077 585.967 798.958 587.168 798.506 588.26C798.053 589.352 797.287 590.285 796.304 590.941C795.321 591.597 794.165 591.948 792.983 591.948C791.397 591.948 789.877 591.318 788.756 590.198C787.635 589.078 787.005 587.558 787.005 585.974Z" fill="#00C2FF"/>
</g>
</g>
<g style="mix-blend-mode:color-dodge">
<g style="mix-blend-mode:color-dodge">
<path d="M575.809 1210.37V1350H574.219V1211.04L450.588 1087.49L451.733 1086.35L575.809 1210.37Z" fill="#00C2FF"/>
</g>
<g style="mix-blend-mode:color-dodge">
<path d="M447.121 1091.34C446.285 1090.5 445.717 1089.44 445.487 1088.28C445.256 1087.12 445.375 1085.92 445.828 1084.83C446.28 1083.74 447.046 1082.8 448.029 1082.15C449.012 1081.49 450.168 1081.14 451.35 1081.14C452.532 1081.14 453.688 1081.49 454.671 1082.15C455.654 1082.8 456.42 1083.74 456.872 1084.83C457.325 1085.92 457.444 1087.12 457.214 1088.28C456.983 1089.44 456.415 1090.5 455.579 1091.34C454.454 1092.45 452.934 1093.08 451.35 1093.08C449.766 1093.08 448.246 1092.45 447.121 1091.34Z" fill="#00C2FF"/>
</g>
</g>
<g style="mix-blend-mode:color-dodge">
<g style="mix-blend-mode:color-dodge">
<path d="M572.375 1159.69C573.211 1160.52 574.277 1161.09 575.436 1161.32C576.595 1161.55 577.797 1161.43 578.889 1160.98C579.981 1160.53 580.914 1159.76 581.571 1158.78C582.228 1157.8 582.578 1156.65 582.578 1155.46C582.578 1154.28 582.228 1153.13 581.571 1152.15C580.914 1151.16 579.981 1150.4 578.889 1149.95C577.797 1149.49 576.595 1149.37 575.436 1149.6C574.277 1149.83 573.211 1150.4 572.375 1151.24C571.26 1152.36 570.635 1153.88 570.635 1155.46C570.635 1157.05 571.26 1158.57 572.375 1159.69Z" fill="#00C2FF"/>
</g>
<g style="mix-blend-mode:color-dodge">
<path fill-rule="evenodd" clip-rule="evenodd" d="M497.65 861.833C500.59 861.458 502.863 858.948 502.863 855.908C502.863 852.608 500.187 849.934 496.885 849.934C493.584 849.934 490.907 852.608 490.907 855.908C490.907 858.927 493.149 861.423 496.06 861.825V1076.15L576.254 1156.26L577.367 1155.14L497.65 1075.48V861.833Z" fill="#00C2FF"/>
</g>
</g>
<ellipse cx="796" cy="632.5" rx="189.5" ry="24" transform="rotate(-90 796 632.5)" fill="url(#paint4_radial)" fill-opacity="0.4"/>
<ellipse cx="1663" cy="882.5" rx="189.5" ry="24" transform="rotate(-90 1663 882.5)" fill="url(#paint5_radial)" fill-opacity="0.4"/>
<ellipse cx="1864" cy="732.5" rx="189.5" ry="24" transform="rotate(-90 1864 732.5)" fill="url(#paint6_radial)" fill-opacity="0.4"/>
<g style="mix-blend-mode:color-dodge">
<g style="mix-blend-mode:color-dodge">
<path d="M1563.22 1235.08V1336H1561.63V1235.74L1421.21 1095.42L1422.33 1094.31L1563.22 1235.08Z" fill="#00C2FF"/>
</g>
<g style="mix-blend-mode:color-dodge">
<path d="M1417.75 1099.29C1416.91 1098.46 1416.34 1097.39 1416.11 1096.24C1415.88 1095.08 1416 1093.88 1416.45 1092.79C1416.91 1091.69 1417.67 1090.76 1418.65 1090.11C1419.64 1089.45 1420.79 1089.1 1421.98 1089.1C1423.16 1089.1 1424.31 1089.45 1425.3 1090.11C1426.28 1090.76 1427.04 1091.69 1427.5 1092.79C1427.95 1093.88 1428.07 1095.08 1427.84 1096.24C1427.61 1097.39 1427.04 1098.46 1426.2 1099.29C1425.08 1100.41 1423.56 1101.03 1421.98 1101.03C1420.39 1101.03 1418.87 1100.41 1417.75 1099.29Z" fill="#00C2FF"/>
</g>
</g>
<g style="mix-blend-mode:color-dodge">
<g style="mix-blend-mode:color-dodge">
<path d="M1663 1223.29L1617.47 1268.76V1336H1615.88V1268.12L1661.41 1222.62V879.148H1663V1223.29Z" fill="#00C2FF"/>
</g>
<g style="mix-blend-mode:color-dodge">
<path d="M1656.23 879.433C1656.23 878.251 1656.58 877.096 1657.24 876.114C1657.9 875.131 1658.83 874.366 1659.92 873.914C1661.01 873.461 1662.22 873.343 1663.38 873.574C1664.54 873.804 1665.6 874.373 1666.44 875.208C1667.27 876.044 1667.84 877.108 1668.07 878.267C1668.3 879.426 1668.18 880.627 1667.73 881.719C1667.28 882.81 1666.51 883.743 1665.53 884.4C1664.55 885.056 1663.39 885.407 1662.21 885.407C1660.62 885.407 1659.1 884.777 1657.98 883.657C1656.86 882.537 1656.23 881.017 1656.23 879.433Z" fill="#00C2FF"/>
</g>
</g>
<g style="mix-blend-mode:color-dodge">
<g style="mix-blend-mode:color-dodge">
<path fill-rule="evenodd" clip-rule="evenodd" d="M1717.86 968.98C1714.56 968.98 1711.88 971.655 1711.88 974.954C1711.88 977.984 1714.14 980.487 1717.06 980.876V1233.11L1651.02 1299.11V1336H1652.61V1299.74L1718.65 1233.77V980.876C1721.58 980.487 1723.84 977.984 1723.84 974.954C1723.84 971.655 1721.16 968.98 1717.86 968.98Z" fill="#00C2FF"/>
</g>
</g>
<g style="mix-blend-mode:color-dodge">
<g style="mix-blend-mode:color-dodge">
<path d="M1773.7 914.452V1206.16L1703.29 1276.51V1336H1701.7V1275.85L1772.11 1205.52V915.088L1686.25 829.323L1687.4 828.179L1773.7 914.452Z" fill="#00C2FF"/>
</g>
<g style="mix-blend-mode:color-dodge">
<path d="M1681.07 828.974C1681.07 825.675 1683.74 823 1687.05 823C1690.35 823 1693.02 825.675 1693.02 828.974C1693.02 832.273 1690.35 834.948 1687.05 834.948C1683.74 834.948 1681.07 832.273 1681.07 828.974Z" fill="#00C2FF"/>
</g>
</g>
<g style="mix-blend-mode:color-dodge">
<g style="mix-blend-mode:color-dodge">
<path d="M1839.68 1174.77L1732.68 1281.69V1336H1731.09V1281.03L1838.56 1173.65L1839.68 1174.77Z" fill="#00C2FF"/>
</g>
<g style="mix-blend-mode:color-dodge">
<path d="M1834.65 1170.29C1835.49 1169.45 1836.55 1168.88 1837.71 1168.65C1838.87 1168.42 1840.07 1168.54 1841.17 1168.99C1842.26 1169.45 1843.19 1170.21 1843.85 1171.19C1844.51 1172.18 1844.86 1173.33 1844.86 1174.51C1844.86 1175.69 1844.51 1176.85 1843.85 1177.83C1843.19 1178.81 1842.26 1179.58 1841.17 1180.03C1840.07 1180.48 1838.87 1180.6 1837.71 1180.37C1836.55 1180.14 1835.49 1179.57 1834.65 1178.74C1833.54 1177.61 1832.91 1176.1 1832.91 1174.51C1832.91 1172.93 1833.54 1171.41 1834.65 1170.29Z" fill="#00C2FF"/>
</g>
</g>
<g style="mix-blend-mode:color-dodge">
<g style="mix-blend-mode:color-dodge">
<path fill-rule="evenodd" clip-rule="evenodd" d="M1927.03 1286L1903.24 1262.26V856.517C1904.14 856.396 1905.01 856.072 1905.77 855.563C1906.75 854.907 1907.52 853.974 1907.97 852.882C1908.42 851.791 1908.54 850.589 1908.31 849.431C1908.08 848.272 1907.51 847.207 1906.67 846.372C1905.84 845.536 1904.77 844.967 1903.61 844.737C1902.45 844.506 1901.25 844.625 1900.16 845.077C1899.07 845.529 1898.13 846.295 1897.48 847.277C1896.82 848.26 1896.47 849.415 1896.47 850.596C1896.47 852.181 1897.1 853.7 1898.22 854.82C1899.15 855.752 1900.36 856.344 1901.65 856.517V1262.9L1924.77 1286H1927.03Z" fill="#00C2FF"/>
</g>
</g>
<g style="mix-blend-mode:color-dodge">
<g style="mix-blend-mode:color-dodge">
<path d="M1785.97 1279.28V1336H1784.38V1279.28H1785.97Z" fill="#00C2FF"/>
</g>
<g style="mix-blend-mode:color-dodge">
<path d="M1779.2 1279.57C1779.2 1278.38 1779.55 1277.22 1780.22 1276.23C1780.88 1275.24 1781.82 1274.48 1782.92 1274.03C1784.03 1273.59 1785.24 1273.48 1786.4 1273.72C1787.56 1273.96 1788.63 1274.55 1789.46 1275.4C1790.29 1276.25 1790.84 1277.33 1791.06 1278.5C1791.27 1279.67 1791.13 1280.88 1790.65 1281.96C1790.17 1283.05 1789.38 1283.97 1788.38 1284.61C1787.37 1285.25 1786.2 1285.57 1785.02 1285.54C1783.46 1285.5 1781.98 1284.85 1780.89 1283.73C1779.8 1282.62 1779.2 1281.12 1779.2 1279.57Z" fill="#00C2FF"/>
</g>
</g>
<g style="mix-blend-mode:color-dodge">
<g style="mix-blend-mode:color-dodge">
<path d="M1816.97 1263.8V1336H1815.38V1263.8H1816.97Z" fill="#00C2FF"/>
</g>
<g style="mix-blend-mode:color-dodge">
<path d="M1810.2 1264.09C1810.2 1260.79 1812.88 1258.12 1816.18 1258.12C1819.48 1258.12 1822.16 1260.79 1822.16 1264.09C1822.16 1267.39 1819.48 1270.06 1816.18 1270.06C1812.88 1270.06 1810.2 1267.39 1810.2 1264.09Z" fill="#00C2FF"/>
</g>
</g>
<g style="mix-blend-mode:color-dodge">
<g style="mix-blend-mode:color-dodge">
<path fill-rule="evenodd" clip-rule="evenodd" d="M1757 845.039C1757 846.221 1757.35 847.376 1758.01 848.358C1758.67 849.341 1759.6 850.106 1760.69 850.558C1761.78 851.011 1762.99 851.129 1764.15 850.898C1765.3 850.668 1766.37 850.099 1767.21 849.263C1768.04 848.428 1768.61 847.363 1768.84 846.205C1769.07 845.046 1768.95 843.845 1768.5 842.753C1768.05 841.661 1767.28 840.728 1766.3 840.072C1765.55 839.57 1764.69 839.246 1763.8 839.122V782.891C1764.69 782.767 1765.55 782.444 1766.3 781.941C1767.28 781.285 1768.05 780.352 1768.5 779.26C1768.95 778.169 1769.07 776.967 1768.84 775.809C1768.61 774.65 1768.04 773.585 1767.21 772.75C1766.37 771.914 1765.3 771.345 1764.15 771.115C1762.99 770.884 1761.78 771.003 1760.69 771.455C1759.6 771.907 1758.67 772.673 1758.01 773.655C1757.35 774.637 1757 775.792 1757 776.974C1757 778.558 1757.63 780.078 1758.75 781.198C1759.69 782.137 1760.91 782.731 1762.21 782.899V839.114C1760.91 839.282 1759.69 839.876 1758.75 840.815C1757.63 841.935 1757 843.455 1757 845.039Z" fill="#00C2FF"/>
</g>
</g>
<g style="mix-blend-mode:color-dodge">
<g style="mix-blend-mode:color-dodge">
<path d="M1866.17 1143.18L1889 1166H1886.74L1864.58 1143.85V704.509H1866.17V1143.18Z" fill="#00C2FF"/>
</g>
<g style="mix-blend-mode:color-dodge">
<path d="M1859.39 704.827C1859.39 701.527 1862.07 698.853 1865.37 698.853C1868.67 698.853 1871.35 701.527 1871.35 704.827C1871.35 708.126 1868.67 710.801 1865.37 710.801C1862.07 710.801 1859.39 708.126 1859.39 704.827Z" fill="#00C2FF"/>
</g>
</g>
<g style="mix-blend-mode:color-dodge">
<g style="mix-blend-mode:color-dodge">
<path d="M1814.77 1050.7L1840.53 1076.41H1838.27L1813.18 1051.34V591.689H1814.77V1050.7Z" fill="#00C2FF"/>
</g>
<g style="mix-blend-mode:color-dodge">
<path d="M1808 591.974C1808 590.792 1808.35 589.637 1809 588.655C1809.66 587.672 1810.6 586.907 1811.69 586.455C1812.78 586.002 1813.98 585.884 1815.14 586.115C1816.3 586.345 1817.37 586.914 1818.2 587.75C1819.04 588.585 1819.61 589.649 1819.84 590.808C1820.07 591.967 1819.95 593.168 1819.5 594.26C1819.05 595.352 1818.28 596.285 1817.3 596.941C1816.31 597.597 1815.16 597.948 1813.98 597.948C1812.39 597.948 1810.87 597.318 1809.75 596.198C1808.63 595.078 1808 593.558 1808 591.974Z" fill="#00C2FF"/>
</g>
</g>
<g style="mix-blend-mode:color-dodge">
<g style="mix-blend-mode:color-dodge">
<path d="M1607 1007.9V1126H1606.3V1008.47L1552 903.968L1552.5 903L1607 1007.9Z" fill="#00C2FF"/>
</g>
<g style="mix-blend-mode:color-dodge">
<path d="M1547.12 904.337C1546.28 903.501 1545.71 902.437 1545.48 901.278C1545.25 900.119 1545.37 898.919 1545.82 897.827C1546.28 896.736 1547.04 895.803 1548.03 895.147C1549.01 894.491 1550.16 894.141 1551.35 894.141C1552.53 894.141 1553.68 894.491 1554.67 895.147C1555.65 895.803 1556.42 896.736 1556.87 897.827C1557.32 898.919 1557.44 900.119 1557.21 901.278C1556.98 902.437 1556.41 903.501 1555.58 904.337C1554.45 905.451 1552.93 906.076 1551.35 906.076C1549.76 906.076 1548.24 905.451 1547.12 904.337Z" fill="#00C2FF"/>
</g>
</g>
<g style="mix-blend-mode:color-dodge">
<g style="mix-blend-mode:color-dodge">
<path d="M1517.05 841.587V1062.15L1597.25 1142.26L1598.36 1141.14L1518.64 1061.48V841.587H1517.05Z" fill="#00C2FF"/>
</g>
<g style="mix-blend-mode:color-dodge">
<path d="M1593.37 1145.69C1594.2 1146.52 1595.27 1147.09 1596.43 1147.32C1597.59 1147.55 1598.79 1147.43 1599.88 1146.98C1600.97 1146.53 1601.91 1145.76 1602.56 1144.78C1603.22 1143.8 1603.57 1142.64 1603.57 1141.46C1603.57 1140.28 1603.22 1139.13 1602.56 1138.15C1601.91 1137.16 1600.97 1136.4 1599.88 1135.94C1598.79 1135.49 1597.59 1135.37 1596.43 1135.6C1595.27 1135.83 1594.2 1136.4 1593.37 1137.24C1592.25 1138.36 1591.63 1139.88 1591.63 1141.46C1591.63 1143.05 1592.25 1144.57 1593.37 1145.69Z" fill="#00C2FF"/>
</g>
<g style="mix-blend-mode:color-dodge">
<path d="M1511.9 841.907C1511.9 838.608 1514.58 835.933 1517.88 835.933C1521.18 835.933 1523.86 838.608 1523.86 841.907C1523.86 845.207 1521.18 847.881 1517.88 847.881C1514.58 847.881 1511.9 845.207 1511.9 841.907Z" fill="#00C2FF"/>
</g>
</g>
<g style="mix-blend-mode:color-dodge">
<path d="M1866.17 -138.332L1889 -161.147H1886.74L1864.58 -138.999V300.343H1866.17V-138.332Z" fill="#00C2FF"/>
</g>
<g style="mix-blend-mode:color-dodge">
<path d="M1859.39 300.025C1859.39 303.325 1862.07 305.999 1865.37 305.999C1868.67 305.999 1871.35 303.325 1871.35 300.025C1871.35 296.726 1868.67 294.051 1865.37 294.051C1862.07 294.051 1859.39 296.726 1859.39 300.025Z" fill="#00C2FF"/>
</g>
<g style="mix-blend-mode:color-dodge">
<g style="mix-blend-mode:color-dodge">
<path d="M1631.12 -22.2887L1585.59 -67.7609V-135H1584V-67.1254L1629.54 -21.6214V321.851H1631.12V-22.2887Z" fill="#00C2FF"/>
</g>
<g style="mix-blend-mode:color-dodge">
<path d="M1624.35 321.567C1624.35 322.748 1624.7 323.903 1625.36 324.886C1626.02 325.868 1626.95 326.634 1628.04 327.086C1629.14 327.538 1630.34 327.656 1631.5 327.426C1632.66 327.195 1633.72 326.626 1634.56 325.791C1635.39 324.955 1635.96 323.891 1636.19 322.732C1636.42 321.573 1636.31 320.372 1635.85 319.28C1635.4 318.189 1634.63 317.256 1633.65 316.599C1632.67 315.943 1631.51 315.593 1630.33 315.593C1628.75 315.593 1627.22 316.222 1626.1 317.342C1624.98 318.463 1624.35 319.982 1624.35 321.567Z" fill="#00C2FF"/>
</g>
</g>
<g style="mix-blend-mode:color-dodge">
<g style="mix-blend-mode:color-dodge">
<path d="M1741.81 156.547V-135.161L1671.41 -205.514V-265H1669.82V-204.847L1740.22 -134.526V155.912L1654.37 241.676L1655.51 242.82L1741.81 156.547Z" fill="#00C2FF"/>
</g>
<g style="mix-blend-mode:color-dodge">
<path d="M1649.18 242.025C1649.18 245.325 1651.86 247.999 1655.16 247.999C1658.46 247.999 1661.14 245.325 1661.14 242.025C1661.14 238.726 1658.46 236.051 1655.16 236.051C1651.86 236.051 1649.18 238.726 1649.18 242.025Z" fill="#00C2FF"/>
</g>
</g>
<g style="mix-blend-mode:color-dodge">
<g style="mix-blend-mode:color-dodge">
<path d="M1731.93 304.31V235.641H1730.34V304.31H1731.93Z" fill="#00C2FF"/>
</g>
<g style="mix-blend-mode:color-dodge">
<path d="M1725.12 235.96C1725.12 234.779 1725.47 233.624 1726.13 232.641C1726.79 231.659 1727.72 230.893 1728.81 230.441C1729.9 229.989 1731.11 229.87 1732.27 230.101C1733.43 230.331 1734.49 230.9 1735.33 231.736C1736.16 232.571 1736.73 233.636 1736.96 234.795C1737.19 235.953 1737.08 237.155 1736.62 238.246C1736.17 239.338 1735.4 240.271 1734.42 240.927C1733.44 241.584 1732.28 241.934 1731.1 241.934C1729.51 241.934 1727.99 241.305 1726.87 240.184C1725.75 239.064 1725.12 237.544 1725.12 235.96Z" fill="#00C2FF"/>
</g>
<g style="mix-blend-mode:color-dodge">
<path d="M1725.12 304.025C1725.12 305.207 1725.47 306.362 1726.13 307.344C1726.79 308.327 1727.72 309.092 1728.81 309.545C1729.9 309.997 1731.11 310.115 1732.27 309.884C1733.43 309.654 1734.49 309.085 1735.33 308.25C1736.16 307.414 1736.73 306.35 1736.96 305.191C1737.19 304.032 1737.08 302.831 1736.62 301.739C1736.17 300.647 1735.4 299.714 1734.42 299.058C1733.44 298.402 1732.28 298.051 1731.1 298.051C1729.51 298.051 1727.99 298.681 1726.87 299.801C1725.75 300.921 1725.12 302.441 1725.12 304.025Z" fill="#00C2FF"/>
</g>
</g>
<g style="mix-blend-mode:color-dodge">
<g style="mix-blend-mode:color-dodge">
<path d="M1834.56 17.8677L1857 -7H1854.78L1833 17.1404V496H1834.56V17.8677Z" fill="#00C2FF"/>
</g>
<g style="mix-blend-mode:color-dodge">
<path d="M1827.51 496.172C1827.51 499.472 1830.19 502.146 1833.49 502.146C1836.79 502.146 1839.47 499.472 1839.47 496.172C1839.47 492.873 1836.79 490.198 1833.49 490.198C1830.19 490.198 1827.51 492.873 1827.51 496.172Z" fill="#00C2FF"/>
</g>
</g>
<g style="mix-blend-mode:color-dodge">
<g style="mix-blend-mode:color-dodge">
<path d="M1782.89 26.6537L1808.65 -7H1806.39L1781.3 25.8217V627.552H1782.89V26.6537Z" fill="#00C2FF"/>
</g>
<g style="mix-blend-mode:color-dodge">
<path d="M1776.12 627.179C1776.12 628.725 1776.47 630.237 1777.13 631.523C1777.78 632.81 1778.72 633.812 1779.81 634.404C1780.9 634.996 1782.1 635.151 1783.26 634.849C1784.42 634.547 1785.49 633.802 1786.32 632.709C1787.16 631.615 1787.73 630.221 1787.96 628.704C1788.19 627.187 1788.07 625.615 1787.62 624.186C1787.17 622.757 1786.4 621.535 1785.42 620.676C1784.43 619.817 1783.28 619.358 1782.1 619.358C1780.51 619.358 1778.99 620.182 1777.87 621.649C1776.75 623.115 1776.12 625.104 1776.12 627.179Z" fill="#00C2FF"/>
</g>
</g>
<g style="mix-blend-mode:color-dodge">
<g style="mix-blend-mode:color-dodge">
<path d="M1471.1 1048.74L1381.2 1138.57V1318.07L1326.26 1372.98H1324L1379.61 1317.41V1137.93L1469.51 1048.1V885.69H1471.1V1048.74Z" fill="#00C2FF"/>
</g>
<g style="mix-blend-mode:color-dodge">
<path d="M1464.33 885.974C1464.33 884.792 1464.68 883.637 1465.33 882.655C1465.99 881.673 1466.92 880.907 1468.02 880.455C1469.11 880.003 1470.31 879.884 1471.47 880.115C1472.63 880.345 1473.69 880.914 1474.53 881.75C1475.37 882.585 1475.94 883.65 1476.17 884.809C1476.4 885.967 1476.28 887.169 1475.83 888.26C1475.37 889.352 1474.61 890.285 1473.62 890.941C1472.64 891.598 1471.49 891.948 1470.3 891.948C1468.72 891.948 1467.2 891.319 1466.08 890.198C1464.96 889.078 1464.33 887.558 1464.33 885.974Z" fill="#00C2FF"/>
</g>
</g>
<defs>
<radialGradient id="paint0_radial" cx="0" cy="0" r="1" gradientUnits="userSpaceOnUse" gradientTransform="translate(779.5 210) rotate(90) scale(19.5 68)">
<stop stop-color="#00C2FF"/>
<stop offset="0.529516" stop-color="#02FFE1" stop-opacity="0.16"/>
<stop offset="1" stop-color="#02FFE1" stop-opacity="0"/>
</radialGradient>
<radialGradient id="paint1_radial" cx="0" cy="0" r="1" gradientUnits="userSpaceOnUse" gradientTransform="translate(1366.5 195) rotate(90) scale(19.5 68)">
<stop stop-color="#00C2FF"/>
<stop offset="0.529516" stop-color="#02FFE1" stop-opacity="0.16"/>
<stop offset="1" stop-color="#02FFE1" stop-opacity="0"/>
</radialGradient>
<radialGradient id="paint2_radial" cx="0" cy="0" r="1" gradientUnits="userSpaceOnUse" gradientTransform="translate(185.5 358) rotate(90) scale(24 189.5)">
<stop stop-color="#00C2FF"/>
<stop offset="0.529516" stop-color="#02FFE1" stop-opacity="0.16"/>
<stop offset="1" stop-color="#02FFE1" stop-opacity="0"/>
</radialGradient>
<radialGradient id="paint3_radial" cx="0" cy="0" r="1" gradientUnits="userSpaceOnUse" gradientTransform="translate(434.5 713) rotate(90) scale(24 189.5)">
<stop stop-color="#00C2FF"/>
<stop offset="0.529516" stop-color="#02FFE1" stop-opacity="0.16"/>
<stop offset="1" stop-color="#02FFE1" stop-opacity="0"/>
</radialGradient>
<radialGradient id="paint4_radial" cx="0" cy="0" r="1" gradientUnits="userSpaceOnUse" gradientTransform="translate(796 632.5) rotate(90) scale(24 189.5)">
<stop stop-color="#00C2FF"/>
<stop offset="0.529516" stop-color="#02FFE1" stop-opacity="0.16"/>
<stop offset="1" stop-color="#02FFE1" stop-opacity="0"/>
</radialGradient>
<radialGradient id="paint5_radial" cx="0" cy="0" r="1" gradientUnits="userSpaceOnUse" gradientTransform="translate(1663 882.5) rotate(90) scale(24 189.5)">
<stop stop-color="#00C2FF"/>
<stop offset="0.529516" stop-color="#02FFE1" stop-opacity="0.16"/>
<stop offset="1" stop-color="#02FFE1" stop-opacity="0"/>
</radialGradient>
<radialGradient id="paint6_radial" cx="0" cy="0" r="1" gradientUnits="userSpaceOnUse" gradientTransform="translate(1864 732.5) rotate(90) scale(24 189.5)">
<stop stop-color="#00C2FF"/>
<stop offset="0.529516" stop-color="#02FFE1" stop-opacity="0.16"/>
<stop offset="1" stop-color="#02FFE1" stop-opacity="0"/>
</radialGradient>
<clipPath id="clip0">
<rect width="513" height="1021" fill="white" transform="translate(1555 -235) rotate(90)"/>
</clipPath>
<clipPath id="clip1">
<rect width="495" height="985" fill="white" transform="translate(-8 -34)"/>
</clipPath>
</defs>
</svg>
