<svg width="768" height="1024" viewBox="0 0 768 1024" fill="none" xmlns="http://www.w3.org/2000/svg">
<g clip-path="url(#clip0)">
<g style="mix-blend-mode:color-dodge">
<path style="mix-blend-mode:color-dodge" d="M134.5 1015C239.158 1015 324 1004.25 324 991C324 977.745 239.158 967 134.5 967C29.842 967 -55 977.745 -55 991C-55 1004.25 29.842 1015 134.5 1015Z" fill="url(#paint0_radial)" fill-opacity="0.4"/>
</g>
<g style="mix-blend-mode:color-dodge">
<g style="mix-blend-mode:color-dodge">
<g style="mix-blend-mode:color-dodge">
<path fill-rule="evenodd" clip-rule="evenodd" d="M198.124 254.563C197.176 255.196 196.062 255.534 194.922 255.534C193.393 255.534 191.927 254.927 190.846 253.845C189.947 252.946 189.375 251.781 189.208 250.534H38.4839L-48.1963 337.257H-221.373L-275 390.911V388.733L-222.017 335.723H-48.8095L37.8707 249H189.208C189.325 248.132 189.638 247.297 190.129 246.563C190.762 245.615 191.662 244.876 192.716 244.439C193.769 244.002 194.928 243.888 196.046 244.111C197.164 244.333 198.191 244.883 198.998 245.689C199.804 246.496 200.353 247.523 200.575 248.642C200.798 249.761 200.683 250.92 200.247 251.974C199.811 253.028 199.072 253.929 198.124 254.563Z" fill="#00C2FF"/>
</g>
</g>
</g>
<g style="mix-blend-mode:color-dodge">
<g style="mix-blend-mode:color-dodge">
<g style="mix-blend-mode:color-dodge">
<path fill-rule="evenodd" clip-rule="evenodd" d="M168.75 996.265C167.802 996.899 166.687 997.237 165.547 997.237C164.019 997.237 162.552 996.629 161.471 995.548C160.573 994.649 160.001 993.483 159.834 992.237H-165.599L-209.507 1036.17H-275V1034.63H-210.12L-166.243 990.703H159.834C159.951 989.834 160.264 989 160.754 988.266C161.388 987.317 162.288 986.578 163.341 986.142C164.395 985.705 165.554 985.591 166.672 985.813C167.79 986.036 168.817 986.585 169.623 987.392C170.43 988.198 170.979 989.226 171.201 990.345C171.423 991.463 171.309 992.623 170.873 993.677C170.437 994.731 169.698 995.631 168.75 996.265Z" fill="#00C2FF"/>
</g>
</g>
</g>
<g style="mix-blend-mode:color-dodge">
<g style="mix-blend-mode:color-dodge">
<g style="mix-blend-mode:color-dodge">
<path fill-rule="evenodd" clip-rule="evenodd" d="M-242.407 512.496L-175.932 579.003H17.3486C17.4651 578.134 17.7784 577.3 18.2688 576.566C18.9022 575.617 19.8025 574.878 20.8558 574.442C21.9091 574.005 23.0681 573.891 24.1863 574.113C25.3045 574.336 26.3316 574.885 27.1378 575.692C27.9439 576.498 28.4929 577.526 28.7154 578.645C28.9378 579.764 28.8236 580.923 28.3873 581.977C27.951 583.031 27.2122 583.931 26.2643 584.565C25.3163 585.199 24.2018 585.537 23.0617 585.537C21.5329 585.537 20.0667 584.93 18.9857 583.848C18.0869 582.949 17.5156 581.783 17.3485 580.537H-176.546L-243.02 514.029H-275V512.496H-242.407Z" fill="#00C2FF"/>
</g>
</g>
</g>
<g style="mix-blend-mode:color-dodge">
<g style="mix-blend-mode:color-dodge">
<g style="mix-blend-mode:color-dodge">
<path fill-rule="evenodd" clip-rule="evenodd" d="M79.142 937.786C79.142 940.971 76.5612 943.553 73.3777 943.553C70.4539 943.553 68.0386 941.375 67.6638 938.553H-175.718L-239.402 1002.27H-275V1000.73H-240.015L-176.362 937.019H67.6638C68.0387 934.196 70.454 932.019 73.3777 932.019C76.5612 932.019 79.142 934.601 79.142 937.786Z" fill="#00C2FF"/>
</g>
</g>
</g>
<g style="mix-blend-mode:color-dodge">
<g style="mix-blend-mode:color-dodge">
<g style="mix-blend-mode:color-dodge">
<path fill-rule="evenodd" clip-rule="evenodd" d="M59.6823 598.891C59.4603 600.01 58.9119 601.037 58.1063 601.844C57.0211 602.92 55.5556 603.523 54.0283 603.523C52.7561 603.523 51.5267 603.104 50.5243 602.343L-10.7279 663.597H-275V662.063H-11.3718L49.4235 601.237C48.9039 600.547 48.5438 599.746 48.3743 598.891C48.1523 597.773 48.2668 596.613 48.7032 595.56C49.1397 594.506 49.8785 593.606 50.8264 592.973C51.7742 592.339 52.8885 592.001 54.0283 592.001C55.1682 592.001 56.2824 592.339 57.2302 592.973C58.1781 593.606 58.9169 594.506 59.3534 595.56C59.7898 596.613 59.9043 597.773 59.6823 598.891Z" fill="#00C2FF"/>
</g>
</g>
</g>
<g style="mix-blend-mode:color-dodge">
<g style="mix-blend-mode:color-dodge">
<g style="mix-blend-mode:color-dodge">
<path fill-rule="evenodd" clip-rule="evenodd" d="M-149.717 883.917H131.756L210.748 962.919C211.716 962.182 212.925 961.744 214.235 961.744C217.419 961.744 220 964.326 220 967.511C220 970.696 217.419 973.278 214.235 973.278C211.052 973.278 208.471 970.696 208.471 967.511C208.471 966.2 208.909 964.99 209.646 964.021L131.143 885.451H-149.103L-216.957 953.369H-275V951.835H-217.601L-149.717 883.917Z" fill="#00C2FF"/>
</g>
</g>
</g>
<g style="mix-blend-mode:color-dodge">
<g style="mix-blend-mode:color-dodge">
<g style="mix-blend-mode:color-dodge">
<path fill-rule="evenodd" clip-rule="evenodd" d="M74.4497 577.64C73.3096 577.64 72.1951 577.302 71.2472 576.668C70.2992 576.035 69.5604 575.134 69.1241 574.08C68.6878 573.026 68.5736 571.867 68.7961 570.748C69.0185 569.629 69.5675 568.602 70.3737 567.795C71.1798 566.989 72.2069 566.439 73.3251 566.217C74.4433 565.994 75.6023 566.108 76.6556 566.545C77.7089 566.981 78.6092 567.721 79.2426 568.669C79.7272 569.395 80.039 570.218 80.1586 571.076H134.418C134.538 570.218 134.849 569.395 135.334 568.669C135.967 567.721 136.868 566.981 137.921 566.545C138.974 566.108 140.133 565.994 141.251 566.217C142.37 566.439 143.397 566.989 144.203 567.795C145.009 568.602 145.558 569.629 145.781 570.748C146.003 571.867 145.889 573.026 145.453 574.08C145.016 575.134 144.277 576.035 143.329 576.668C142.381 577.302 141.267 577.64 140.127 577.64C138.598 577.64 137.132 577.033 136.051 575.951C135.145 575.045 134.572 573.867 134.41 572.609H80.1669C80.0051 573.867 79.4318 575.045 78.5257 575.951C77.4447 577.033 75.9785 577.64 74.4497 577.64Z" fill="#00C2FF"/>
</g>
</g>
</g>
<g style="mix-blend-mode:color-dodge">
<g style="mix-blend-mode:color-dodge">
<path fill-rule="evenodd" clip-rule="evenodd" d="M188.235 288.972C188.235 292.157 185.655 294.74 182.471 294.74C179.547 294.74 177.132 292.562 176.757 289.739H37.84L-73.0015 400.666H-200.063L-272.302 472.94H-275V471.407H-272.915L-200.676 399.132H-73.6454L37.1961 288.205H176.757C177.132 285.383 179.547 283.205 182.471 283.205C185.655 283.205 188.235 285.787 188.235 288.972Z" fill="#00C2FF"/>
</g>
</g>
<g style="mix-blend-mode:color-dodge">
<g style="mix-blend-mode:color-dodge">
<g style="mix-blend-mode:color-dodge">
<path fill-rule="evenodd" clip-rule="evenodd" d="M194.809 428.925C194.587 430.044 194.038 431.072 193.232 431.878C192.147 432.954 190.682 433.557 189.154 433.557C187.882 433.557 186.653 433.139 185.651 432.377L103.854 514.215H-153.365L-203.16 464.365H-275V462.831H-202.547L-152.722 512.681H103.21L184.562 431.288C184.036 430.594 183.671 429.787 183.5 428.925C183.279 427.807 183.393 426.648 183.829 425.594C184.266 424.541 185.005 423.64 185.953 423.007C186.9 422.373 188.015 422.035 189.154 422.035C190.294 422.035 191.409 422.373 192.356 423.007C193.304 423.64 194.043 424.541 194.48 425.594C194.916 426.648 195.03 427.807 194.809 428.925Z" fill="#00C2FF"/>
</g>
</g>
</g>
<g style="mix-blend-mode:color-dodge">
<g style="mix-blend-mode:color-dodge">
<g style="mix-blend-mode:color-dodge">
<path fill-rule="evenodd" clip-rule="evenodd" d="M-204.913 429.485H-58.106L31.5484 339.756H150.485L188.266 377.556C187.968 377.946 187.721 378.375 187.532 378.831C187.242 379.528 187.093 380.276 187.093 381.031C187.093 381.787 187.242 382.535 187.532 383.232C187.822 383.93 188.246 384.563 188.781 385.096C189.586 385.906 190.613 386.459 191.732 386.685C192.851 386.911 194.012 386.799 195.068 386.363C196.123 385.928 197.026 385.189 197.661 384.239C198.296 383.29 198.635 382.174 198.635 381.031C198.635 379.889 198.296 378.773 197.661 377.823C197.026 376.874 196.123 376.135 195.068 375.7C194.012 375.264 192.851 375.152 191.732 375.378C190.862 375.553 190.048 375.926 189.351 376.464L151.129 338.222H30.9352L-58.7498 427.951H-204.913V429.485Z" fill="#00C2FF"/>
</g>
</g>
</g>
<g style="mix-blend-mode:color-dodge">
<g style="mix-blend-mode:color-dodge">
<g style="mix-blend-mode:color-dodge">
<path fill-rule="evenodd" clip-rule="evenodd" d="M143.334 384.377C142.386 385.011 141.272 385.349 140.132 385.349C138.603 385.349 137.137 384.741 136.056 383.66C135.149 382.753 134.576 381.576 134.414 380.318H80.1836L11.6857 448.881H-140.089V447.347H11.0418L79.5397 378.784H134.423C134.542 377.927 134.854 377.103 135.339 376.378C135.972 375.429 136.872 374.69 137.926 374.253C138.979 373.817 140.138 373.703 141.256 373.925C142.374 374.148 143.401 374.697 144.208 375.504C145.014 376.31 145.563 377.338 145.785 378.457C146.008 379.575 145.893 380.735 145.457 381.789C145.021 382.843 144.282 383.743 143.334 384.377Z" fill="#00C2FF"/>
</g>
</g>
</g>
<g style="mix-blend-mode:color-dodge">
<g style="mix-blend-mode:color-dodge">
<g style="mix-blend-mode:color-dodge">
<path fill-rule="evenodd" clip-rule="evenodd" d="M227.739 535.08C227.517 536.198 226.969 537.226 226.163 538.033C225.078 539.108 223.612 539.711 222.085 539.711C221.253 539.711 220.439 539.532 219.695 539.196L104.99 713H-197V710.592H104.322L218.129 538.15C218.088 538.111 218.047 538.072 218.007 538.033C217.201 537.226 216.653 536.198 216.431 535.08C216.209 533.961 216.323 532.802 216.76 531.748C217.196 530.695 217.935 529.794 218.883 529.161C219.831 528.528 220.945 528.189 222.085 528.189C223.225 528.189 224.339 528.528 225.287 529.161C226.235 529.794 226.974 530.695 227.41 531.748C227.846 532.802 227.961 533.961 227.739 535.08Z" fill="#00C2FF"/>
</g>
</g>
</g>
<g style="mix-blend-mode:color-dodge">
<g style="mix-blend-mode:color-dodge">
<g style="mix-blend-mode:color-dodge">
<path fill-rule="evenodd" clip-rule="evenodd" d="M-275 734.092L-252.985 756.118H164.278C164.653 753.295 167.068 751.118 169.991 751.118C173.175 751.118 175.756 753.7 175.756 756.885C175.756 760.07 173.175 762.652 169.991 762.652C167.068 762.652 164.652 760.474 164.278 757.652H-253.629L-275 736.27V734.092Z" fill="#00C2FF"/>
</g>
</g>
</g>
<g style="mix-blend-mode:color-dodge">
<g style="mix-blend-mode:color-dodge">
<g style="mix-blend-mode:color-dodge">
<path fill-rule="evenodd" clip-rule="evenodd" d="M-275 768.358L-250.195 793.206H186.723C186.839 792.337 187.153 791.503 187.643 790.769C188.276 789.82 189.177 789.081 190.23 788.645C191.283 788.208 192.442 788.094 193.561 788.316C194.679 788.539 195.706 789.088 196.512 789.895C197.318 790.701 197.867 791.729 198.09 792.848C198.312 793.966 198.198 795.126 197.762 796.18C197.325 797.234 196.586 798.134 195.638 798.768C194.691 799.402 193.576 799.74 192.436 799.74C190.907 799.74 189.441 799.132 188.36 798.051C187.461 797.152 186.89 795.986 186.723 794.74H-250.808L-275 770.536V768.358Z" fill="#00C2FF"/>
</g>
</g>
</g>
<g style="mix-blend-mode:color-dodge">
<g style="mix-blend-mode:color-dodge">
<path fill-rule="evenodd" clip-rule="evenodd" d="M-71.3678 1027.89C-72.1734 1027.08 -72.7219 1026.05 -72.9438 1024.93C-73.1658 1023.81 -73.0513 1022.65 -72.6149 1021.6C-72.1784 1020.55 -71.4396 1019.65 -70.4918 1019.01C-69.5439 1018.38 -68.4297 1018.04 -67.2898 1018.04C-66.15 1018.04 -65.0357 1018.38 -64.0879 1019.01C-63.1401 1019.65 -62.4012 1020.55 -61.9648 1021.6C-61.5283 1022.65 -61.4138 1023.81 -61.6358 1024.93C-61.8095 1025.81 -62.183 1026.63 -62.7232 1027.33L9.88768 1099.98H216.038C216.399 1097.14 218.822 1094.94 221.756 1094.94C224.939 1094.94 227.52 1097.53 227.52 1100.71C227.52 1103.9 224.939 1106.48 221.756 1106.48C218.843 1106.48 216.434 1104.32 216.046 1101.51H9.24377L-63.8033 1028.4C-64.8024 1029.15 -66.025 1029.56 -67.2898 1029.56C-68.8171 1029.56 -70.2827 1028.96 -71.3678 1027.89Z" fill="#00C2FF"/>
</g>
</g>
<path d="M182.5 455C287.158 455 372 444.255 372 431C372 417.745 287.158 407 182.5 407C77.842 407 -7 417.745 -7 431C-7 444.255 77.842 455 182.5 455Z" fill="url(#paint1_radial)" fill-opacity="0.4"/>
<g style="mix-blend-mode:color-dodge">
<g style="mix-blend-mode:color-dodge">
<g style="mix-blend-mode:color-dodge">
<path fill-rule="evenodd" clip-rule="evenodd" d="M617.95 669.793C618.606 670.776 618.957 671.931 618.957 673.112C618.957 674.697 618.327 676.216 617.206 677.337C616.274 678.268 615.066 678.86 613.774 679.033V1016.3L659.309 1061.8V1129.68H657.719V1062.44L612.184 1016.97V679.033C611.284 678.913 610.419 678.588 609.658 678.08C608.675 677.423 607.908 676.49 607.456 675.399C607.004 674.307 606.885 673.106 607.116 671.947C607.347 670.788 607.916 669.724 608.752 668.888C609.588 668.053 610.653 667.484 611.813 667.253C612.972 667.023 614.174 667.141 615.267 667.593C616.359 668.045 617.293 668.811 617.95 669.793Z" fill="#00C2FF"/>
</g>
</g>
</g>
<g style="mix-blend-mode:color-dodge">
<g style="mix-blend-mode:color-dodge">
<g style="mix-blend-mode:color-dodge">
<path fill-rule="evenodd" clip-rule="evenodd" d="M684.977 669.118C681.676 669.118 678.999 671.793 678.999 675.092C678.999 678.392 681.676 681.066 684.977 681.066C684.989 681.066 685.001 681.066 685.014 681.066V933.34L644.001 999.28V1036.14H644.988V999.915L686.001 934.007V680.979C688.815 680.494 690.955 678.043 690.955 675.092C690.955 671.793 688.279 669.118 684.977 669.118Z" fill="#00C2FF"/>
</g>
</g>
</g>
<g style="mix-blend-mode:color-dodge">
<g style="mix-blend-mode:color-dodge">
<g style="mix-blend-mode:color-dodge">
<path fill-rule="evenodd" clip-rule="evenodd" d="M746.814 934.299V642.591L664.925 560.726C665.689 559.723 666.143 558.471 666.143 557.112C666.143 553.813 663.466 551.138 660.165 551.138C656.863 551.138 654.187 553.813 654.187 557.112C654.187 560.412 656.863 563.086 660.165 563.086C661.524 563.086 662.778 562.633 663.782 561.869L745.224 643.226V933.663L674.824 1003.98V1064.14H676.414V1004.65L746.814 934.299Z" fill="#00C2FF"/>
</g>
</g>
</g>
<g style="mix-blend-mode:color-dodge">
<g style="mix-blend-mode:color-dodge">
<g style="mix-blend-mode:color-dodge">
<path fill-rule="evenodd" clip-rule="evenodd" d="M732.826 374.75C732.192 373.802 731.854 372.687 731.854 371.547C731.854 370.018 732.462 368.552 733.543 367.471C734.442 366.572 735.608 366.001 736.854 365.834V40.4004L692.925 -3.50694V-69H694.459V-4.12017L738.388 39.7565V365.834C739.257 365.95 740.091 366.264 740.825 366.754C741.774 367.388 742.513 368.288 742.949 369.341C743.386 370.395 743.5 371.553 743.278 372.672C743.055 373.79 742.506 374.817 741.699 375.623C740.893 376.429 739.865 376.978 738.746 377.201C737.628 377.423 736.468 377.309 735.414 376.873C734.36 376.436 733.46 375.698 732.826 374.75Z" fill="#00C2FF"/>
</g>
</g>
</g>
<g style="mix-blend-mode:color-dodge">
<g style="mix-blend-mode:color-dodge">
<path fill-rule="evenodd" clip-rule="evenodd" d="M638.481 -31.7212L702.197 31.9321V275.958C705.019 276.332 707.197 278.748 707.197 281.671C707.197 284.855 704.615 287.436 701.43 287.436C698.244 287.436 695.662 284.855 695.662 281.671C695.662 278.748 697.84 276.332 700.663 275.957V32.576L636.947 -31.108V-66.7061H638.481V-31.7212Z" fill="#00C2FF"/>
</g>
</g>
<g style="mix-blend-mode:color-dodge">
<g style="mix-blend-mode:color-dodge">
<g style="mix-blend-mode:color-dodge">
<path fill-rule="evenodd" clip-rule="evenodd" d="M670.362 67.4215V348.895L591.361 427.886C592.098 428.854 592.535 430.063 592.535 431.374C592.535 434.557 589.953 437.138 586.768 437.138C583.583 437.138 581.001 434.557 581.001 431.374C581.001 428.19 583.583 425.609 586.768 425.609C588.08 425.609 589.289 426.047 590.258 426.784L668.828 348.281V68.0347L600.91 0.180759V-57.8616H602.444V-0.463135L670.362 67.4215Z" fill="#00C2FF"/>
</g>
</g>
</g>
<g style="mix-blend-mode:color-dodge">
<g style="mix-blend-mode:color-dodge">
<g style="mix-blend-mode:color-dodge">
<path fill-rule="evenodd" clip-rule="evenodd" d="M664 497.039C664 498.221 664.351 499.376 665.008 500.358C665.664 501.341 666.598 502.106 667.69 502.558C668.783 503.011 669.985 503.129 671.144 502.898C672.304 502.668 673.369 502.099 674.205 501.263C675.041 500.428 675.611 499.363 675.841 498.205C676.072 497.046 675.953 495.845 675.501 494.753C675.049 493.661 674.282 492.728 673.299 492.072C672.547 491.57 671.694 491.247 670.804 491.123V434.891C671.694 434.767 672.547 434.444 673.299 433.941C674.282 433.285 675.049 432.352 675.501 431.26C675.953 430.169 676.072 428.967 675.841 427.809C675.611 426.65 675.041 425.585 674.205 424.75C673.369 423.914 672.304 423.345 671.144 423.115C669.985 422.884 668.783 423.003 667.69 423.455C666.598 423.907 665.664 424.673 665.008 425.655C664.351 426.637 664 427.792 664 428.974C664 430.558 664.63 432.078 665.751 433.198C666.691 434.137 667.911 434.731 669.215 434.899V491.114C667.911 491.282 666.691 491.876 665.751 492.815C664.63 493.935 664 495.455 664 497.039Z" fill="#00C2FF"/>
</g>
</g>
</g>
<g style="mix-blend-mode:color-dodge">
<g style="mix-blend-mode:color-dodge">
<path fill-rule="evenodd" clip-rule="evenodd" d="M611 621.039C611 622.221 611.351 623.376 612.008 624.358C612.664 625.341 613.598 626.106 614.69 626.558C615.783 627.011 616.985 627.129 618.144 626.898C619.304 626.668 620.369 626.099 621.205 625.263C622.041 624.428 622.611 623.363 622.841 622.205C623.072 621.046 622.953 619.845 622.501 618.753C622.049 617.661 621.282 616.728 620.299 616.072C619.602 615.607 618.819 615.295 618 615.153V548.86C618.819 548.718 619.602 548.407 620.299 547.941C621.282 547.285 622.049 546.352 622.501 545.26C622.953 544.169 623.072 542.967 622.841 541.809C622.611 540.65 622.041 539.585 621.205 538.75C620.369 537.914 619.304 537.345 618.144 537.115C616.985 536.884 615.783 537.003 614.69 537.455C613.598 537.907 612.664 538.673 612.008 539.655C611.351 540.637 611 541.792 611 542.974C611 544.558 611.63 546.078 612.751 547.198C613.639 548.086 614.777 548.665 616 548.868V615.146C614.777 615.348 613.639 615.928 612.751 616.815C611.63 617.935 611 619.455 611 621.039Z" fill="#00C2FF"/>
</g>
</g>
<g style="mix-blend-mode:color-dodge">
<g style="mix-blend-mode:color-dodge">
<g style="mix-blend-mode:color-dodge">
<path fill-rule="evenodd" clip-rule="evenodd" d="M290.361 625.113C289.704 626.096 289.353 627.251 289.353 628.432C289.353 630.017 289.983 631.536 291.104 632.657C292.036 633.588 293.244 634.18 294.536 634.353V971.62L249.001 1017.12V1085H250.591V1017.76L296.126 972.288V634.353C297.026 634.233 297.891 633.908 298.652 633.4C299.635 632.743 300.402 631.81 300.854 630.719C301.306 629.627 301.425 628.426 301.194 627.267C300.964 626.108 300.394 625.044 299.558 624.208C298.722 623.373 297.657 622.804 296.497 622.573C295.338 622.343 294.136 622.461 293.043 622.913C291.951 623.365 291.017 624.131 290.361 625.113Z" fill="#00C2FF"/>
</g>
</g>
</g>
<g style="mix-blend-mode:color-dodge">
<g style="mix-blend-mode:color-dodge">
<g style="mix-blend-mode:color-dodge">
<path fill-rule="evenodd" clip-rule="evenodd" d="M255.359 499.655C254.702 500.637 254.352 501.792 254.352 502.974C254.352 504.558 254.982 506.078 256.103 507.198C257.006 508.101 258.168 508.685 259.414 508.878V944.322L214 1002.79V1090H215.586V1003.61L261 945.179V508.91C261.945 508.804 262.855 508.473 263.651 507.941C264.634 507.285 265.4 506.352 265.853 505.26C266.305 504.169 266.424 502.967 266.193 501.809C265.962 500.65 265.393 499.585 264.557 498.75C263.721 497.914 262.656 497.345 261.496 497.115C260.336 496.884 259.135 497.003 258.042 497.455C256.95 497.907 256.016 498.673 255.359 499.655Z" fill="#00C2FF"/>
</g>
</g>
</g>
<g style="mix-blend-mode:color-dodge">
<g style="mix-blend-mode:color-dodge">
<path fill-rule="evenodd" clip-rule="evenodd" d="M370.814 933.16V641.452L327.37 549.451C329.481 548.529 330.956 546.423 330.956 543.974C330.956 540.675 328.28 538 324.978 538C321.676 538 319 540.675 319 543.974C319 547.273 321.676 549.948 324.978 549.948C325.286 549.948 325.588 549.925 325.884 549.88L369.225 642.087V932.525L298.824 1002.85V1063H300.414V1003.51L370.814 933.16Z" fill="#00C2FF"/>
</g>
</g>
<g style="mix-blend-mode:color-dodge">
<g style="mix-blend-mode:color-dodge">
<g style="mix-blend-mode:color-dodge">
<path fill-rule="evenodd" clip-rule="evenodd" d="M582 1024L558.566 994.914V493.731C559.393 493.588 560.185 493.269 560.888 492.789C561.871 492.12 562.637 491.167 563.09 490.053C563.542 488.939 563.661 487.713 563.43 486.53C563.199 485.347 562.63 484.261 561.794 483.408C560.958 482.555 559.893 481.974 558.733 481.739C557.574 481.504 556.372 481.625 555.279 482.086C554.187 482.548 553.253 483.329 552.596 484.332C551.939 485.335 551.589 486.513 551.589 487.72C551.589 489.337 552.219 490.888 553.34 492.031C554.326 493.038 555.623 493.656 557 493.79V995.693L579.776 1024H582Z" fill="#00C2FF"/>
</g>
</g>
</g>
<g style="mix-blend-mode:color-dodge">
<g style="mix-blend-mode:color-dodge">
<g style="mix-blend-mode:color-dodge">
<path fill-rule="evenodd" clip-rule="evenodd" d="M402.12 572.039C402.12 573.22 402.47 574.375 403.127 575.358C403.784 576.34 404.718 577.106 405.81 577.558C406.902 578.01 408.104 578.128 409.264 577.898C410.424 577.667 411.489 577.098 412.325 576.263C413.161 575.427 413.73 574.363 413.961 573.204C414.191 572.045 414.073 570.844 413.621 569.753C413.168 568.661 412.402 567.728 411.419 567.072C410.667 566.569 409.813 566.246 408.924 566.122V509.89C409.813 509.766 410.667 509.443 411.419 508.941C412.402 508.284 413.168 507.351 413.621 506.26C414.073 505.168 414.191 503.967 413.961 502.808C413.73 501.649 413.161 500.585 412.325 499.749C411.489 498.914 410.424 498.345 409.264 498.114C408.104 497.884 406.902 498.002 405.81 498.454C404.718 498.906 403.784 499.672 403.127 500.655C402.47 501.637 402.12 502.792 402.12 503.974C402.12 505.558 402.749 507.077 403.871 508.198C404.81 509.137 406.03 509.731 407.334 509.899V566.114C406.03 566.281 404.81 566.875 403.871 567.814C402.749 568.935 402.12 570.454 402.12 572.039Z" fill="#00C2FF"/>
</g>
</g>
</g>
<g style="mix-blend-mode:color-dodge">
<g style="mix-blend-mode:color-dodge">
<g style="mix-blend-mode:color-dodge">
<path fill-rule="evenodd" clip-rule="evenodd" d="M524 1036L501.562 1010.19L501.563 517.705C504.352 517.199 506.468 514.76 506.468 511.827C506.468 508.527 503.791 505.853 500.49 505.853C497.188 505.853 494.512 508.527 494.512 511.827C494.512 514.961 496.928 517.532 500 517.781V1010.95L521.781 1036H524Z" fill="#00C2FF"/>
</g>
</g>
</g>
<g style="mix-blend-mode:color-dodge">
<g style="mix-blend-mode:color-dodge">
<g style="mix-blend-mode:color-dodge">
<path fill-rule="evenodd" clip-rule="evenodd" d="M475.649 1073.41L449.893 1047.7V594.894C450.793 594.774 451.658 594.449 452.419 593.941C453.402 593.284 454.168 592.351 454.621 591.26C455.073 590.168 455.191 588.967 454.961 587.808C454.73 586.649 454.161 585.585 453.325 584.749C452.489 583.914 451.424 583.345 450.264 583.114C449.104 582.884 447.902 583.002 446.81 583.454C445.718 583.906 444.784 584.672 444.127 585.655C443.47 586.637 443.12 587.792 443.12 588.974C443.12 590.558 443.749 592.077 444.871 593.198C445.803 594.129 447.011 594.721 448.303 594.894V1048.34L473.391 1073.41H475.649Z" fill="#00C2FF"/>
</g>
</g>
</g>
<path d="M588 487.5C588 382.842 577.255 298 564 298C550.745 298 540 382.842 540 487.5C540 592.158 550.745 677 564 677C577.255 677 588 592.158 588 487.5Z" fill="url(#paint2_radial)" fill-opacity="0.4"/>
<g style="mix-blend-mode:color-dodge">
<g style="mix-blend-mode:color-dodge">
<path fill-rule="evenodd" clip-rule="evenodd" d="M484.925 -41.5847L574.818 48.2475V265.088C575.718 265.209 576.583 265.534 577.344 266.042C578.327 266.698 579.093 267.631 579.545 268.722C579.998 269.814 580.116 271.015 579.886 272.174C579.655 273.333 579.086 274.397 578.25 275.233C577.414 276.068 576.348 276.637 575.189 276.868C574.029 277.098 572.827 276.98 571.735 276.528C570.642 276.076 569.709 275.31 569.052 274.328C568.395 273.345 568.044 272.19 568.044 271.009C568.044 269.424 568.674 267.905 569.795 266.784C570.727 265.853 571.936 265.261 573.228 265.088V48.8831L483.335 -40.9491V-220.423L427.72 -276H429.978L484.925 -221.09V-41.5847Z" fill="#00C2FF"/>
</g>
</g>
<g style="mix-blend-mode:color-dodge">
<g style="mix-blend-mode:color-dodge">
<path fill-rule="evenodd" clip-rule="evenodd" d="M538.204 -14.5847L628.097 75.2475V322.088C628.997 322.209 629.862 322.533 630.623 323.042C631.606 323.698 632.372 324.631 632.825 325.722C633.277 326.814 633.396 328.015 633.165 329.174C632.934 330.333 632.365 331.397 631.529 332.233C630.693 333.068 629.628 333.637 628.468 333.868C627.308 334.098 626.106 333.98 625.014 333.528C623.922 333.076 622.988 332.31 622.331 331.328C621.674 330.345 621.324 329.19 621.324 328.009C621.324 326.424 621.954 324.905 623.075 323.784C624.007 322.853 625.215 322.261 626.507 322.088V75.8831L536.614 -13.9491V-193.423L481 -249H483.257L538.204 -194.09V-14.5847Z" fill="#00C2FF"/>
</g>
</g>
<g style="mix-blend-mode:color-dodge">
<g style="mix-blend-mode:color-dodge">
<path fill-rule="evenodd" clip-rule="evenodd" d="M274.289 -242.222L205.351 -173.33V26.9789C206.252 27.0996 207.116 27.4243 207.877 27.9326C208.861 28.589 209.627 29.522 210.079 30.6136C210.532 31.7052 210.65 32.9064 210.419 34.0652C210.189 35.2241 209.619 36.2885 208.783 37.124C207.947 37.9595 206.882 38.5284 205.723 38.759C204.563 38.9895 203.361 38.8712 202.269 38.419C201.176 37.9668 200.243 37.2011 199.586 36.2187C198.929 35.2363 198.578 34.0813 198.578 32.8997C198.578 31.3154 199.208 29.7958 200.329 28.6755C201.261 27.7441 202.469 27.152 203.761 26.9788V-173.966L272.699 -242.857V-276H274.289V-242.222Z" fill="#00C2FF"/>
</g>
</g>
<g style="mix-blend-mode:color-dodge">
<g style="mix-blend-mode:color-dodge">
<g style="mix-blend-mode:color-dodge">
<path fill-rule="evenodd" clip-rule="evenodd" d="M196.139 70.8527C194.979 70.6226 193.914 70.0542 193.078 69.2193C191.963 68.0947 191.338 66.5759 191.338 64.993C191.338 63.6744 191.772 62.4002 192.561 61.3613L129.069 -2.11826V-276H130.658V-2.78555L193.707 60.2206C194.423 59.6822 195.253 59.3091 196.139 59.1334C197.298 58.9034 198.5 59.022 199.592 59.4743C200.684 59.9267 201.617 60.6924 202.274 61.6747C202.93 62.657 203.281 63.8118 203.281 64.993C203.281 66.1743 202.93 67.3291 202.274 68.3114C201.617 69.2937 200.684 70.0594 199.592 70.5117C198.5 70.9641 197.298 71.0827 196.139 70.8527Z" fill="#00C2FF"/>
</g>
</g>
</g>
<g style="mix-blend-mode:color-dodge">
<g style="mix-blend-mode:color-dodge">
<g style="mix-blend-mode:color-dodge">
<path fill-rule="evenodd" clip-rule="evenodd" d="M94.0269 -276L70.2419 -252.263V153.482C71.1422 153.603 72.0068 153.928 72.7679 154.436C73.751 155.092 74.5173 156.025 74.9697 157.117C75.4222 158.209 75.5405 159.41 75.3098 160.569C75.0792 161.727 74.5098 162.792 73.6738 163.627C72.8377 164.463 71.7726 165.032 70.6129 165.262C69.4533 165.493 68.2514 165.375 67.1591 164.922C66.0668 164.47 65.133 163.705 64.4761 162.722C63.8193 161.74 63.4688 160.585 63.4688 159.403C63.4688 157.819 64.0986 156.299 65.2197 155.179C66.1518 154.247 67.36 153.655 68.6521 153.482V-252.898L91.7692 -276H94.0269Z" fill="#00C2FF"/>
</g>
</g>
</g>
<g style="mix-blend-mode:color-dodge">
<g style="mix-blend-mode:color-dodge">
<g style="mix-blend-mode:color-dodge">
<path fill-rule="evenodd" clip-rule="evenodd" d="M218.166 86.1566C218.166 84.9751 218.517 83.8201 219.174 82.8376C219.83 81.8552 220.764 81.0895 221.856 80.6374C222.949 80.1852 224.151 80.0669 225.31 80.2974C226.47 80.5279 227.535 81.0969 228.371 81.9324C229.207 82.7678 229.777 83.8323 230.007 84.9911C230.238 86.15 230.119 87.3512 229.667 88.4428C229.215 89.5344 228.448 90.4674 227.465 91.1238C226.713 91.6261 225.86 91.9492 224.971 92.0732V148.305C225.86 148.429 226.713 148.752 227.465 149.255C228.448 149.911 229.215 150.844 229.667 151.936C230.119 153.027 230.238 154.228 230.007 155.387C229.777 156.546 229.207 157.611 228.371 158.446C227.535 159.282 226.47 159.85 225.31 160.081C224.151 160.311 222.949 160.193 221.856 159.741C220.764 159.289 219.83 158.523 219.174 157.541C218.517 156.558 218.166 155.403 218.166 154.222C218.166 152.637 218.796 151.118 219.917 149.998C220.857 149.059 222.077 148.464 223.381 148.297V92.0817C222.077 91.914 220.857 91.3199 219.917 90.3809C218.796 89.2605 218.166 87.741 218.166 86.1566Z" fill="#00C2FF"/>
</g>
</g>
</g>
<g style="mix-blend-mode:color-dodge">
<g style="mix-blend-mode:color-dodge">
<path fill-rule="evenodd" clip-rule="evenodd" d="M403.198 -67.3237L518.18 47.5484V192.184C521.105 192.573 523.363 195.076 523.363 198.106C523.363 201.406 520.686 204.08 517.385 204.08C514.083 204.08 511.407 201.406 511.407 198.106C511.407 195.076 513.664 192.573 516.59 192.184V48.2158L401.608 -66.6564V-198.338L326.693 -273.204V-276H328.282V-273.839L403.198 -198.974V-67.3237Z" fill="#00C2FF"/>
</g>
</g>
<g style="mix-blend-mode:color-dodge">
<g style="mix-blend-mode:color-dodge">
<g style="mix-blend-mode:color-dodge">
<path fill-rule="evenodd" clip-rule="evenodd" d="M340.183 210.892C339.024 210.662 337.958 210.094 337.122 209.259C336.008 208.134 335.382 206.616 335.382 205.033C335.382 203.714 335.816 202.441 336.605 201.402L251.777 116.631V-149.943L303.448 -201.548V-276H305.038V-200.912L253.366 -149.275V115.963L337.734 200.274C338.453 199.728 339.29 199.35 340.183 199.173C341.343 198.943 342.544 199.062 343.636 199.514C344.728 199.966 345.662 200.732 346.318 201.714C346.975 202.697 347.325 203.852 347.325 205.033C347.325 206.214 346.975 207.369 346.318 208.351C345.662 209.333 344.728 210.099 343.636 210.552C342.544 211.004 341.343 211.122 340.183 210.892Z" fill="#00C2FF"/>
</g>
</g>
</g>
<g style="mix-blend-mode:color-dodge">
<g style="mix-blend-mode:color-dodge">
<g style="mix-blend-mode:color-dodge">
<path fill-rule="evenodd" clip-rule="evenodd" d="M344.786 -187.82V-35.6742L437.795 57.2403V180.501L398.613 219.656C398.208 219.348 397.764 219.092 397.292 218.896C396.569 218.596 395.793 218.441 395.011 218.441C394.228 218.441 393.452 218.596 392.729 218.896C392.006 219.196 391.35 219.636 390.797 220.19C389.957 221.024 389.384 222.089 389.15 223.248C388.916 224.408 389.033 225.612 389.484 226.705C389.935 227.799 390.701 228.735 391.685 229.393C392.669 230.051 393.827 230.402 395.011 230.402C396.195 230.402 397.352 230.051 398.336 229.393C399.32 228.735 400.086 227.799 400.537 226.705C400.989 225.612 401.105 224.408 400.871 223.248C400.689 222.347 400.303 221.504 399.745 220.781L439.385 181.169V56.6048L346.376 -36.3415V-187.82H344.786Z" fill="#00C2FF"/>
</g>
</g>
</g>
<g style="mix-blend-mode:color-dodge">
<g style="mix-blend-mode:color-dodge">
<g style="mix-blend-mode:color-dodge">
<path fill-rule="evenodd" clip-rule="evenodd" d="M372.885 157.545C372.228 156.562 371.877 155.407 371.877 154.226C371.877 152.642 372.507 151.122 373.628 150.002C374.568 149.063 375.788 148.469 377.092 148.301V92.099L306.024 21.1103V-136.183H307.614V20.443L378.682 91.4317V148.309C379.571 148.433 380.424 148.756 381.177 149.259C382.16 149.915 382.926 150.848 383.378 151.94C383.831 153.031 383.949 154.233 383.719 155.391C383.488 156.55 382.919 157.615 382.083 158.45C381.247 159.286 380.181 159.855 379.022 160.085C377.862 160.316 376.66 160.197 375.568 159.745C374.475 159.293 373.542 158.527 372.885 157.545Z" fill="#00C2FF"/>
</g>
</g>
</g>
<g style="mix-blend-mode:color-dodge">
<g style="mix-blend-mode:color-dodge">
<g style="mix-blend-mode:color-dodge">
<path fill-rule="evenodd" clip-rule="evenodd" d="M223.93 226.366C222.771 226.136 221.705 225.567 220.869 224.732C219.755 223.608 219.129 222.089 219.129 220.506C219.129 219.188 219.563 217.913 220.353 216.875L109.704 106.3V-195.577H111.294V105.633L221.481 215.747C222.201 215.201 223.038 214.824 223.93 214.647C225.09 214.417 226.291 214.535 227.383 214.988C228.475 215.44 229.409 216.206 230.065 217.188C230.722 218.17 231.072 219.325 231.072 220.506C231.072 221.688 230.722 222.842 230.065 223.825C229.409 224.807 228.475 225.573 227.383 226.025C226.291 226.477 225.09 226.596 223.93 226.366Z" fill="#00C2FF"/>
</g>
</g>
</g>
<g style="mix-blend-mode:color-dodge">
<g style="mix-blend-mode:color-dodge">
<g style="mix-blend-mode:color-dodge">
<path fill-rule="evenodd" clip-rule="evenodd" d="M55.9966 -276L33.1656 -253.184V179.251C36.0913 179.639 38.3486 182.142 38.3486 185.172C38.3486 188.472 35.6722 191.146 32.3706 191.146C29.069 191.146 26.3926 188.472 26.3926 185.172C26.3926 182.142 28.6499 179.639 31.5757 179.251V-253.852L53.7389 -276H55.9966Z" fill="#00C2FF"/>
</g>
</g>
</g>
<g style="mix-blend-mode:color-dodge">
<g style="mix-blend-mode:color-dodge">
<g style="mix-blend-mode:color-dodge">
<path fill-rule="evenodd" clip-rule="evenodd" d="M20.4784 -276L-5.27798 -250.293V202.513C-4.37754 202.633 -3.5128 202.958 -2.75161 203.466C-1.76854 204.123 -1.00235 205.056 -0.549886 206.147C-0.0974261 207.239 0.0209969 208.44 -0.209666 209.599C-0.440329 210.758 -1.00971 211.822 -1.84575 212.658C-2.68179 213.493 -3.74695 214.062 -4.90657 214.293C-6.06618 214.523 -7.26815 214.405 -8.36049 213.953C-9.45283 213.501 -10.3865 212.735 -11.0434 211.752C-11.7002 210.77 -12.0508 209.615 -12.0508 208.433C-12.0508 206.849 -11.421 205.33 -10.2999 204.209C-9.3679 203.278 -8.15983 202.686 -6.86788 202.513V-250.928L18.2207 -276H20.4784Z" fill="#00C2FF"/>
</g>
</g>
</g>
<path d="M397 154C397 116.445 388.27 86 377.5 86C366.73 86 358 116.445 358 154C358 191.555 366.73 222 377.5 222C388.27 222 397 191.555 397 154Z" fill="url(#paint3_radial)" fill-opacity="0.4"/>
<path d="M89.0005 154C89.0005 116.445 80.27 86 69.5005 86C58.7309 86 50.0005 116.445 50.0005 154C50.0005 191.555 58.7309 222 69.5005 222C80.27 222 89.0005 191.555 89.0005 154Z" fill="url(#paint4_radial)" fill-opacity="0.4"/>
</g>
<defs>
<radialGradient id="paint0_radial" cx="0" cy="0" r="1" gradientUnits="userSpaceOnUse" gradientTransform="translate(134.5 991) rotate(90) scale(24 189.5)">
<stop stop-color="#00C2FF"/>
<stop offset="0.529516" stop-color="#02FFE1" stop-opacity="0.16"/>
<stop offset="1" stop-color="#02FFE1" stop-opacity="0"/>
</radialGradient>
<radialGradient id="paint1_radial" cx="0" cy="0" r="1" gradientUnits="userSpaceOnUse" gradientTransform="translate(182.5 431) rotate(90) scale(24 189.5)">
<stop stop-color="#00C2FF"/>
<stop offset="0.529516" stop-color="#02FFE1" stop-opacity="0.16"/>
<stop offset="1" stop-color="#02FFE1" stop-opacity="0"/>
</radialGradient>
<radialGradient id="paint2_radial" cx="0" cy="0" r="1" gradientUnits="userSpaceOnUse" gradientTransform="translate(564 487.5) scale(24 189.5)">
<stop stop-color="#00C2FF"/>
<stop offset="0.529516" stop-color="#02FFE1" stop-opacity="0.16"/>
<stop offset="1" stop-color="#02FFE1" stop-opacity="0"/>
</radialGradient>
<radialGradient id="paint3_radial" cx="0" cy="0" r="1" gradientUnits="userSpaceOnUse" gradientTransform="translate(377.5 154) scale(19.5 68)">
<stop stop-color="#00C2FF"/>
<stop offset="0.529516" stop-color="#02FFE1" stop-opacity="0.16"/>
<stop offset="1" stop-color="#02FFE1" stop-opacity="0"/>
</radialGradient>
<radialGradient id="paint4_radial" cx="0" cy="0" r="1" gradientUnits="userSpaceOnUse" gradientTransform="translate(69.5005 154) scale(19.5 68)">
<stop stop-color="#00C2FF"/>
<stop offset="0.529516" stop-color="#02FFE1" stop-opacity="0.16"/>
<stop offset="1" stop-color="#02FFE1" stop-opacity="0"/>
</radialGradient>
<clipPath id="clip0">
<rect width="768" height="1024" fill="white"/>
</clipPath>
</defs>
</svg>
